<svg xmlns="http://www.w3.org/2000/svg" viewBox="0 0 799.951 574.919"><defs><style>.a{fill:#f2f2f2;}.b{fill:#6c63ff;}.c{fill:#3f3d56;}.d{opacity:0.1;}.e{fill:#2f2e41;}.f{fill:#a0616a;}.g{fill:#d0cde1;}.h{fill:#f99555;}</style></defs><g transform="translate(0 -0.035)"><circle class="a" cx="247.363" cy="247.363" r="247.363" transform="translate(81.731 73.72)"/><path class="b" d="M949.481,244.348l-25.806,30.6c-1.392,13.178-3.367,27.9-6.166,43.353l42.4-43.864.2.766a119.048,119.048,0,0,0-10.862-31.577Z" transform="translate(-287.884 -105.41)"/><path class="b" d="M926.365,263.073l25-29.638c-5.456-10.143-12.366-18.245-20.622-23.563-.43-.277-.862-.537-1.295-.8C929.452,212.679,929.346,233.825,926.365,263.073Z" transform="translate(-290.335 -95.85)"/><path class="b" d="M947.166,408.962l.053.888q2.17-8.158,3.709-16.336l-61.487,39.7-.041-.4q-1.745,4.75-3.586,9.324Z" transform="translate(-279.114 -146.887)"/><path class="b" d="M959.457,331.642l.125.841a187.145,187.145,0,0,0-3.12-44.067l-43.208,44.7q-4.034,21.7-9.5,41.308Z" transform="translate(-284.079 -117.805)"/><path class="b" d="M823.732,244.779a156.273,156.273,0,0,0-16.5,26.83L878.448,352.9c2.932-11.4,5.3-22.458,7.2-32.77l-62.29-74.547Z" transform="translate(-257.37 -105.73)"/><path class="b" d="M800.279,293.338l.362-.815,73.131,81.138q1.181-4.167,2.259-8.29l-71.476-81.592.367-.812Q802.5,287.974,800.279,293.338Z" transform="translate(-255.445 -116.297)"/><path class="b" d="M952.663,379.744l.087.868a223.512,223.512,0,0,0,3.451-29.928l-56.456,43.361q-3.719,13.054-8.056,25.068Z" transform="translate(-280.74 -135.035)"/><path class="b" d="M850.92,496.2c-9.568,16.652-20.409,30.729-32.416,42.065,13.281-5.357,66.787-28.956,94.517-71.513Z" transform="translate(-260.488 -167.154)"/><path class="b" d="M784.4,354.407a216.207,216.207,0,0,0-1.245,28.915l.446-.866,57.355,80.459A268.8,268.8,0,0,0,855.03,433.94Z" transform="translate(-250.689 -136.066)"/><path class="b" d="M910.561,260.719c3.218-31.644,3.045-53.695,3.042-54.011l.547-.222c-12.913-7.485-27.182-7.225-41.08-.572Z" transform="translate(-275.588 -93.587)"/><path class="b" d="M879.169,451.146c-.388.943-.773,1.891-1.167,2.822A267.036,267.036,0,0,1,865.284,480.1L926.8,450.927l.031.872a105.875,105.875,0,0,0,11.445-24.147q1.616-5.017,2.981-10.071Z" transform="translate(-273.433 -153.547)"/><path class="b" d="M892.528,307.977c2.756-15.275,4.7-29.828,6.077-42.853l-38.351-56.063.4-.765c-10.444,5.165-20.659,13.939-29.914,25.741Z" transform="translate(-263.876 -95.634)"/><path class="b" d="M840.144,475.924l-56.936-79.871c1.372,57.9,21.14,119.686,22.415,123.616C819.3,507.424,830.676,492.37,840.144,475.924Z" transform="translate(-250.721 -147.59)"/><path class="b" d="M856.289,416.749l.059-.032A362.757,362.757,0,0,0,869.083,379.8l-73.311-81.338q-2.971,7.279-5.52,15.167a129.982,129.982,0,0,0-5,23.129Z" transform="translate(-251.287 -120.586)"/><path class="b" d="M1014.454,573l-39.391,7.106c-9.478,9.262-20.391,19.344-32.4,29.457l60.633-6.741-.336.717a119.055,119.055,0,0,0,11.775-31.248Z" transform="translate(-294.845 -196.358)"/><path class="b" d="M989.756,565.686l38.157-6.882c2.267-11.292,2.113-21.94-.855-31.3-.154-.487-.321-.964-.489-1.439C1024.274,528.842,1010.705,545.062,989.756,565.686Z" transform="translate(-307.877 -183.566)"/><path class="b" d="M914.038,703.018l-.525.718q6.874-4.9,13.276-10.216l-72.677-8.641.227-.338q-4.374,2.546-8.709,4.894Z" transform="translate(-267.995 -227.419)"/><path class="b" d="M963.7,651.714l-.44.727a187.147,187.147,0,0,0,25.7-35.93L927.17,623.38q-16.948,14.141-33.664,25.756Z" transform="translate(-281.243 -208.595)"/><path class="b" d="M929.006,489.409a156.263,156.263,0,0,0-29.818,10.142l3,108.032c9.531-6.911,18.4-13.919,26.445-20.648L928.2,489.79Z" transform="translate(-282.815 -173.423)"/><path class="b" d="M883.987,508.957l.8-.4L889.359,617.7q3.567-2.457,7.027-4.944l-3.01-108.43.8-.391Q889.116,506.24,883.987,508.957Z" transform="translate(-278.609 -177.441)"/><path class="b" d="M932.073,686.309l-.487.724a223.5,223.5,0,0,0,21.747-20.849L882.2,663.571Q871.006,671.254,860,677.74Z" transform="translate(-271.972 -221.617)"/><path class="b" d="M778.682,712.955c-17.99,6.723-35.318,10.65-51.8,11.723,13.646,4.345,69.907,20.3,118.408,5.206Z" transform="translate(-235.136 -235.282)"/><path class="b" d="M825.908,545.049a216.215,216.215,0,0,0-19.4,21.477l.9-.382-7.144,98.552a268.781,268.781,0,0,0,29.322-13.34Z" transform="translate(-255.439 -188.82)"/><path class="b" d="M988.71,554.52c22.662-22.32,36.593-39.413,36.792-39.658l.563.178c-5.171-14-16.327-22.9-31.275-26.642Z" transform="translate(-307.587 -173.143)"/><path class="b" d="M831.372,692.962c-.9.479-1.8.964-2.7,1.429A267.035,267.035,0,0,1,802.213,706.4l65.98,16.768-.532.691a105.876,105.876,0,0,0,24.216-11.3q4.444-2.834,8.719-5.855Z" transform="translate(-255.98 -229.75)"/><path class="b" d="M941.949,584.531c11.866-10.007,22.647-19.974,32.013-29.129l6.22-67.64.8-.332c-11.338-2.683-24.8-2.441-39.457.746Z" transform="translate(-294.53 -172.366)"/><path class="b" d="M777.206,673.878l7.092-97.831c-35.871,45.467-60.056,105.664-61.58,109.5C741.058,684.842,759.424,680.5,777.206,673.878Z" transform="translate(-233.982 -197.397)"/><path class="b" d="M841.6,641.165l.066.013a362.766,362.766,0,0,0,33.352-20.307l-4.584-109.4q-6.931,3.711-13.925,8.16a130,130,0,0,0-18.6,14.625Z" transform="translate(-265.857 -179.527)"/><path class="b" d="M753.3,390.931l-15.086,37.075c2.749,12.963,5.423,27.579,7.536,43.136l26.765-54.821.426.667a119.045,119.045,0,0,0-20.09-26.673Z" transform="translate(-238.27 -146.002)"/><path class="b" d="M732.277,419.272l14.613-35.913c-8.324-7.96-17.4-13.53-26.9-16.034-.494-.13-.986-.245-1.478-.357C719.636,370.392,726.071,390.535,732.277,419.272Z" transform="translate(-232.82 -139.541)"/><path class="b" d="M801.781,544.253l.325.828q-.458-8.429-1.522-16.683l-46.2,56.76-.164-.372q-.191,5.057-.529,9.976Z" transform="translate(-242.552 -184.212)"/><path class="b" d="M792.564,468.388l.379.761A187.156,187.156,0,0,0,776.354,428.2l-27.275,55.867q2.871,21.885,3.734,42.222Z" transform="translate(-241.277 -156.487)"/><path class="b" d="M631.066,432.012a156.269,156.269,0,0,0-7.4,30.615l92.853,55.3c-.736-11.75-1.905-23-3.283-33.39l-82.282-51.643Z" transform="translate(-206.575 -157.54)"/><path class="b" d="M621.825,486.844l.092-.887,94.629,54.561q-.165-4.328-.414-8.582l-93.2-55.5.1-.886Q622.276,481.058,621.825,486.844Z" transform="translate(-206.064 -169.587)"/><path class="b" d="M800.287,514.838l.351.8a223.514,223.514,0,0,0-5.969-29.53l-40.288,58.688q.5,13.564.086,26.33Z" transform="translate(-242.744 -172.509)"/><path class="b" d="M739.922,653.493c-3.952,18.794-9.911,35.533-17.827,50.025,10.975-9.2,54.566-48.181,67.784-97.226Z" transform="translate(-233.81 -205.767)"/><path class="b" d="M624.847,550.225a216.216,216.216,0,0,0,7.754,27.884l.156-.961,79.416,58.791a268.81,268.81,0,0,0,4.429-31.908Z" transform="translate(-206.9 -190.252)"/><path class="b" d="M715.991,419.093c-6.721-31.089-13.7-52.007-13.8-52.306l.451-.38c-14.594-3.128-28.084,1.531-39.245,12.154Z" transform="translate(-217.567 -139.121)"/><path class="b" d="M751.8,604.1c-.078,1.016-.15,2.037-.237,3.044a267.031,267.031,0,0,1-4.02,28.78l49.484-46.753.3.82a105.872,105.872,0,0,0,3.421-26.5q-.014-5.271-.278-10.5Z" transform="translate(-240.851 -191.018)"/><path class="b" d="M715.9,469.265c-2.1-15.379-4.747-29.821-7.466-42.633l-53.8-41.463.148-.853c-8.336,8.14-15.339,19.642-20.492,33.727Z" transform="translate(-209.512 -144.342)"/><path class="b" d="M714.949,648.716l-78.836-58.361c19.2,54.638,57.1,107.291,59.527,110.634C704.859,685.117,711.027,667.283,714.949,648.716Z" transform="translate(-210.018 -201.357)"/><path class="b" d="M715.623,586.2l.046-.048a362.759,362.759,0,0,0,.7-39.042l-94.862-54.7q-.576,7.841-.562,16.13a129.984,129.984,0,0,0,2.395,23.542Z" transform="translate(-205.821 -174.256)"/><ellipse class="c" cx="399.975" cy="23.145" rx="399.975" ry="23.145" transform="translate(0 528.664)"/><path class="d" d="M685.635,753.737c0,44.984-62.7,31.07-139.474,31.07s-138.543,13.914-138.543-31.07,62.694-54.767,139.466-54.767S685.635,708.753,685.635,753.737Z" transform="translate(-146.789 -231.412)"/><path class="c" d="M685.635,738.424c0,44.984-62.7,31.07-139.474,31.07s-138.543,13.914-138.543-31.07,62.694-54.767,139.466-54.767S685.635,693.44,685.635,738.424Z" transform="translate(-146.789 -227.175)"/><path class="e" d="M812.974,495.512s0,75.5,4.035,92.217,18.443,77.232,18.443,77.232l19.6-4.034s-3.458-80.114-6.916-91.641,4.034-58.789,13.833-69.163-4.611-16.714-4.611-16.714Z" transform="translate(-258.958 -171.763)"/><path class="d" d="M812.974,495.512s0,75.5,4.035,92.217,18.443,77.232,18.443,77.232l19.6-4.034s-3.458-80.114-6.916-91.641,4.034-58.789,13.833-69.163-4.611-16.714-4.611-16.714Z" transform="translate(-258.958 -171.763)"/><path class="e" d="M853.249,714.5s-25.936,10.375-27.665,10.375-2.882,29.97-2.882,29.97,1.729,17.867-26.513,23.631,22.478,18.443,31.7,12.1,13.256-10.951,13.256-10.951l3.458-5.764-1.153,9.8,4.035.576,9.222-18.443s2.305-13.833-.576-17.291S853.249,714.5,853.249,714.5Z" transform="translate(-251.971 -235.71)"/><path class="f" d="M651.225,512.144l4.034,22.478,19.02-1.729-3.458-16.138Z" transform="translate(-180.205 -141.709)"/><path class="e" d="M785.63,424.607l-3.458,5.764s-99.709-13.833-99.709,23.055-4.611,58.789-5.764,60.518,29.971,20.172,36.887,19.02a24.031,24.031,0,0,0,4.034-14.409c-.576-8.069,4.611-38.04,0-39.769,0,0,5.764-2.305,5.187-5.764,0,0,81.267,11.527,91.641,9.222s17.291-9.8,19.02-14.409,5.433-22.6,5.433-22.6l-.822-30.428-9.222-10.951-13.833-1.729L793.7,415.385Z" transform="translate(-221.24 -149.271)"/><path class="f" d="M911.332,508.909s-8.069,18.443,1.153,18.443,12.68-16.138,12.68-16.138Z" transform="translate(-285.271 -178.819)"/><path class="g" d="M817.588,257.675l-2.882-3.458S782.43,181.6,795.11,162s68.01-22.478,69.739-21.325,6.916,5.187,6.34,6.34-12.1,4.034-8.069,10.951c0,0-5.764,1.729-6.916-.576s-4.611-2.882-5.764-.576-19.6,7.493-19.6,9.222-2.882,10.374-5.764,11.527.576,18.443,6.34,23.054,9.8,17.291,9.8,17.291l-2.882,25.936Z" transform="translate(-253.198 -76.862)"/><path class="e" d="M840.362,167.277c-3.448,1.755-6.876,4-8.955,7.529-4.255,7.229-1.537,17.118-4.173,25.249-1.124,3.467-3.172,6.447-4.862,9.616s-3.068,6.792-2.626,10.446c.434,3.584,2.543,6.623,3.539,10.065,1.714,5.923,0,12.345-1.939,18.182q-1.589,4.795-3.381,9.5c-.693,1.821-1.524,3.771-3.115,4.648l13.64,1.119c3.964.325,8.345.517,11.461-2.234a13.227,13.227,0,0,0,2.984-4.266c3.079-6.43,3.576-14.011,3.222-21.289s-1.492-14.509-1.43-21.8a22.151,22.151,0,0,1,.956-7.07,39.875,39.875,0,0,1,2.562-5.186c3.109-5.994,4.393-12.914,5.632-19.7.85-4.653,2.206-11.392-.225-15.764S843.64,165.608,840.362,167.277Z" transform="translate(-259.477 -83.45)"/><circle class="f" cx="23.631" cy="23.631" r="23.631" transform="translate(570.73 87.443)"/><path class="f" d="M856.005,231.564s3.746,14.7,1.441,22.19,31.411-10.086,31.411-10.086-10.374-13.833-10.374-18.443Z" transform="translate(-270.866 -100.319)"/><path class="g" d="M887.76,258.232s-7.493-5.764-7.493-8.645-5.187-9.222-5.187-9.222-24.783,12.68-25.936,12.68-1.729-7.493-1.729-7.493L820.9,281.863s-8.645,20.749-5.764,36.887,7.493,32.852,5.187,47.838.576,20.172,4.035,18.443,0-7.493,7.493-6.916,32.852-7.493,34.582-10.951,8.645,7.493,9.222,13.833-1.153,23.631,0,23.054,2.882-10.374,3.458-14.985,2.305-19.6,0-21.9-.576-5.764,1.153-6.916,29.971-72.621,29.971-72.621-2.882-14.985-12.68-20.172S887.76,258.232,887.76,258.232Z" transform="translate(-259.394 -104.508)"/><path class="g" d="M925.938,292.161l9.222,9.8v51.872s12.1,62.247,4.611,65.7-10.951,2.305-10.951,2.305,1.729,31.7-3.458,31.7-13.256-2.305-17.867-1.153c0,0,1.153-11.527,4.611-16.714s3.458-14.409,3.458-14.409-5.187,0-5.187-7.493-.576-12.1-1.153-13.833-4.611-32.276-4.611-32.276Z" transform="translate(-284.316 -118.841)"/><path class="e" d="M858.532,164.208c3.99-2.536,9.279-.616,13.913-1.551,5.037-1.016,9.235-5.409,14.367-5.159,4.269.208,7.64,3.574,10.4,6.834a48.214,48.214,0,0,1,6.63,9.494,57.831,57.831,0,0,1,3.94,12.083l3.408,13.828a69.725,69.725,0,0,0,4.423,13.762c2.1,4.348,5.223,8.345,9.466,10.648a27.852,27.852,0,0,1-15.924.051,32.66,32.66,0,0,0,9.587,13.406c-3.844,1.173-7.986-.009-12,.246a17.027,17.027,0,0,0-13.8,9.043c-2.095,4.085-2.417,8.819-3.668,13.235-3.734,13.184-16.732,23.154-30.433,23.343,3.841-5.537,7.874-11.965,6.386-18.538-.9-3.973-3.733-7.308-4.573-11.294-.9-4.26.587-8.606,1.6-12.842s1.427-9.1-1.2-12.571c-2.784-3.683-8.37-4.9-10.165-9.152a13.051,13.051,0,0,1-.707-4.91l-.115-7.579a16.029,16.029,0,0,1,.4-4.733,16.9,16.9,0,0,1,3.248-5.4c2.464-3.174,4.861-6.55,5.816-10.453,1.16-4.74-.64-7.68-2.949-11.516C854.594,171.16,855.067,166.411,858.532,164.208Z" transform="translate(-269.216 -81.575)"/><path class="f" d="M892.9,146.335s26.512,23.055,19.6,31.124-17.867-14.985-17.867-14.985L883.1,153.828Z" transform="translate(-278.363 -78.489)"/><path class="e" d="M715.43,574.251s-30.547,7.493-34.005,13.833c0,0-4.034,19.6-4.034,27.665s-1.729,23.054-17.867,25.936-27.665,8.069-5.764,12.1,28.242,5.187,34.582-3.458,9.8-10.951,9.8-10.951l4.611,11.527h2.882l10.951-23.631s1.153-11.527-1.729-18.444S715.43,574.251,715.43,574.251Z" transform="translate(-211.558 -196.9)"/><path class="g" d="M894.853,147.139s-.881,9.222-13.409,10.951l-2.729-8.645,8.645-7.493Z" transform="translate(-277.15 -77.276)"/><circle class="h" cx="62.202" cy="62.202" r="62.202" transform="translate(247.728 299.882)"/><path class="h" d="M380.832,322.252h0a48.765,48.765,0,0,1-60.059-26.4L253.348,144.433a65.294,65.294,0,0,1,38.88-88.462h0a65.294,65.294,0,0,1,84.486,47.645l36.195,161.754A48.765,48.765,0,0,1,380.832,322.252Z" transform="translate(-102.538 -52.545)"/><path class="h" d="M49.907,0A49.907,49.907,0,1,1,0,49.907,49.907,49.907,0,0,1,49.907,0Z" transform="translate(257.724 305.321)"/><path class="h" d="M376.837,306.086h0a44.743,44.743,0,0,1-55.106-24.219L259.868,142.933a59.909,59.909,0,0,1,35.673-81.167h0a59.909,59.909,0,0,1,77.519,43.715L406.269,253.9a44.743,44.743,0,0,1-29.432,52.189Z" transform="translate(-104.471 -54.226)"/></g></svg>