<svg xmlns="http://www.w3.org/2000/svg" xmlns:xlink="http://www.w3.org/1999/xlink" viewBox="0 0 644.859 486.408"><defs><style>.a,.e{fill:#6c63ff;}.a,.c,.g{opacity:0.1;}.b{fill:#fff;}.ae,.d{opacity:0.2;}.f{fill:#ffd2c6;}.h{fill:#626696;}.i{fill:#ffcde5;}.j{fill:#985c7e;}.k{fill:url(#a);}.l{fill:#cc818c;}.m{fill:#444053;}.aa,.n{opacity:0.05;}.o{fill:#ff748f;}.p,.r{fill:#575988;}.q{fill:#dce6f2;}.r{opacity:0.5;}.s{fill:#67647e;}.t{fill:#585268;}.u{fill:#e4aab4;}.v{fill:#ffd037;}.w{fill:#65617d;}.x{fill:#9d9cb5;}.y{fill:url(#b);}.z{fill:#2d293d;}.ab{fill:#ffcdd3;}.ac{fill:#656691;}.ad{fill:#a8a8a8;}</style><linearGradient id="a" x1="0.877" y1="1" x2="0.877" gradientUnits="objectBoundingBox"><stop offset="0" stop-color="gray" stop-opacity="0.251"/><stop offset="0.54" stop-color="gray" stop-opacity="0.122"/><stop offset="1" stop-color="gray" stop-opacity="0.102"/></linearGradient><linearGradient id="b" x1="0.5" y1="1" x2="0.5" y2="0" xlink:href="#a"/></defs><g transform="translate(-0.016 -0.004)"><path class="a" d="M458.221,110.11c-27.67,23.488-63.561,21.969-95.012,9.746S302.866,85.88,272.222,70.414a255.45,255.45,0,0,0-79.936-25.265c-39.056-5.42-82.67,1.2-109.88,39.151-30.3,42.286-27.975,118.555,4.786,157.347,16.674,19.743,38.505,29.435,57.542,44.871s36.668,41.018,35.047,70.776c-1.5,27.521-18.953,48.682-37.015,61.946-13.958,10.249-31.146,21.442-32.827,42.675-1.627,20.539,12.827,36.639,26.629,45.792,45.026,29.86,100.511,29.573,145.382-.754,16-10.823,30.692-25.217,47.473-33.641,44.063-22.136,92.619.144,139.279,8.3a231.762,231.762,0,0,0,118.459-10.458c23.105-8.274,46.3-20.94,62.532-44.488,11.708-16.991,19-38.5,25.846-59.738q10.949-33.964,21.053-68.419c4.038-13.79,8.017-27.844,9.064-42.591,1.891-26.731-6.079-53.157-16.931-75.712C662.958,126.64,619.559,88.979,572.558,79.412s-96.724,9.118-133.177,50" transform="translate(-61.06 -43.49)"/><ellipse class="a" cx="135.797" cy="6.198" rx="135.797" ry="6.198" transform="translate(157.102 312.404)"/><path class="b" d="M460.334,367.907a123.114,123.114,0,1,1,123.1-123.114A123.251,123.251,0,0,1,460.334,367.907Zm0-245.031A121.917,121.917,0,1,0,582.251,244.794,122.055,122.055,0,0,0,460.334,122.877Z" transform="translate(-171.993 -74.899)"/><path class="b" d="M478.881,358.83a95.485,95.485,0,1,1,95.485-95.485A95.6,95.6,0,0,1,478.881,358.83Zm0-189.774a94.289,94.289,0,1,0,94.289,94.289A94.4,94.4,0,0,0,478.881,169.057Z" transform="translate(-190.541 -93.45)"/><path class="b" d="M498.811,349.081a65.811,65.811,0,1,1,65.811-65.811A65.811,65.811,0,0,1,498.811,349.081Zm0-130.425a64.614,64.614,0,1,0,64.614,64.614,64.614,64.614,0,0,0-64.614-64.614Z" transform="translate(-210.47 -113.376)"/><ellipse class="a" cx="8.537" cy="2.824" rx="8.537" ry="2.824" transform="translate(577.775 238.38)"/><ellipse class="a" cx="50.279" cy="8.25" rx="50.279" ry="8.25" transform="translate(56.55 381.721)"/><g class="c" transform="translate(33.558 161.369)"><path d="M278.549,313.21H125.157a8.041,8.041,0,0,0-8.017,8.017v96.921a8.041,8.041,0,0,0,8.017,8.017H245.489s3.117,16.548-7.125,18.331c0,0,22.938,1.645,18.93-18.331h21.257a8.041,8.041,0,0,0,8.017-8.017V321.227A8.041,8.041,0,0,0,278.549,313.21Z" transform="translate(-117.14 -313.21)"/><g class="d" transform="translate(22.579 25.726)"><rect width="124.262" height="7.574" rx="3.787"/><rect width="124.262" height="7.574" rx="3.787" transform="translate(0 33.851)"/><rect width="104.208" height="7.574" rx="3.787" transform="translate(0 50.77)"/><rect width="53.881" height="7.574" rx="3.787" transform="translate(0 16.925)"/></g></g><path class="b" d="M280.785,312.09h-153.4a8.041,8.041,0,0,0-8.017,8.017v96.921a8.041,8.041,0,0,0,8.017,8.017H247.719s3.123,16.548-7.125,18.325c0,0,22.938,1.645,18.93-18.325h21.263a8.035,8.035,0,0,0,8.011-8.017V320.107a8.035,8.035,0,0,0-8.011-8.017Z" transform="translate(-84.478 -151.391)"/><g class="d" transform="translate(57.477 186.425)"><rect class="e" width="124.262" height="7.574" rx="3.787"/><rect class="e" width="124.262" height="7.574" rx="3.787" transform="translate(0 33.851)"/><rect class="e" width="104.208" height="7.574" rx="3.787" transform="translate(0 50.776)"/><rect class="e" width="53.881" height="7.574" rx="3.787" transform="translate(0 16.925)"/></g><path class="f" d="M273.351,302.855l-8.5,18.08s-1.256,3.392-2.064,4.02-4.379,11.367-4.379,11.367l-9.112,14.083h0l-.6.957-3.59-.987L242.6,341l.156-2.722v-.341s5.642-5.9,6.892-6.348c0,0,.981.114,2.866-4.457s3.59-5.564,3.59-5.564l.981-3.314,10.566-16.818s8.854-12.7,11.266-7.066S273.351,302.855,273.351,302.855Z" transform="translate(-133.982 -143.694)"/><path class="f" d="M218.726,520.679a2.034,2.034,0,0,1-.287.867c-.981,1.43-6.527,30.686-6.527,30.686.443,1.974-.8,5.911-1.615,7.7s-2.6,11.092-2.6,11.092-.443,20.042-1.6,23.171.371,9.842.371,9.842c-.114,3.087,1.741,6.348,2.842,8.011.084.108.15.215.215.305.359.515.6.808.6.808a4.66,4.66,0,0,0,1.25,1.55c.078.066.162.126.251.191a14.244,14.244,0,0,0,5.014,2.118l.173.036c.718.162,1.2.221,1.2.221l.443,2.393-4.738.981-9.034.6s-10.649.808-8.232-3.937a7.5,7.5,0,0,0,.437-1.005h0c.09-.227.173-.467.245-.706,1.454-4.559.473-10.1.473-10.1l-2.082-16.124c-3.392-15.029,2.68-31.763,2.68-31.763s-.532-1.34.634-4.738,0-10.823,0-10.823-.6-9.572-1.43-14.317a28.927,28.927,0,0,1-.323-6.025,30.094,30.094,0,0,1,.323-3.53l20.4-2.7S218.953,518.782,218.726,520.679Z" transform="translate(-114.655 -233.097)"/><path class="g" d="M219.485,684.253l-4.738.981-9.034.6s-10.649.808-8.232-3.937a7.5,7.5,0,0,0,.437-1.005h0c.09-.227.174-.467.245-.706a16.386,16.386,0,0,1,5.385,1.089c3.033,1.2,5.319-1.885,5.319-1.885l1.472-2.812.215-.407c.359.514.6.808.6.808a4.786,4.786,0,0,0,1.5,1.735l-.251.526-1.43,2.991s1.831.185,4.337.6a1.939,1.939,0,0,0,2.357-1.292l.173.036c.718.162,1.2.221,1.2.221Z" transform="translate(-115.713 -297.65)"/><path class="h" d="M223.351,686.978c-.359,1.609-10.332,2.106-10.332,2.106s-5.552-.538-7.108.76-6.138.987-6.318.987-2.591-.1-3.536-4.427c-.915-4.224,1.232-4.96,1.34-5h0a16.23,16.23,0,0,1,5.642,1.095c3.033,1.2,5.319-1.879,5.319-1.879l1.687-3.225c.359.515.6.808.6.808a4.726,4.726,0,0,0,1.5,1.741l-1.681,3.536s1.831.185,4.338.6a2.072,2.072,0,0,0,2.531-1.968,2.034,2.034,0,0,0,0-.269s1.562.449,3.482.987A3.59,3.59,0,0,1,223.351,686.978Z" transform="translate(-115.194 -298.144)"/><path class="f" d="M258.249,540.452c-.239,1.43-.485,5.133-.485,5.133.838,3.1-1.31,10.464-1.31,10.464l-1.071,4.188c.479,5.385-2.949,18.493-2.949,18.493s-2.3,12.169-3.494,17.422a14.484,14.484,0,0,0,.6,8.771c.06.144.1.215.1.215a1,1,0,0,0,.072.293c.03.1.078.287.126.425a6.462,6.462,0,0,0,1.2,2,6.055,6.055,0,0,0,.64.658l.036.036a12.947,12.947,0,0,0,3.805,2.339h0l.6.239a17.986,17.986,0,0,0,1.9.6h0a1.981,1.981,0,0,0,.215.048l-.485,2.812-6.318-1.615-8.466-2.746-4.188-2.393s.048-.227.132-.664v-.072c.036-.185.072-.407.126-.658.712-3.649,2.333-14,1.52-21.6-1.011-9.423,2.914-22.429,3.871-25.529a15.477,15.477,0,0,0,.718-5.486c-1.556-2.273-1.914-11.331-1.914-11.331s-2.86-5.851-5.229-12.055a31.71,31.71,0,0,1-1.705-6.27,21.926,21.926,0,0,1-.347-4.583s19.217-17.536,21.323-.556c.072.6.138,1.125.2,1.663C259.3,536.211,258.477,539.07,258.249,540.452Z" transform="translate(-131.301 -231.548)"/><path class="g" d="M260.176,674.595l-.485,2.812-6.318-1.615-8.466-2.746-4.188-2.393s.048-.227.132-.664v-.072c.036-.185.072-.407.126-.658l.6-.06h.048a7.969,7.969,0,0,1,3.548.479c1.376.521,3.183,1.113,3.554.862a4.521,4.521,0,0,1,2.028-.359l.879-1.926.126-.293a6.39,6.39,0,0,0,1.2,2,6.758,6.758,0,0,0,.676.694l-.036.682-.048.963a12.311,12.311,0,0,0,3.039,1.406,1.759,1.759,0,0,0,.85,0h0l.6.239a17.988,17.988,0,0,0,1.9.6h0A1.959,1.959,0,0,0,260.176,674.595Z" transform="translate(-133.227 -294.352)"/><path class="h" d="M256.63,681.078c-1.765-.508-6.019-1.316-6.707-.688s-6.581,0-6.581,0a3.59,3.59,0,0,1-3.045-1.795c-1.2-1.909-.233-8.083-.233-8.083l.437-.042.73-.072h.048a7.878,7.878,0,0,1,3.548.479c1.376.515,3.183,1.107,3.554.862a4.439,4.439,0,0,1,2.028-.359l1.005-2.22a6.461,6.461,0,0,0,1.2,2,6.757,6.757,0,0,0,.676.694L253.2,673.5a12.391,12.391,0,0,0,3.039,1.4,1.2,1.2,0,0,0,1.46-.461.9.9,0,0,0,.108-.245h0a10.279,10.279,0,0,0,2.495.832h0a4.567,4.567,0,0,1,4.87,3.506C266.071,681.269,258.359,681.58,256.63,681.078Z" transform="translate(-132.816 -294.834)"/><path class="g" d="M220.474,520.667c-.395.114-.754.221-1.089.329a15.1,15.1,0,0,1-2.638.556c-5.642.8-14.957.317-17.906.132a30.092,30.092,0,0,1,.323-3.53l20.4-2.7S220.7,518.77,220.474,520.667Z" transform="translate(-116.403 -233.085)"/><path class="h" d="M237.048,497.033s-7.49,1.161-13.581,2.495c-2.034.443-3.913.9-5.3,1.358a16.278,16.278,0,0,1-2.638.556c-6.784.951-18.834.072-18.834.072-3.308-10.733,4.02-24.248,4.02-24.248-.173-1.077,1.526-4.379,1.526-4.379l.03-.108,1.041-3.829h27.826l.341,1.645.706,3.35,4.367,20.742Z" transform="translate(-115.196 -214.405)"/><path class="g" d="M257.46,520.681l-.168.072-3.255,1.442c-3.524,1.627-14.072,1.932-17.757,1.962a21.927,21.927,0,0,1-.347-4.583s19.217-17.536,21.323-.556C257.328,519.622,257.394,520.143,257.46,520.681Z" transform="translate(-131.301 -231.544)"/><path class="h" d="M246.336,501.893l-.682.3L242.4,503.64c-3.59,1.651-14.472,1.944-17.948,1.962h-.915c-1.609-.054-3.219-1.561-3.219-1.956,0-.215-.168-1.274-.311-2.184-.12-.73-.227-1.358-.227-1.358a83.568,83.568,0,0,1-10.823-5.606c-2.734-1.861-2.046-15.083-1.514-21.729.185-2.291.347-3.8.347-3.8l28.167,1.645,3.949.227,2.261.5.6.126s1.615,11.81,2.393,12.791.275,4.3.179,6.18a11.481,11.481,0,0,1-.263,2.393s1.161,3.314.885,5.169A10.308,10.308,0,0,0,246.336,501.893Z" transform="translate(-119.662 -214.413)"/><circle class="f" cx="11.541" cy="11.541" r="11.541" transform="translate(84.986 166.323)"/><path class="f" d="M206.633,348.8s.8,10.931-1.43,13.437a99.887,99.887,0,0,1-8.053,7.245l1.795,7.425,10.111,1.167,11.81-12.618-2.686-3.308s-2.058-6.982-.359-10.47S206.633,348.8,206.633,348.8Z" transform="translate(-115.724 -166.123)"/><path class="g" d="M249.295,380.146h0l-.6.957-3.59-.987-2.507-9.375.156-2.722.736-1.059s3.937.1,3.763,3.673C247.081,373.774,248.87,378.95,249.295,380.146Z" transform="translate(-133.982 -173.433)"/><path class="g" d="M242.612,472.887s-2.848.634-6.108,1.059-7.024.64-8.567-.257c-2.591-1.532-16.626-1.095-20.653-.939a4.606,4.606,0,0,0-.694.03l1.041-3.829h27.826l.341,1.645,3.949.227,2.261.5C242.385,472.253,242.612,472.887,242.612,472.887Z" transform="translate(-119.516 -214.405)"/><path class="i" d="M218.888,368.15s3.937.09,3.757,3.667,2.148,9.752,2.148,9.752l-.9,2.058s-1.25,5.008-.269,6.264,4.565,1.25,2.507,11.541c0,0-.443,7.694.628,10.2s1.071,8.5,2.68,11a60.469,60.469,0,0,1,3.763,8.322s-11.637,2.591-14.676.8-21.741-.879-21.741-.879.09-3.135,0-3.488a2.991,2.991,0,0,1,.449-2.285c.6-.85,1.609-2.279,1.071-3.53s1.346-3.1.359-5.038-2.184-2.327-1.944-3.386a4.589,4.589,0,0,0-1.095-3.386c-.712-.891-5.552-10.35-5.552-10.35l-.8-4.433s-6.228-4.565-6.114-6.713,2.357-5.121,2.357-5.121l5.983-5.881s3.308,3.59,6.527,2.327,10.165-7.245,10.165-7.245,2.477-1.34,2.656-2.321,1.7-.09,1.7-.09,2.238-1.226,2.686-.8a7.766,7.766,0,0,0,2.393.8Z" transform="translate(-110.103 -173.911)"/><path class="f" d="M167.041,399.3l-1.909,1.49a25.481,25.481,0,0,0-2.393,9.752,133.61,133.61,0,0,1-2.393,15.112l-3.757,6.719s-6.192,12.965-6.994,16.4-4.475,9.261-4.475,9.261-12.438,11.176-3.757,13.162,8.944-8.9,8.944-8.9,2.028-2.238,2.357-3.757S164,437.566,164,437.566s3.853-5.235,3.045-8.005c0,0,5.008-11.78,5.008-14.736a52.338,52.338,0,0,0-.8-7.329l.8-6.174Z" transform="translate(-92.077 -186.425)"/><path class="g" d="M222.248,440.53s-8.771,4.589-10.47,4.828,7.425-.957,7.425-.957Z" transform="translate(-121.516 -202.988)"/><path class="g" d="M230.132,446.51s-11.631,3.937-16.752,3.219C213.4,449.729,226.105,452.146,230.132,446.51Z" transform="translate(-122.244 -205.39)"/><path class="g" d="M231.4,448.66s-10.47,6.581-16.644,5.51c0,0,14.407,2.866,16.644,1.346l-6.443-1.795S232.122,449.94,231.4,448.66Z" transform="translate(-122.798 -206.254)"/><path class="g" d="M200.624,306.662a10.9,10.9,0,0,0-8.807,1.663c-1.795,1.412-2.991,3.59-5.008,4.619a29.45,29.45,0,0,1-3.273,1.155,9.441,9.441,0,0,0-5.761,10.171c.317,1.795,1.149,3.41,1.556,5.157.73,3.123.09,6.4-.706,9.5a99.972,99.972,0,0,1-9.961,24.667,2.585,2.585,0,0,0-.5,1.657,2.393,2.393,0,0,0,.6,1.059c4.134,4.786,10.865,6.42,17.183,6.635,2.327.078,4.786,0,6.808-1.131a10.291,10.291,0,0,0,3.32-3.045,16.154,16.154,0,0,0,3.1-10.416c-.174-2.991-1.2-6.037-.425-8.938a2.393,2.393,0,0,1,.538-1.095c.682-.694,1.795-.514,2.776-.628,2.626-.305,4.326-3.075,4.637-5.7s-.347-5.271-.359-7.909a16.566,16.566,0,0,1,3.117-9.74c.873-1.2,1.992-2.393,2.285-3.895.371-1.885-.724-3.273-1.669-4.786-1.466-2.321-2.184-5.031-4.415-6.8A11.918,11.918,0,0,0,200.624,306.662Z" transform="translate(-104.08 -149.104)"/><path class="j" d="M199.444,305.462a10.885,10.885,0,0,0-8.807,1.669c-1.795,1.406-2.991,3.59-5.008,4.619a28.907,28.907,0,0,1-3.267,1.149A9.447,9.447,0,0,0,176.6,323.07c.317,1.795,1.149,3.41,1.561,5.163.73,3.123.084,6.39-.706,9.495a100.031,100.031,0,0,1-9.943,24.667,2.531,2.531,0,0,0-.491,1.651,2.3,2.3,0,0,0,.6,1.059c4.14,4.786,10.865,6.42,17.183,6.635,2.327.084,4.786,0,6.808-1.125a10.314,10.314,0,0,0,3.32-3.051,16.153,16.153,0,0,0,3.081-10.392c-.173-2.991-1.2-6.037-.419-8.944a2.393,2.393,0,0,1,.532-1.095c.682-.694,1.795-.515,2.782-.6,2.626-.305,4.32-3.075,4.631-5.7s-.341-5.265-.359-7.909a16.566,16.566,0,0,1,3.111-9.77c.874-1.2,1.986-2.393,2.279-3.9.371-1.885-.718-3.267-1.663-4.786-1.466-2.321-2.184-5.031-4.421-6.8A11.858,11.858,0,0,0,199.444,305.462Z" transform="translate(-103.617 -148.622)"/><path class="g" d="M214.76,492.62s2.3,10.733,6.114,13.659Z" transform="translate(-122.798 -223.914)"/><g class="c" transform="translate(63.381 167.472)"><path d="M183.9,338.23c-.12-.419-.257-.838-.4-1.25C183.62,337.4,183.757,337.818,183.9,338.23Z" transform="translate(-173.622 -328.861)"/><path d="M209.91,323.41a3.882,3.882,0,0,1-.048,1.011c-.3,1.514-1.412,2.692-2.285,3.9a16.518,16.518,0,0,0-3.117,9.734c0,2.644.664,5.283.353,7.909s-2,5.384-4.631,5.7c-.969.114-2.1-.072-2.776.6a2.393,2.393,0,0,0-.538,1.095c-.76,2.908.251,5.947.419,8.944a16.153,16.153,0,0,1-3.075,10.392,10.374,10.374,0,0,1-3.32,3.051,13.38,13.38,0,0,1-6.814,1.125c-6.21-.209-12.815-1.795-16.967-6.408a1.639,1.639,0,0,0-.1.862,2.3,2.3,0,0,0,.6,1.059c4.14,4.786,10.865,6.42,17.183,6.635,2.327.084,4.786,0,6.808-1.125a10.374,10.374,0,0,0,3.32-3.051A16.153,16.153,0,0,0,198,364.452c-.173-2.991-1.2-6.037-.419-8.944a2.393,2.393,0,0,1,.532-1.095c.682-.694,1.795-.514,2.782-.6,2.626-.305,4.32-3.075,4.631-5.7s-.341-5.265-.359-7.909a16.566,16.566,0,0,1,3.111-9.734c.873-1.2,1.986-2.393,2.279-3.9a4.433,4.433,0,0,0-.646-3.159Z" transform="translate(-166.989 -323.41)"/></g><path class="e" d="M568.7,807.45s-22.765-1.376-20.078,14.574a3.891,3.891,0,0,0,2.022,4.1s.042-1.2,2.333-.778a10.476,10.476,0,0,0,2.471.12,5.163,5.163,0,0,0,3.027-1.25h0s6.4-2.644,8.884-13.1c0,0,1.843-2.279,1.795-2.866l-3.841,1.639s1.31,2.77.275,5.073c0,0-.12-4.972-.861-4.852-.15,0-1.992.957-1.992.957s2.255,4.828.55,8.334c0,0,.646-5.947-1.256-7.981l-2.7,1.573s2.638,4.99.85,9.058c0,0,.461-6.24-1.418-8.669l-2.453,1.909s2.483,4.912.969,8.286c0,0-.2-7.263-1.5-7.778a14.713,14.713,0,0,0-2.465,2.662s1.693,3.59.64,5.45c0,0-.646-4.84-1.2-4.858,0,0-2.136,3.207-2.357,5.384a11.655,11.655,0,0,1,1.837-5.714,6.407,6.407,0,0,0-3.267,1.693s.329-2.268,3.793-2.465a16.354,16.354,0,0,1,2.238-2.579,14.029,14.029,0,0,0-5.534.64s1.837-2.142,6.168-1.2l2.393-1.974s-4.535-.6-6.461.066c0,0,2.214-1.9,7.114-.515l2.632-1.579a23.913,23.913,0,0,0-6.168-.532s2.429-1.31,6.94.114l1.885-.85s-2.836-.556-3.661-.64-.874-.317-.874-.317a9.788,9.788,0,0,1,5.319.6S568.766,807.7,568.7,807.45Z" transform="translate(-256.83 -350.376)"/><ellipse class="a" cx="16.112" cy="2.722" rx="16.112" ry="2.722" transform="translate(280.078 474.418)"/><path class="e" d="M866.813,774.85s-22.734-1.37-20.078,14.58a3.891,3.891,0,0,0,2.022,4.1s.042-1.2,2.333-.784a10.539,10.539,0,0,0,2.477.12,5.109,5.109,0,0,0,3.021-1.25h0s6.4-2.638,8.884-13.1c0,0,1.843-2.285,1.795-2.872l-3.865,1.675s1.31,2.77.281,5.073c0,0-.126-4.978-.862-4.858-.15,0-2,.957-2,.957s2.255,4.828.556,8.34c0,0,.646-5.947-1.262-7.987l-2.7,1.579s2.638,4.984.85,9.052c0,0,.461-6.24-1.418-8.669l-2.447,1.9s2.477,4.918.963,8.292c0,0-.2-7.269-1.5-7.814a15,15,0,0,0-2.471,2.668s1.7,3.59.646,5.444c0,0-.646-4.834-1.2-4.858,0,0-2.136,3.207-2.357,5.385a11.636,11.636,0,0,1,1.843-5.714,6.437,6.437,0,0,0-3.273,1.693s.335-2.262,3.8-2.465a16.354,16.354,0,0,1,2.238-2.579,14.061,14.061,0,0,0-5.54.64s1.843-2.142,6.168-1.167l2.393-1.974s-4.541-.6-6.461.066c0,0,2.214-1.891,7.114-.515l2.632-1.573a23.693,23.693,0,0,0-6.174-.532s2.429-1.31,6.946.108l1.885-.844s-2.836-.556-3.667-.646-.873-.317-.873-.317a9.807,9.807,0,0,1,5.325.6S866.885,775.1,866.813,774.85Z" transform="translate(-376.59 -337.28)"/><ellipse class="a" cx="16.112" cy="2.722" rx="16.112" ry="2.722" transform="translate(458.431 454.914)"/><ellipse class="a" cx="46.396" cy="7.61" rx="46.396" ry="7.61" transform="translate(461.003 253.737)"/><path class="k" d="M917.965,172.611a24.906,24.906,0,0,0,0-12.719v-5.983s2.166-11.732-7.478-19.259l-6.4-5.642s-3.59-3.075-4.625-3.273a4.7,4.7,0,0,0-.6-.09l-.191-.108a19.27,19.27,0,0,1-1.4-2.949,2.734,2.734,0,0,0,2.279-.778,2.99,2.99,0,0,0,.538-.9h0c.371-.832.431-1.837.748-2.722a6.353,6.353,0,0,1,1.2-1.956c-.066.108-.132.209-.191.317.9-1.125,2.088-2.094,2.932-3.285a7.164,7.164,0,0,0,.467-.73l-.126.15a16.445,16.445,0,0,0,1.879-6.39,5.768,5.768,0,0,0,.036-2.285,7.616,7.616,0,0,0-.64-1.448C905,99.693,905.03,96.092,902.8,93.8c-1.669-1.717-4.188-2.244-6.581-2.537s-4.888-.461-6.934-1.711a7.508,7.508,0,0,0-1.879-1.035,1.55,1.55,0,0,0-1.849.688,1.2,1.2,0,0,1-.245.5.8.8,0,0,1-.712.042l-3.171-.85.036.162h-.078l.114.5a.279.279,0,0,1,.3.174l-.508.784a7.856,7.856,0,0,1-2.866-.6,1.377,1.377,0,0,0,0,.156h-.042c-.06.9.957,1.478,1.268,2.321a1.759,1.759,0,0,1,0,1.137,2.584,2.584,0,0,1-.6.909c-1.131,1.113-2.567.891-3.865,1.6a.826.826,0,0,0-.473.52.4.4,0,0,0-.042.287.67.67,0,0,0,.263.329,5.985,5.985,0,0,0,1.232.766l-.371.359a14.2,14.2,0,0,0,4.906,23.159c.048.245.084.5.12.766v.072l.036.341-4.278,1.795a3.4,3.4,0,0,1-3.063-1.968c-.993-2.058-4.505,0-4.505,0s-10.727-.808-14.694,1.167c0,0-6.4-2.686-7.3-2.866s-2.255-.9-2.89-.718-1.442-1.2-1.891-1.077-.6-.891-2.07-1.25-1.986.09-3.59-1.526-14.783-7.969-14.783-7.969l-5.947-4.84-6.312-5.014-.114.209c-.036-.15-.078-.305-.12-.467a59.831,59.831,0,0,0-2.339-7.359c-.407-.969-.6-2.2-1.131-1.55-.335.389-.909-.461-1.795-1.035a1.49,1.49,0,0,0-2.226.646h0c-4.912,7.7-6.671,8.256-3.823,11.074,2.531,2.513,4.218,4.732,6.288,5.384l.245.078a.347.347,0,0,1-.138,0l11.966,14.329s8.651,7.526,14.6,9.943,5.5,3.135,5.5,3.135,18.026,9.136,20.82,8.974,2.256,18.72,1.083,21.765-3.063,25.08-3.063,25.08-1.795,4.655.09,7.879c0,0,.419,6.174.042,7.652-1.645,2.531-3.985,6.826-4.367,11.248a6.425,6.425,0,0,1-.072.682,1.549,1.549,0,0,1-.425.347s.156-.036.4-.12a22.732,22.732,0,0,1-1.2,5.385,21.941,21.941,0,0,0-1.472,7.778v14.233l-1.19,8.825s-1.442,6.683,0,8.238a3.788,3.788,0,0,1,.79,2.746,5.085,5.085,0,0,0,.921,3.2,2.429,2.429,0,0,1,.6,2.058c-.479,1.55.706,18.026.706,18.026s-.347,4.541-.826,4.786.8,5.217.8,5.217-4.87,4.062-3.632,6.216l1.244,1.909-.329.323-.2.2a1.9,1.9,0,0,0-1.238-.233,46.436,46.436,0,0,1-4.9,4.361c-2.2,1.585-8.172,3.883-8.172,3.883l-4.714.383h-.09s-2.256-.209-.993,3.285,12.564,2.393,12.564,2.393l6.581-1.041s11.774.054,15.142-.688c1.412-.317,1.747-1.065,1.657-1.831h0l-.036-.036a4.7,4.7,0,0,0-.963-1.98.938.938,0,0,0-.084-.1l.215-2.393c5-2.878-1.412-8.543-1.412-8.543a57.1,57.1,0,0,1,3.32-6.324c1.131-1.538,1.125-24.362,1.125-24.362s.6-8.244-.963-10.171a3.44,3.44,0,0,1,1.681-3.105c1.113-.76,4.475-11.224,7.114-19.911l1.663,10.237s-.359,4.894.724,6.33a2.435,2.435,0,0,1,.443,1.9,8.465,8.465,0,0,0,.245,4.146,2.681,2.681,0,0,0,.868,1.472c.963.479,1.023,2.184,1.382,2.543s2.585-.509,2.7.8a29.281,29.281,0,0,1,0,3.464l.724,21.257s-1.2,1.795-1.442,6.449a8.335,8.335,0,0,1-.867,3.805,1.944,1.944,0,0,0,.18,2.285l.209.239-.891.688a1.944,1.944,0,0,0-.55,2.393,1.92,1.92,0,0,0-.557,2.064,2.4,2.4,0,0,0,.156.335,3.368,3.368,0,0,0-1.795.885,14.718,14.718,0,0,1-3.171,3.195,59.775,59.775,0,0,0-5.062,4.331,7.262,7.262,0,0,1-2.955,2.393,4.785,4.785,0,0,1-.891.263c-2.393.485-1.621,2.961.3,3.35s8.292,2.357,13.252,1.2a4.631,4.631,0,0,0,3.632-.5,50.006,50.006,0,0,1,7.078-2.393s2.7,0,3.063-1.077A4.12,4.12,0,0,0,891.6,320l.078-.072-.072-.066a14.1,14.1,0,0,0-.185-2.393c-.066-.407-.144-.778-.215-1.071-.233-.9-.658-2.052-.844-2.543a.911.911,0,0,0,.084-.126c1.029-1.741-.682-5.983-.682-5.983a11.434,11.434,0,0,1,2.04-2.393c.963-.712,3.488-19.342,3.488-19.342s-.12-4.786,1.2-6.928-1.795-15.166-1.795-15.166-1.322-2.991-.838-4.062-.485-5.014-.485-5.014v-4.7a5.167,5.167,0,0,0-.275-1.651c-.371-1.107-.921-3.231-.323-4.786.844-2.148,2.764-15.406,2.764-15.406s-1.5-5.845.694-10.5a10.059,10.059,0,0,1,.6-1.083c1.627-2.561,1.143-7.108.341-10.769-.126-.568-.257-1.113-.389-1.633-.06-.221-.12-.431-.174-.64l.257-.108a8.057,8.057,0,0,1,.078-.945,6.581,6.581,0,0,0,4.338-2.991s5.5-6.18,10.368-8.777,5.229-6.36,5.229-6.36c-.724-1.256,1.286-6.36,1.286-6.36ZM898.82,125.718Zm3.309,55.131-5.205,6.037a.124.124,0,0,1,0-.036c-1.352-1.879,1.262-6.09,1.262-6.09l4.3-9.638a5.829,5.829,0,0,1-.562,2.848c-1.2,1.615,2.16,4.3,2.16,4.3-1.8-.018-1.98,2.579-1.98,2.579Z" transform="translate(-356.547 -61.33)"/><path class="l" d="M811.359,103.052l-2.836,5.51a10.978,10.978,0,0,1-2.644-.55,10.033,10.033,0,0,1-6.21-5.385c-2.537-5.612,1.663-9.237,3.62-10.3s3.769-2.291,5.235,1.2a60.691,60.691,0,0,1,2.309,7.311C811.155,102.161,811.359,103.052,811.359,103.052Z" transform="translate(-357.451 -62.661)"/><path class="l" d="M955.615,147.13,951.08,153.9s-21.454,10.231-17.35-1.795c1.795-5.295,2.016-9.172,1.693-11.852v-.072a9.356,9.356,0,0,0-1.681-4.786s20.91-10.7,17.8-3.38a10.172,10.172,0,0,0-.742,4.816,16.406,16.406,0,0,0,2.255,6.683,22.14,22.14,0,0,0,2.561,3.62Z" transform="translate(-411.415 -78.021)"/><path class="m" d="M927.69,340.316s3.087,12.935,1.795,15.071-1.2,6.88-1.2,6.88-2.495,18.517-3.446,19.229a11.37,11.37,0,0,0-2.016,2.393s1.693,4.188.676,5.923a1.406,1.406,0,0,1-.676.6c-1.591.67-7.466-2.3-10.811-4.128a1.843,1.843,0,0,1-.885-1.059,1.884,1.884,0,0,1,.544-2.046,1.95,1.95,0,0,1,.544-2.393l.879-.682-.2-.239a1.944,1.944,0,0,1-.18-2.273,8.389,8.389,0,0,0,.856-3.775c.239-4.631,1.424-6.408,1.424-6.408l-.712-21.125a30.339,30.339,0,0,0,0-3.44c-.12-1.3-2.315-.443-2.668-.8s-.419-2.046-1.364-2.525a2.656,2.656,0,0,1-.862-1.46,8.508,8.508,0,0,1-.245-4.122,2.429,2.429,0,0,0-.437-1.891c-1.071-1.424-.712-6.288-.712-6.288l-1.639-10.171c-2.609,8.633-5.929,19.031-7.024,19.785a3.422,3.422,0,0,0-1.663,3.087c1.544,1.9.951,10.087.951,10.087s0,22.663-1.113,24.206a59,59,0,0,0-3.279,6.288s6.36,5.66,1.358,8.513l-.054.03c-5.1,2.848-15.663-5.1-15.663-5.1l1.1-1.1.323-.323-1.2-1.9c-1.226-2.136,3.59-6.168,3.59-6.168s-1.28-4.984-.808-5.223.808-4.75.808-4.75-1.167-16.375-.694-17.912a2.393,2.393,0,0,0-.562-2.046,5.109,5.109,0,0,1-.909-3.177,3.781,3.781,0,0,0-.778-2.728c-1.424-1.544,0-8.19,0-8.19l1.2-8.783V306.19a22.14,22.14,0,0,1,1.436-7.849,23.69,23.69,0,0,0,1.292-6.318c.389-4.5,2.806-8.872,4.433-11.367.862-1.316,1.5-2.106,1.5-2.106l37.973-1.49s.6,1.693,1.2,4.044c.132.514.263,1.053.383,1.621.8,3.65,1.274,8.167-.335,10.715a8.449,8.449,0,0,0-.6,1.071c-2.172,4.625-.688,10.434-.688,10.434s-1.9,13.162-2.728,15.31c-.6,1.514-.048,3.626.323,4.726a5.259,5.259,0,0,1,.269,1.639v4.673s.951,3.913.479,4.984S927.69,340.316,927.69,340.316Z" transform="translate(-389.988 -137.319)"/><path class="g" d="M960.044,297.805a9.826,9.826,0,0,0-.6,1.071l-2.136-.12c.2-1.1-1.25-11.421-1.25-11.421l4.308-.245C961.169,290.763,961.654,295.286,960.044,297.805Z" transform="translate(-420.595 -141.348)"/><path class="m" d="M960.635,297.255a8.432,8.432,0,0,0-.6,1.071l-2.142-.12c.209-1.1-1.244-11.427-1.244-11.427l4.3-.239C961.765,290.19,962.244,294.706,960.635,297.255Z" transform="translate(-420.832 -141.127)"/><path class="n" d="M960.635,297.255a8.432,8.432,0,0,0-.6,1.071l-2.142-.12c.209-1.1-1.244-11.427-1.244-11.427l4.3-.239C961.765,290.19,962.244,294.706,960.635,297.255Z" transform="translate(-420.832 -141.127)"/><path class="g" d="M944.492,462.383a1.406,1.406,0,0,1-.676.6c-1.591.67-7.466-2.3-10.811-4.128a1.842,1.842,0,0,1-.885-1.059c1.9-.347,3.153,1.795,3.153,1.795a2.806,2.806,0,0,1,3.913.951c1.633,2.393,5.133,1.388,5.133,1.388S944.391,462.09,944.492,462.383Z" transform="translate(-410.978 -209.908)"/><path class="o" d="M935.393,469.892c-.359,1.065-3.027,1.065-3.027,1.065a56.843,56.843,0,0,0-6.916,2.435,4.728,4.728,0,0,1-3.59.5c-4.9,1.131-11.188-.826-13.084-1.2s-2.644-2.848-.3-3.32a4.689,4.689,0,0,0,.879-.269,7.144,7.144,0,0,0,2.92-2.393,60.532,60.532,0,0,1,5-4.308,14.453,14.453,0,0,0,3.135-3.171c2.788-2.465,4.786.921,4.786.921a2.806,2.806,0,0,1,3.913.951c1.633,2.393,5.133,1.388,5.133,1.388s.6,1.6.921,2.758c.072.293.15.664.215,1.071A9.364,9.364,0,0,1,935.393,469.892Z" transform="translate(-400.891 -210.142)"/><circle class="p" cx="0.329" cy="0.329" r="0.329" transform="translate(526.012 251.59)"/><circle class="p" cx="0.329" cy="0.329" r="0.329" transform="translate(523.224 254.198)"/><circle class="p" cx="0.329" cy="0.329" r="0.329" transform="translate(520.388 256.543)"/><circle class="p" cx="0.329" cy="0.329" r="0.329" transform="translate(521.854 255.496)"/><circle class="p" cx="0.329" cy="0.329" r="0.329" transform="translate(524.678 252.81)"/><path class="q" d="M935.393,475.256c-.359,1.065-3.027,1.065-3.027,1.065a56.847,56.847,0,0,0-6.916,2.435,4.728,4.728,0,0,1-3.59.5c-4.9,1.131-11.188-.826-13.084-1.2s-2.644-2.848-.3-3.32a4.689,4.689,0,0,0,.879-.269,22.736,22.736,0,0,0,6.42,1.2c4.834.2,8.663,0,8.663,0l4.894-1.573a8.191,8.191,0,0,1,3.027-1.1,7.778,7.778,0,0,0,2.991-1.3A9.362,9.362,0,0,1,935.393,475.256Z" transform="translate(-400.891 -215.506)"/><path class="r" d="M933.544,479.791a4.035,4.035,0,0,1-.814-.084l.072-.347a5.138,5.138,0,0,0,2.932-.407,14.08,14.08,0,0,0,1.3-.6,15.073,15.073,0,0,1,1.544-.676l.484-.167c.269-.09.539-.18.8-.293.15-.06.293-.132.437-.2a4.87,4.87,0,0,1,1.1-.419,5.128,5.128,0,0,1,.6-.078,5.085,5.085,0,0,0,.538-.066,4.678,4.678,0,0,0,1.029-.383,4.993,4.993,0,0,1,1.107-.407l.263-.048a1.262,1.262,0,0,0,.766-.281l.257.245a1.6,1.6,0,0,1-.969.389l-.245.042a4.681,4.681,0,0,0-1.029.383,4.993,4.993,0,0,1-1.107.407,3.941,3.941,0,0,1-.6.072,5.237,5.237,0,0,0-.556.072,4.519,4.519,0,0,0-1.017.395l-.449.2c-.275.114-.55.209-.826.3l-.473.168c-.515.191-1.023.431-1.52.658s-.868.413-1.316.6A6.33,6.33,0,0,1,933.544,479.791Z" transform="translate(-411.223 -216.972)"/><path class="g" d="M936,381.542a8.63,8.63,0,0,1,6.677-3.53,22.856,22.856,0,0,0,6.019-.473,14.942,14.942,0,0,1-4.565,1.795A77.142,77.142,0,0,0,936,381.542Z" transform="translate(-412.536 -177.684)"/><path class="g" d="M938.38,384.423s2.226-1.544,3.5-1.6,2.393-.179,2.393-.179a6.76,6.76,0,0,1-1.956.951C941.228,383.89,938.38,384.423,938.38,384.423Z" transform="translate(-413.493 -179.732)"/><path class="g" d="M939.17,387.4s3.356.269,3.386,1.161" transform="translate(-413.81 -181.645)"/><path class="g" d="M887,299.566c.173.03,3.165-3.117,3.374-4.361a3.051,3.051,0,0,1,1.3-1.915s1.932.772.209,3.135A9.583,9.583,0,0,1,887,299.566Z" transform="translate(-392.852 -143.838)"/><path class="g" d="M951.869,131.954c-.682,1.615-1.286,1.735-1.155,3.3A11.9,11.9,0,0,1,948,137.392c-2.124,1.262-4.433,3.727-7.078,3.727a14.029,14.029,0,0,1-5.169-.975,9.356,9.356,0,0,0-1.681-4.786S954.968,124.637,951.869,131.954Z" transform="translate(-411.761 -78)"/><path class="l" d="M950.169,114.649A14.149,14.149,0,1,1,936.019,100.5,14.149,14.149,0,0,1,950.169,114.649Z" transform="translate(-406.86 -66.39)"/><path class="g" d="M955.615,154.38l-4.535,6.767s-21.454,10.231-17.35-1.795c1.795-5.295,2.016-9.172,1.693-11.852h.036a11.215,11.215,0,0,1,.425,2.728c.066,1.843.114,4.188,4.7,4.954a12.8,12.8,0,0,0,12.462-4.433A22.135,22.135,0,0,0,955.615,154.38Z" transform="translate(-411.415 -85.271)"/><path class="g" d="M815.9,109.469l-2.836,5.51a10.978,10.978,0,0,1-2.644-.55l-.245-.293c1.161.443,5.073-6.946,5.073-6.946l.126.1C815.692,108.578,815.9,109.469,815.9,109.469Z" transform="translate(-361.988 -69.078)"/><path class="g" d="M935.8,281.122c-9.16,3.979-40.856.6-40.856.6a4,4,0,0,0,.161-1.035c.862-1.316,1.5-2.106,1.5-2.106l37.973-1.49S935.192,278.771,935.8,281.122Z" transform="translate(-396.042 -137.331)"/><path class="s" d="M886.319,131.877l-4.224,1.795a3.374,3.374,0,0,1-3.027-1.962c-.975-2.046-4.445,0-4.445,0s-10.6-.8-14.508,1.161c0,0-6.318-2.674-7.179-2.848s-2.226-.891-2.848-.712-1.424-1.161-1.867-1.071-.628-.891-2.052-1.244-1.956.09-3.56-1.514-14.592-7.921-14.592-7.921l-5.875-4.786-6.228-4.984s-3.919,7.383-5.073,6.94l11.834,14.239s8.543,7.478,14.419,9.878,5.426,3.117,5.426,3.117,17.8,9.076,20.563,8.9,2.226,18.6,1.065,21.628-3.021,24.918-3.021,24.918-1.795,4.625.084,7.831c0,0,.449,6.581,0,7.742,0,0,31.894,3.41,40.94-.6,0,0,1.334-14.771,0-16.644s1.25-6.049,1.25-6.049l5.654-12.755,13.868-13.982s2.136-11.66-7.383-19.145l-6.324-5.606s-3.536-3.057-4.565-3.249-.652,0-.652,0a12.8,12.8,0,0,1-12.564,4.583c-4.583-.772-4.631-3.105-4.7-4.954A11.224,11.224,0,0,0,886.319,131.877Z" transform="translate(-362.257 -69.319)"/><path class="g" d="M950.274,228.13s-19.582.8-23.494,6.946c0,0,5.073-2.393,9.608-1.693S950.274,228.13,950.274,228.13Z" transform="translate(-408.833 -117.662)"/><path class="g" d="M929.9,261.015s9.255.6,11.218-1.334,1.962-3.111,1.962-3.111Z" transform="translate(-410.086 -129.087)"/><path class="g" d="M967.136,196.6s-7.831,9.255,1.693,13.258Z" transform="translate(-423.828 -104.996)"/><path class="g" d="M891.67,166.7s2.848,5.809,4.272,6.2Z" transform="translate(-394.728 -92.984)"/><path class="g" d="M875.61,162.53s7.12,6.408,8.454,7.03C884.064,169.56,876.675,162.53,875.61,162.53Z" transform="translate(-388.276 -91.309)"/><path class="g" d="M920.44,152.27s-6.856,10.231-2.393,16.465C918.011,168.735,915.546,161.346,920.44,152.27Z" transform="translate(-404.718 -87.188)"/><path class="l" d="M937.029,278.016l-2.094,1.968-.293.275-2.423,2.291c-.179.132-.347.263-.521.383-9.872,7.078-11.852-3.673-11.852-3.673s-4.361,2.848-4.984.533,10.171-5.606,11.744-5.426a2.081,2.081,0,0,0,.431,0,6.766,6.766,0,0,0,2.214-.784c.161-.084.323-.168.479-.257a17.74,17.74,0,0,0,1.6-1.005Z" transform="translate(-404.035 -135.414)"/><path class="g" d="M953.476,114.648a14.15,14.15,0,0,1-6.918,12.164,8.266,8.266,0,0,1-.513-1.03c-.509-1.2-.82-2.447-1.328-3.632a11.332,11.332,0,0,0-2.393-3.464,1.513,1.513,0,0,0-.6-.437,1.717,1.717,0,0,0-1.3.359,5.874,5.874,0,0,1-1.974.867,2.1,2.1,0,0,1-1.98-.6,2.969,2.969,0,0,1-.311-2.471,30.671,30.671,0,0,0,.921-5.522,5.447,5.447,0,0,0-2.333-4.822c-1.436-.814-3.219-.6-4.816-1.047a5.18,5.18,0,0,1-.724-.251,14.155,14.155,0,0,1,24.284,9.884Z" transform="translate(-409.809 -66.389)"/><path class="t" d="M927.262,98.816c-.257.138-.538.383-.461.67a.658.658,0,0,0,.257.329,6.126,6.126,0,0,0,2.238,1.149c1.6.431,3.386.227,4.822,1.047a5.437,5.437,0,0,1,2.333,4.816,32.258,32.258,0,0,1-.927,5.522,2.992,2.992,0,0,0,.317,2.477,2.112,2.112,0,0,0,1.98.6,5.834,5.834,0,0,0,1.968-.862,1.705,1.705,0,0,1,1.3-.359,1.579,1.579,0,0,1,.634.431,11.235,11.235,0,0,1,2.393,3.47c.515,1.2.826,2.441,1.328,3.632a5.857,5.857,0,0,0,2.393,2.955,2.991,2.991,0,0,0,3.59-.377c.826-.909.8-2.285,1.2-3.452.706-2.016,2.68-3.285,3.913-5.026,1.388-1.956,1.795-4.427,2.148-6.8a5.708,5.708,0,0,0,.036-2.273,8.244,8.244,0,0,0-.628-1.436c-1.376-2.848-1.346-6.432-3.542-8.711-1.651-1.705-4.152-2.226-6.509-2.513s-4.828-.467-6.85-1.705a7.54,7.54,0,0,0-1.855-1.029,1.526,1.526,0,0,0-1.825.682,1.2,1.2,0,0,1-.245.5.778.778,0,0,1-.694.042l-3.135-.844.359,1.579a7.825,7.825,0,0,1-3.326-.6c-.06.891.945,1.472,1.256,2.3a2.13,2.13,0,0,1-.6,2.172C929.966,98.337,928.542,98.116,927.262,98.816Z" transform="translate(-408.836 -62.69)"/><path class="g" d="M895.712,456.114l-.126,1.424-.054.03c-5.1,2.848-15.663-5.1-15.663-5.1l1.1-1.1a1.914,1.914,0,0,1,.479,1.484l2.16.12,2.579,2.788s6.982.808,8.872.353Z" transform="translate(-389.988 -207.343)"/><path class="o" d="M881.856,463.838c-3.32.736-14.957.682-14.957.682l-6.5,1.035s-11.182,1.071-12.426-2.393.975-3.261.975-3.261h.084l4.655-.377s5.905-2.285,8.071-3.859a46.571,46.571,0,0,0,4.834-4.332s1.944-.377,1.908,1.873l2.16.12,2.578,2.782s6.982.814,8.873.359h.652l-.3,3.44.084.108C882.963,460.548,884.824,463.174,881.856,463.838Z" transform="translate(-377.023 -207.319)"/><circle class="p" cx="0.329" cy="0.329" r="0.329" transform="translate(492.455 247.545)"/><circle class="p" cx="0.329" cy="0.329" r="0.329" transform="translate(484.091 251.177)"/><circle class="p" cx="0.329" cy="0.329" r="0.329" transform="translate(479.783 252.487)"/><circle class="p" cx="0.329" cy="0.329" r="0.329" transform="translate(486.286 250.483)"/><circle class="p" cx="0.329" cy="0.329" r="0.329" transform="translate(481.931 251.835)"/><circle class="p" cx="0.329" cy="0.329" r="0.329" transform="translate(488.506 249.454)"/><circle class="p" cx="0.329" cy="0.329" r="0.329" transform="translate(490.702 248.502)"/><path class="q" d="M881.856,469.605c-3.32.736-14.957.682-14.957.682l-6.5,1.035s-11.182,1.071-12.426-2.393.975-3.261.975-3.261h.084c.712.921,2.142,1.974,4.954,2.022l8.041.329,8.334-.6s7.778-.239,9.076-.5a18.854,18.854,0,0,0,3.111-1.143C882.963,466.315,884.824,468.941,881.856,469.605Z" transform="translate(-377.023 -213.086)"/><path class="r" d="M869.116,471.785a5.245,5.245,0,0,1-1.316-.161l.12-.323a6.456,6.456,0,0,0,3.314-.15c.395-.1.784-.215,1.2-.335a13.569,13.569,0,0,1,5.773-.652h.257a54.649,54.649,0,0,0,10.679-.479,3.972,3.972,0,0,0,2.285-.915l.257.251a4.332,4.332,0,0,1-2.483,1.017,55.472,55.472,0,0,1-10.769.479h-.251a17.469,17.469,0,0,0-3.536.1,18.358,18.358,0,0,0-2.124.532c-.395.12-.79.239-1.2.341a8.9,8.9,0,0,1-2.208.293Z" transform="translate(-385.139 -214.333)"/><path class="g" d="M947.029,278.016l-2.094,1.968-5.205-6.659a17.74,17.74,0,0,0,1.6-1.005Z" transform="translate(-414.035 -135.414)"/><path class="s" d="M970.366,190.5l4.092,5.7v5.983a24.914,24.914,0,0,1,0,12.642l.209,5.516s-1.986,5.073-1.274,6.318c0,0-.359,3.739-5.163,6.324s-10.237,8.675-10.237,8.675-2.046,3.919-7.562,3.027l-5.253,2.226-6.049-7.742,8.184-4.451s2.848-3.829,4.541-3.65l6.94-8.083s.18-2.579,1.956-2.579c0,0-3.291-2.668-2.136-4.272s.179-8.723.179-8.723Z" transform="translate(-413.794 -102.545)"/><path class="g" d="M978.55,233.8s9.345-.173,10.5,2.226S981.4,232.463,978.55,233.8Z" transform="translate(-429.63 -119.86)"/><path class="g" d="M942.866,280.636a2.46,2.46,0,0,1-.036.467,3.147,3.147,0,0,1-2.943,2.674h-.168a3.141,3.141,0,0,1-3.141-3.141,3.221,3.221,0,0,1,.173-1.023c-1.484-1.2-1.561-3.338-1.526-4.409a6.765,6.765,0,0,0,2.214-.784,14.716,14.716,0,0,0,1.55,3.165,2.991,2.991,0,0,1,.73-.09,3.141,3.141,0,0,1,3.147,3.141Z" transform="translate(-412.223 -136.258)"/><path class="p" d="M937.959,273.26s-2.106.473-2.106.856-.473,3.859,1.837,5.283,2.082-1.986,2.082-1.986S937.78,274.355,937.959,273.26Z" transform="translate(-412.462 -135.792)"/><circle class="u" cx="3.147" cy="3.147" r="3.147" transform="translate(524.708 141.231)"/><circle class="q" cx="2.698" cy="2.698" r="2.698" transform="translate(525.157 141.68)"/><path class="g" d="M922.827,286.84a15.585,15.585,0,0,0,15.19,2.022v2.668s-5.7,3.913-10.859,1.544S922.827,286.84,922.827,286.84Z" transform="translate(-407.225 -141.247)"/><path class="g" d="M922.827,285.65a15.571,15.571,0,0,0,15.19,2v2.668s-5.7,3.913-10.859,1.544S922.827,285.65,922.827,285.65Z" transform="translate(-407.225 -140.769)"/><path class="m" d="M922.827,285.65a15.571,15.571,0,0,0,15.19,2v2.668s-5.7,3.913-10.859,1.544S922.827,285.65,922.827,285.65Z" transform="translate(-407.225 -140.769)"/><path class="n" d="M923.128,285.65a15.585,15.585,0,0,0,15.19,2.022v2.668s-5.714,3.895-10.859,1.544S923.128,285.65,923.128,285.65Z" transform="translate(-407.347 -140.769)"/><path class="g" d="M888,451.32s8.9,1.633,10.207,1.986-.359.981-.359.981S889.693,452.834,888,451.32Z" transform="translate(-393.254 -207.323)"/><path class="g" d="M887.61,440.411c.144,0,6.049-1.663,7.323-4.511" transform="translate(-393.097 -201.128)"/><path class="g" d="M902,386.508s2.393,3.147,3.937,3.057S903.406,386.388,902,386.508Z" transform="translate(-398.878 -181.285)"/><path class="g" d="M904.22,395.24s1.005,2.226,2.489,1.514" transform="translate(-399.77 -184.794)"/><path class="n" d="M913.59,313.554,919.9,330.2s.891-10.709-.993-13.916a5.558,5.558,0,0,0-5.319-2.728Z" transform="translate(-403.534 -151.969)"/><g class="c" transform="translate(517.888 29.192)"><path d="M938.841,92.789l-.054-.239-1.017-.269.114.5a7.288,7.288,0,0,0,.957.012Z" transform="translate(-931.135 -92.28)"/><path d="M934.051,97.47l.108-.1a2.124,2.124,0,0,0,.6-2.166,2.937,2.937,0,0,0-.5-.808,7.777,7.777,0,0,1-1.466-.431c-.06.891.945,1.466,1.256,2.3A1.794,1.794,0,0,1,934.051,97.47Z" transform="translate(-929.133 -92.959)"/><path d="M948.41,128.794a5.881,5.881,0,0,1-2.393-2.955c-.509-1.2-.814-2.453-1.328-3.632a11.157,11.157,0,0,0-2.393-3.464,1.514,1.514,0,0,0-.628-.437,1.7,1.7,0,0,0-1.3.359,5.982,5.982,0,0,1-1.974.867,2.136,2.136,0,0,1-1.98-.6,2.969,2.969,0,0,1-.311-2.471,30.754,30.754,0,0,0,.927-5.528,5.344,5.344,0,0,0-2.339-4.786c-1.436-.82-3.219-.6-4.786-1.047a6.078,6.078,0,0,1-2.238-1.149l-.126-.114a3.83,3.83,0,0,0-.389.185c-.257.138-.533.383-.461.664a.711.711,0,0,0,.263.335,6.162,6.162,0,0,0,2.237,1.143c1.6.437,3.38.233,4.816,1.053a5.417,5.417,0,0,1,2.339,4.786,32.169,32.169,0,0,1-.927,5.522,2.977,2.977,0,0,0,.311,2.471,2.106,2.106,0,0,0,1.98.6,5.983,5.983,0,0,0,1.974-.862,1.729,1.729,0,0,1,1.3-.365,1.573,1.573,0,0,1,.6.437,11.3,11.3,0,0,1,2.393,3.464c.515,1.2.82,2.447,1.328,3.632A5.869,5.869,0,0,0,947.7,129.9a3.029,3.029,0,0,0,3.59-.377,2.824,2.824,0,0,0,.532-.891,3.051,3.051,0,0,1-3.41.168Z" transform="translate(-926.681 -96.924)"/><path d="M971.54,135.316c.891-1.125,2.058-2.082,2.9-3.267a8.355,8.355,0,0,0,.461-.73C973.819,132.69,972.342,133.8,971.54,135.316Z" transform="translate(-944.702 -107.963)"/></g><g class="c" transform="translate(342.975 39.733)"><path d="M783.273,109.9H641.721a7.419,7.419,0,0,0-7.4,7.395v89.437a7.419,7.419,0,0,0,7.4,7.395h111.04s2.878,15.274-6.581,16.913c0,0,21.167,1.52,17.47-16.913h19.617a7.413,7.413,0,0,0,7.395-7.395V117.295A7.413,7.413,0,0,0,783.273,109.9Z" transform="translate(-634.32 -109.9)"/><g class="d" transform="translate(20.838 23.74)"><rect width="114.666" height="6.988" rx="3.494"/><rect width="94.618" height="6.988" rx="3.494" transform="translate(0 31.23)"/><rect width="68.114" height="6.988" rx="3.494" transform="translate(0 15.615)"/></g></g><path class="b" d="M786.363,107.83H644.811a7.425,7.425,0,0,0-7.4,7.4v89.437a7.419,7.419,0,0,0,7.4,7.395h111.04s2.878,15.274-6.581,16.913c0,0,21.167,1.52,17.47-16.913h19.618a7.413,7.413,0,0,0,7.395-7.395V115.231a7.419,7.419,0,0,0-7.389-7.4Z" transform="translate(-292.586 -69.335)"/><g class="d" transform="translate(365.662 62.235)"><rect class="e" width="114.666" height="6.988" rx="3.494"/><rect class="e" width="94.618" height="6.988" rx="3.494" transform="translate(0 31.236)"/><rect class="e" width="68.114" height="6.988" rx="3.494" transform="translate(0 15.621)"/></g><path class="e" d="M138.248,596.48s2.13,2.788-.987,7-5.69,7.778-4.649,10.392c0,0,4.7-7.82,8.531-7.927S142.46,601.182,138.248,596.48Z" transform="translate(-89.703 -265.637)"/><path class="g" d="M138.329,596.48a3.517,3.517,0,0,1,.431.874c3.739,4.391,5.726,8.484,2.136,8.591-3.344.1-7.353,6.073-8.316,7.586a1.091,1.091,0,0,0,.114.341s4.7-7.82,8.531-7.927S142.541,601.182,138.329,596.48Z" transform="translate(-89.785 -265.637)"/><path class="v" d="M148.481,601.994c0,.981-.108,1.795-.245,1.795s-.245-.8-.245-1.795.138-.521.275-.521S148.481,601.012,148.481,601.994Z" transform="translate(-95.975 -267.596)"/><path class="v" d="M149.958,603.931c-.862.473-1.615.754-1.681.634s.6-.6,1.442-1.065.526-.126.6,0S150.82,603.464,149.958,603.931Z" transform="translate(-96.089 -268.361)"/><path class="e" d="M120.137,596.48s-2.13,2.788.987,7,5.69,7.778,4.649,10.392c0,0-4.7-7.82-8.531-7.927S115.925,601.182,120.137,596.48Z" transform="translate(-82.864 -265.637)"/><path class="g" d="M120.137,596.48a3.517,3.517,0,0,0-.431.874c-3.739,4.391-5.726,8.484-2.136,8.591,3.344.1,7.353,6.073,8.316,7.586-.03.114-.072.227-.114.341,0,0-4.7-7.82-8.531-7.927S115.925,601.182,120.137,596.48Z" transform="translate(-82.864 -265.637)"/><path class="v" d="M116.73,601.994c0,.981.108,1.795.245,1.795s.245-.8.245-1.795-.138-.521-.275-.521S116.73,601.012,116.73,601.994Z" transform="translate(-83.418 -267.596)"/><path class="v" d="M114.093,603.931c.862.473,1.615.754,1.681.634s-.6-.6-1.442-1.065-.526-.126-.6,0S113.225,603.464,114.093,603.931Z" transform="translate(-82.144 -268.361)"/><ellipse class="a" cx="22.304" cy="3.422" rx="22.304" ry="3.422" transform="translate(20.605 362.732)"/><path class="w" d="M136.563,618.4l-.108.868-.15,1.232-.066.515-.15,1.226-.06.515-.15,1.232L134.17,637.98c-.15,1.25-2.19,2.226-4.655,2.226h-8.89c-2.465,0-4.5-.975-4.655-2.226l-1.711-13.988-.15-1.232-.06-.515-.15-1.226-.066-.515-.15-1.232-.108-.868c-.084-.706,1.023-1.3,2.393-1.3H134.1C135.516,617.094,136.623,617.692,136.563,618.4Z" transform="translate(-82.149 -273.92)"/><path class="x" d="M75.441,577.23l-.15,1.232H52.85l-.15-1.232Z" transform="translate(-21.164 -231.884)"/><path class="x" d="M75.372,580.15l-.15,1.226H53.206l-.156-1.226Z" transform="translate(-21.305 -233.057)"/><path class="x" d="M75.3,583.06l-.15,1.232H53.56l-.15-1.232Z" transform="translate(-21.45 -234.226)"/><ellipse class="a" cx="50.279" cy="8.25" rx="50.279" ry="8.25" transform="translate(336.089 464.002)"/><g class="c" transform="translate(283.195 218.894)"><path d="M695.809,409.36H542.417a8.041,8.041,0,0,0-8.017,8.017V514.3a8.041,8.041,0,0,0,8.017,8.017H662.749s3.117,16.548-7.125,18.325c0,0,22.932,1.645,18.924-18.325h21.263a8.041,8.041,0,0,0,8.017-8.017V417.377a8.041,8.041,0,0,0-8.017-8.017Z" transform="translate(-534.4 -409.36)"/><g class="d" transform="translate(22.579 42.651)"><rect width="124.262" height="7.574" rx="3.787" transform="translate(0 16.925)"/><rect width="53.881" height="7.574" rx="3.787"/></g></g><path class="b" d="M693.6,407.13H540.177a8.041,8.041,0,0,0-8.017,8.017v96.921a8.041,8.041,0,0,0,8.017,8.017H660.508s3.117,16.548-7.125,18.331c0,0,22.938,1.645,18.93-18.331H693.6a8.041,8.041,0,0,0,8.017-8.017V415.147A8.041,8.041,0,0,0,693.6,407.13Z" transform="translate(-250.305 -189.571)"/><g class="d" transform="translate(304.44 260.211)"><rect class="e" width="124.262" height="7.574" rx="3.787" transform="translate(0 16.925)"/><rect class="e" width="53.881" height="7.574" rx="3.787"/></g><path class="y" d="M669.98,646.157c-.724-3.069-1.2-5.767-1.2-5.767a11.887,11.887,0,0,0-1.334-5.857V633.7h0v-6.18a20.731,20.731,0,0,1,1.562-3.237c1.113-1.944,0-9.064,0-9.064s-4.128-10.039-3.123-16.4-8.478-28.281-8.478-28.281a27.812,27.812,0,0,1,.891-6.258,4.845,4.845,0,0,0,.12-1.31,1.427,1.427,0,0,0,0-.162v.054c-.144-4.188-3.464-12.073-3.464-12.073l.449-15s2.118-8.849-1.34-20.724c-1.2-4.14-1.98-7.461-2.471-10.015-.054-.293-.108-.6-.156-.838,7.12-1.083,12.564-1.986,12.564-1.986s-4.116-17.272-6.9-20.264-5.014-12.564-5.014-12.564-1.454-12.2.891-15.759,2.674-9.71,2.674-9.71,5.385-3.889,6.025-5.612a29.7,29.7,0,0,0,1.795-7.664c0-2.052-.67-3.889-.449-4.966s-1.562-5.181-.67-7.125a5.233,5.233,0,0,0,.359-1.873v-.054h0a26.449,26.449,0,0,0-.473-5.061,14.358,14.358,0,0,0-5.295-2.83l-.12-.467-.3-1.2c-.179-.12-.353-.221-.526-.317v-.443l-.054-1.753.844-3.937c1.645-6.856-7.5-7.879-7.5-7.879a4.786,4.786,0,0,0-2.591-2.268c-1.843-.646-.305,10.308.556,11.008.646.526,2.644,3.961,3.59,5.648h0l.156.281a3.354,3.354,0,0,0-.419.437l.347,2.393.054.365a9.967,9.967,0,0,0-1.46,2.489,5.315,5.315,0,0,1,1.34,3.889,11.824,11.824,0,0,0,.55,4.744c-.1-.114-1.274-1.388-2.447-1.077s-4.463,1.3-4.463,1.3-2.453.431-2.226.969-1.675,2.914-1.675,2.914l-6.581-6.246c-.06-.185-.132-.371-.191-.568a15.673,15.673,0,0,1-.6-2.734,15.65,15.65,0,0,0,2.106-.67,4.559,4.559,0,0,0,1.795-1.167,7.1,7.1,0,0,0,1.059-2.842,41.106,41.106,0,0,1,2.447-5.456,17.709,17.709,0,0,0,1.316-9.794,6.467,6.467,0,0,0-1.011-2.866c-1.077-1.484-3.027-2.082-4.451-3.267s-2.333-2.991-3.985-3.871a7.932,7.932,0,0,0-5.008-.431,26.976,26.976,0,0,0-9.339,3.4,4.809,4.809,0,0,1-3.123,1.029,4.209,4.209,0,0,1-2.255-1.657.11.11,0,0,1,.03-.09l-.072-.084a11.591,11.591,0,0,0-.975,4.888,6.972,6.972,0,0,0,.03.79v.5h0a1.2,1.2,0,0,1-.048.353,2.572,2.572,0,0,1-.6.891,4.691,4.691,0,0,0-.538.73,2.4,2.4,0,0,1,.09-.269,3.918,3.918,0,0,0-.682,2.082,2.058,2.058,0,0,0,.491,1.484,7.18,7.18,0,0,0,1.077.868,12.564,12.564,0,0,0,5.983,13.066c.078.185.156.377.227.568a15.73,15.73,0,0,1,1.2,7.179,2.611,2.611,0,0,1-.084.526c-.036.173-.161.179-.233.275h0s-10.883.108-13.449-2.214-6.467,5.666-6.467,5.666-3.9.754-4.679,0-5.355-.108-5.355-.108a9.842,9.842,0,0,0-6.772-2.477,20.127,20.127,0,0,0-4.99-2.776h0l-.12-.042h0a5.612,5.612,0,0,0-2.453-.311s-5.355-4.427-6.916-6.8-8.974-11.182-9.028-11.224v-.425l-.084-1.286a4.254,4.254,0,0,1-.664.06c-.042-.126-.09-.275-.15-.443a24.86,24.86,0,0,0-1.579-3.632s0-1.615.473-2.022-.2-6.342-.2-6.342-4.822-11.278-9.142-2.86c0,0-8.167,5.45-1.31,11.792,0,0,2.734,1.322,3.117,2.393.257.682,1.2,2.585,1.795,3.847l.281.568-.078.066.1,1.059.042.407c-1.292.736-2.166,1.46-1.956,2.01a12.168,12.168,0,0,1,.784,2.914s9.441,11.846,10.667,16.931c0,0,25.421,15.107,33.785,16.183l-1.448,7.556a60.409,60.409,0,0,0-.335,6.15c.108,1.621-1.005,8.974-1.005,8.974s-1.448,10.769-2.674,12.3-.975,7.975-.975,7.975a54.528,54.528,0,0,1-1.675,9.172,24.043,24.043,0,0,0-.335,9.178s-4.236,9.71,5.911,3.129c0,0,4.984-.311,10.721-.509v.6c0,.736,0,1.538-.036,2.393-.078,5.564-.108,13.228.144,19.031.449,10.248,3.59,30.542,3.59,30.542v10.171a14,14,0,0,0-.293,2.914,19,19,0,0,0,2.746,10.207l.784,6.8s1.831,4.481,1.867,7.179a4.153,4.153,0,0,1-.078.652,4.641,4.641,0,0,0-.09,1.041c-.1,3.087,1.759,10.47,1.759,10.47s.108,7.449,1.2,7.879c.951.371-1.274,4.3-1.938,5.42a.4.4,0,0,0-.042-.215l-.138.227a5.217,5.217,0,0,0-.347,1.879,2.71,2.71,0,0,0,1.238,2.62c2.118,1.292,3.255,2.393,1.454,2.806a19.327,19.327,0,0,0-1.962.413l-.1-.251a1.2,1.2,0,0,0-.73,1.3,5.431,5.431,0,0,0,.664,2.525,28.785,28.785,0,0,0,2.991,5.5l.861-.1a4.606,4.606,0,0,1-.5.921,3.553,3.553,0,0,1-1.262,1.119,3.8,3.8,0,0,1-1.526.521,4.313,4.313,0,0,0-3.159,1.538c-1.113,1.442-1.795,3.4.389,5.121l7.975,2.752s13.713,1.795,12.989-1.3-1.2-5.773-1.2-5.773a12.157,12.157,0,0,0-1.113-5.456,7.3,7.3,0,0,0-.484-.8l.485-.054s1.005-6.8,2.339-8.095c.311-.3.383-.526.305-.706.138-.371-.209-.6-.658-.712l-.1.269a6.533,6.533,0,0,0-1.334-.15s-.443-3.56,1.005-4.852a1.376,1.376,0,0,0,.281-1.059,5.949,5.949,0,0,0-.15-1.454l-.054.084a52.679,52.679,0,0,0-3.2-8.376s-.114-3.237.784-4.535-.114-17.589-.114-17.589.335-7.879-.67-11.547,1.226-7.987,1.226-7.987v-.239l.03-.054s-.054-.485-.132-1.238v.072c-.227-2.082-.652-5.863-.963-7.61-.449-2.483.108-14.359.108-14.359l2.01-5.073,3.59,8.747,3.793,11.654a9.915,9.915,0,0,1,1.92,4.954,2.429,2.429,0,0,1,0,.365,7.032,7.032,0,0,0-.042.784,6.9,6.9,0,0,0,1.155,4.146s1.005,5.5,2.567,6.91,1.561,4.1,1.561,4.1,1.891,7.987,2.788,9.393c.748,1.2.79,4.433.784,5.426h0v.293s.263,2.854.251,5.253v.856a.258.258,0,0,1,0-.066,8.762,8.762,0,0,1-.233,1.944.2.2,0,0,1-.036.114l.036-.407a20.559,20.559,0,0,0-.6,4.978c-.054,2.872.383,6.27,2.124,8.262,2.991,3.458,4.906,3.027,4.906,3.027s-1.448,4.314-3.237,5.175a1.007,1.007,0,0,0-.185.126,1.856,1.856,0,0,0-.048-.251,2.094,2.094,0,0,0-.52,1.609,11.469,11.469,0,0,0,2.208,6.4,3.483,3.483,0,0,0,1.508.879l-.281.174a6.164,6.164,0,0,1-.6.293,2.891,2.891,0,0,1-.909.233,4.272,4.272,0,0,0-3.159,1.538c-1.113,1.436-1.795,3.392.389,5.115l7.975,2.752S670.7,649.239,669.98,646.157Z" transform="translate(-254.679 -179.517)"/><path class="z" d="M661.534,821.831l-7.718-2.752c-2.13-1.723-1.448-3.679-.377-5.121a4.128,4.128,0,0,1,3.057-1.538,3.589,3.589,0,0,0,1.478-.52,3.464,3.464,0,0,0,1.2-1.119,5.642,5.642,0,0,0,.879-2.991s8.478-2.483,10.769,0a6.376,6.376,0,0,1,1.029,1.5,12.564,12.564,0,0,1,1.077,5.456s.437,2.7,1.131,5.773S661.534,821.831,661.534,821.831Z" transform="translate(-298.618 -350.081)"/><path class="z" d="M724.672,815.469l-7.718-2.752c-2.13-1.723-1.454-3.679-.377-5.115a4.086,4.086,0,0,1,3.057-1.538,2.71,2.71,0,0,0,.879-.233,4.527,4.527,0,0,0,.6-.293c2.154-1.2,2.1-4.1,2.1-4.1s8.472-2.483,10.769,0a5.782,5.782,0,0,1,.808,1.1,12.208,12.208,0,0,1,1.3,5.863s.431,2.7,1.131,5.773S724.672,815.469,724.672,815.469Z" transform="translate(-323.981 -347.53)"/><path class="g" d="M675.412,807.8a6.377,6.377,0,0,1,1.029,1.5h0l-12.7,1.472a5.642,5.642,0,0,0,.879-2.991S673.1,805.313,675.412,807.8Z" transform="translate(-303.164 -350.082)"/><path class="g" d="M738.139,802.528v2.393c-1.968,3.255-11.523,2.543-14.3.909a4.538,4.538,0,0,0,.6-.293c2.154-1.2,2.1-4.1,2.1-4.1s8.472-2.483,10.769,0A5.78,5.78,0,0,1,738.139,802.528Z" transform="translate(-327.307 -347.53)"/><path class="p" d="M706.945,702.171a22.01,22.01,0,0,0-1.514,3.237v8.526c-2.154,3.59-13.377,2.393-14.891.431s-3.129-7.012-1.4-7.873,3.129-5.181,3.129-5.181-1.837.431-4.75-3.021-2.052-11.116-1.508-12.953,0-7.987,0-7.987.108-4.314-.76-5.719-2.7-9.387-2.7-9.387,0-2.7-1.508-4.1-2.483-6.9-2.483-6.9a7.09,7.09,0,0,1-1.095-4.637c.329-2.7-1.831-5.612-1.831-5.612l-3.667-11.654-3.458-8.741-1.927,5.067s-.544,11.87-.108,14.359,1.077,9.064,1.077,9.064-2.16,4.32-1.2,7.987.646,11.547.646,11.547.969,16.3.108,17.589-.754,4.535-.754,4.535,4.421,9.495,2.991,10.769-.975,4.858-.975,4.858,2.991,0,1.729,1.292-2.208,8.113-2.208,8.113l-13.048,1.508a27.109,27.109,0,0,1-2.926-5.5c-1.729-4,.323-3.59,2.064-3.991s.634-1.514-1.412-2.806-.868-4.188-.868-4.188,3.129-5.289,2.052-5.726-1.2-7.873-1.2-7.873-2.16-8.854-1.621-11.224-1.729-8.095-1.729-8.095l-.754-6.8a18.709,18.709,0,0,1-2.393-12.839V637.742s-2.991-20.288-3.452-30.542c-.275-6.581-.2-15.525-.108-21.119.054-3.135.108-5.211.108-5.211L689.248,576a38.512,38.512,0,0,0,.844,6.922c.473,2.561,1.2,5.875,2.393,10.021,3.344,11.87,1.292,20.718,1.292,20.718l-.431,15s4.1,10.033,3.237,13.491a28.716,28.716,0,0,0-.862,6.258s9.172,21.909,8.2,28.275,2.991,16.4,2.991,16.4S708.021,700.226,706.945,702.171Z" transform="translate(-294.599 -257.409)"/><path class="n" d="M705.71,691.641l14.2-1.891S711.866,697.952,705.71,691.641Z" transform="translate(-320.024 -303.105)"/><path class="g" d="M724.26,666.57s.485,5.02-2.591,6.91C721.676,673.48,727.18,672.613,724.26,666.57Z" transform="translate(-326.435 -293.793)"/><path class="g" d="M713.306,639.88s-11.864,9.764-16.154,8.974S713.306,639.88,713.306,639.88Z" transform="translate(-316.349 -283.071)"/><path class="g" d="M670.076,700.58s-9.01,2.046-9.279,5.666S670.076,700.58,670.076,700.58Z" transform="translate(-301.979 -307.456)"/><path class="n" d="M673.064,775.8s-12.731,2.393-9.118,3.991a64.172,64.172,0,0,0,9.572,2.914S677.6,782.92,673.064,775.8Z" transform="translate(-302.987 -337.673)"/><g class="aa" transform="translate(347.811 323.15)"><path d="M658.98,785.529a2.537,2.537,0,0,1-1.161-1.849l-.132.227s-1.2,2.914.862,4.188c.239.15.461.3.664.443.383-.072.79-.126,1.2-.221C662.133,787.9,661.032,786.821,658.98,785.529Z" transform="translate(-648.405 -663.989)"/><path d="M687.095,783.83c.353-.323.341-1.155.126-2.22a6.019,6.019,0,0,0-.724,3.129A2.62,2.62,0,0,1,687.095,783.83Z" transform="translate(-660.114 -663.157)"/><path d="M683.651,695.58a14.512,14.512,0,0,0-.862,3.967,15.628,15.628,0,0,1,.987-2.728S683.729,696.334,683.651,695.58Z" transform="translate(-658.628 -628.597)"/><path d="M732.843,685.307a4.97,4.97,0,0,0,.12-1.2c-.162.8-.275,1.55-.353,2.208A5.8,5.8,0,0,1,732.843,685.307Z" transform="translate(-678.641 -623.989)"/><path d="M683.525,758.1a6.879,6.879,0,0,0,.323-2.393,8.131,8.131,0,0,0-.6,3.027A2.916,2.916,0,0,1,683.525,758.1Z" transform="translate(-658.812 -652.752)"/><path d="M675.731,793.72a42.477,42.477,0,0,0-1.484,6.629L661.2,801.863a27.347,27.347,0,0,1-2.926-5.5c-.15-.353-.269-.664-.365-.951-.784.359-1.089,1.2-.066,3.542a27.607,27.607,0,0,0,2.92,5.5l13.066-1.514s.969-6.8,2.262-8.095C676.718,794.211,676.311,793.888,675.731,793.72Z" transform="translate(-648.344 -668.022)"/><path d="M652.548,689.94s.108,7.449,1.2,7.879h0c.544-1.232.909-2.393.425-2.6-1.083-.431-1.2-7.879-1.2-7.879s-2.154-8.849-1.615-11.224-1.729-8.095-1.729-8.095l-.754-6.8a18.684,18.684,0,0,1-2.393-12.845v-10.47s-2.991-20.288-3.452-30.512c-.275-6.581-.2-15.555-.108-21.119,0-1.011.03-1.909.048-2.662l-.371.036s-.06,2.076-.108,5.217c-.1,5.588-.173,14.55.108,21.113.431,10.254,3.452,30.542,3.452,30.542V651a18.684,18.684,0,0,0,2.393,12.845l.76,6.755s2.267,5.72,1.729,8.095S652.548,689.94,652.548,689.94Z" transform="translate(-642.403 -583.62)"/><path d="M721.85,799.017a12.563,12.563,0,0,1-2.064-5.127c-1.334,1.2.2,5.869,1.633,7.718,1.508,1.938,12.731,3.129,14.891-.431v-2.058C733.391,802.015,723.3,800.854,721.85,799.017Z" transform="translate(-673.284 -668.09)"/><path d="M749.984,782.016a20.947,20.947,0,0,0-1.514,3.237v1.5c.245-.556.6-1.292,1.083-2.166a6.455,6.455,0,0,0,.473-2.668A.365.365,0,0,0,749.984,782.016Z" transform="translate(-685.013 -663.281)"/><path d="M720.541,774.234a20.838,20.838,0,0,0,1.065-2.567s-1.837.431-4.75-2.991c-2.124-2.513-2.244-7.257-1.938-10.356-.544,1.831-1.406,9.495,1.508,12.947C718.334,773.5,719.77,774.091,720.541,774.234Z" transform="translate(-671.311 -653.801)"/><path d="M702.485,705.061a57.666,57.666,0,0,1,.215,6.4,9.317,9.317,0,0,1,.221-1.005c.544-1.831,0-7.981,0-7.981s.108-4.32-.754-5.72-2.7-9.393-2.7-9.393,0-2.7-1.508-4.1-2.483-6.91-2.483-6.91a7.066,7.066,0,0,1-1.083-4.637c.323-2.7-1.831-5.612-1.831-5.612l-3.673-11.66L685.44,645.7l-1.944,5.073s0,.64-.066,1.639l1.579-4.122,3.452,8.741,3.685,11.66s2.16,2.914,1.837,5.612a7.066,7.066,0,0,0,1.083,4.637s.969,5.5,2.477,6.91,1.514,4.1,1.514,4.1,1.837,7.987,2.7,9.393S702.485,705.061,702.485,705.061Z" transform="translate(-658.885 -608.559)"/></g><path class="ab" d="M723.31,406.172l-.814,3.937.048,1.753.036,1.3-4.505.461-.5-.933h0c-.933-1.687-2.866-5.121-3.494-5.648-.832-.7-2.315-11.654-.532-11.008a4.715,4.715,0,0,1,2.507,2.273S724.9,399.346,723.31,406.172Z" transform="translate(-322.834 -185.101)"/><path class="g" d="M725.848,423.5l-4.505.461-.5-.933h0a3.979,3.979,0,0,1,4.972-.82Z" transform="translate(-326.102 -195.413)"/><path class="q" d="M726.812,425.889l-5.941,1.376-.12-.885-.341-2.393a4.086,4.086,0,0,1,5.749-.784l.293,1.2Z" transform="translate(-325.929 -195.676)"/><path class="ab" d="M560.691,401.035l-6.336,3.4-.6-1.2c-.6-1.262-1.5-3.165-1.747-3.847-.377-1.047-3.021-2.393-3.021-2.393-6.635-6.342,1.268-11.792,1.268-11.792,4.188-8.418,8.849,2.86,8.849,2.86s.646,5.941.191,6.342-.461,2.022-.461,2.022a24.559,24.559,0,0,1,1.532,3.632C560.59,400.664,560.691,401.035,560.691,401.035Z" transform="translate(-256 -179.509)"/><path class="g" d="M565.674,413.087l-6.336,3.4-.6-1.2c.891-.742,4.068-3.314,5.109-3.2a7.974,7.974,0,0,0,1.5.042C565.572,412.716,565.674,413.087,565.674,413.087Z" transform="translate(-260.983 -191.561)"/><path class="q" d="M566.465,415.33l-7.12,3.512-.144-1.532-.1-1.059s4.128-3.536,5.349-3.4a6.438,6.438,0,0,0,1.861,0l.078,1.28Z" transform="translate(-261.127 -191.866)"/><path class="ab" d="M684.127,440.609s-31.062,3.506-25.253,1.621c4.038-1.316,5.642-3.883,5.983-6.737a16.183,16.183,0,0,0-1.161-7.179,30.9,30.9,0,0,0-2.776-5.612s23.746-13.06,19-1.2a19.027,19.027,0,0,0-1.346,5.624,15.723,15.723,0,0,0,.6,5.69A16.913,16.913,0,0,0,684.127,440.609Z" transform="translate(-300.918 -193.345)"/><path class="g" d="M681.775,421.506a19.025,19.025,0,0,0-1.346,5.624c-2.238,1.879-4.691,1.753-7.837,1.753-2.393,0-5.1.6-7.036-.6a30.9,30.9,0,0,0-2.776-5.612S686.526,409.625,681.775,421.506Z" transform="translate(-302.778 -193.339)"/><circle class="ab" cx="12.845" cy="12.845" r="12.845" transform="translate(356.544 210.679)"/><path class="g" d="M684.127,450.655s-31.062,3.506-25.253,1.621c4.038-1.316,5.642-3.883,5.983-6.737,1.544-1.675,4.649-2.884,6.647-3.524a9.28,9.28,0,0,1,5.63-.09,7.816,7.816,0,0,1,2.046.945A16.913,16.913,0,0,0,684.127,450.655Z" transform="translate(-300.918 -203.391)"/><path class="g" d="M727.041,427.16l-5.941,1.376-.12-.885a5.247,5.247,0,0,1,5.7-1.95Z" transform="translate(-326.158 -196.947)"/><path class="g" d="M566.533,416.193l-7.12,3.512-.144-1.532a52.337,52.337,0,0,1,7.179-3.183Z" transform="translate(-261.196 -192.728)"/><path class="g" d="M690.155,582.934c-12.025,1.9-29.148,4.373-31.864,3.548-2.25-.688-9.447-.6-15.711-.4.054-3.135.108-5.211.108-5.211L689.311,576A38.505,38.505,0,0,0,690.155,582.934Z" transform="translate(-294.663 -257.409)"/><path class="ac" d="M667.437,515.686s-39.606,6.8-43.86,5.5-26.073.108-26.073.108c-9.818,6.581-5.72-3.129-5.72-3.129a24.163,24.163,0,0,1,.323-9.172,55.859,55.859,0,0,0,1.651-9.172s-.215-6.479.969-7.987,2.591-12.307,2.591-12.307,1.083-7.335.975-8.974a61.386,61.386,0,0,1,.323-6.15l1.4-7.556c-8.095-1.077-32.7-16.189-32.7-16.189-1.2-5.067-10.356-16.943-10.356-16.943a12.325,12.325,0,0,0-.76-2.914c-.646-1.723,9.07-5.175,9.07-5.175s7.227,8.849,8.741,11.224,6.689,6.8,6.689,6.8a5.265,5.265,0,0,1,2.393.311l.126.036h0a19.35,19.35,0,0,1,4.834,2.776,9.369,9.369,0,0,1,6.581,2.483s4.427-.646,5.181.108,4.535,0,4.535,0,3.775-7.987,6.258-5.666,13.013,2.214,13.013,2.214c1.406-1.867,4.822-3.207,6.958-3.895a9.321,9.321,0,0,1,5.63-.09,7.257,7.257,0,0,1,2.22,1.071l6.39,6.258s1.837-2.393,1.621-2.914,2.16-.969,2.16-.969,3.129-.975,4.314-1.3,2.273.963,2.393,1.077a12.653,12.653,0,0,1-.532-4.744,5.585,5.585,0,0,0-1.3-3.889c3.781-9.279,12.307-1.508,12.307-1.508s.969,5.073.108,7.012.862,6.049.646,7.125.431,2.914.431,4.966a29.119,29.119,0,0,1-1.729,7.658c-.652,1.723-5.827,5.612-5.827,5.612s-.323,6.156-2.591,9.716-.927,15.759-.927,15.759,2.16,9.519,4.876,12.564S667.437,515.686,667.437,515.686Z" transform="translate(-259.95 -192.985)"/><path class="g" d="M642.026,459.737s-1.2-3.56-2.267-3.883a25.685,25.685,0,0,1-3.129-1.406l.694-1.328s4.05,1.113,4.7,2.3S642.026,459.737,642.026,459.737Z" transform="translate(-292.273 -208.046)"/><path class="g" d="M602.794,449.108c-.215,1.077-9.824,2.052-9.824,2.052l4.858-4.87h0l.12.042h0A19.347,19.347,0,0,1,602.794,449.108Z" transform="translate(-274.734 -205.302)"/><circle class="p" cx="0.862" cy="0.862" r="0.862" transform="translate(299.402 228.137)"/><circle class="p" cx="0.862" cy="0.862" r="0.862" transform="translate(300.509 229.866)"/><circle class="p" cx="0.862" cy="0.862" r="0.862" transform="translate(301.592 231.457)"/><circle class="p" cx="0.862" cy="0.862" r="0.862" transform="translate(302.723 233.187)"/><circle class="p" cx="0.7" cy="0.7" r="0.7" transform="translate(404.616 233.252)"/><circle class="p" cx="0.7" cy="0.7" r="0.7" transform="translate(404.723 234.844)"/><circle class="p" cx="0.7" cy="0.7" r="0.7" transform="translate(404.819 236.435)"/><path class="g" d="M645.74,513.06c-.1-.126,24.224,30.6,43.112,12.845C688.852,525.9,659.01,529.949,645.74,513.06Z" transform="translate(-295.932 -232.125)"/><path class="g" d="M622.38,539.76s14.556.395,16.076,4.583V548.7a2.782,2.782,0,0,1-2.7,0c-1.466-.8-10.272-5.265-13.371-3.117Z" transform="translate(-286.548 -242.851)"/><path class="ac" d="M622.83,539.76s13.922.377,15.376,4.373v4.146a2.669,2.669,0,0,1-2.591,0c-1.4-.754-9.818-5.02-12.785-2.991Z" transform="translate(-286.729 -242.851)"/><path class="g" d="M635.66,486.92a47.034,47.034,0,0,0,5.642,9.686,37.977,37.977,0,0,0,8.843,8.537S635.9,488.924,635.66,486.92Z" transform="translate(-291.883 -221.624)"/><path class="g" d="M627.7,458.65s2.429,10.482,8.687,14.048Z" transform="translate(-288.686 -210.267)"/><path class="g" d="M621.325,460.418c-.06-.191-2.154,8.292,8.071,12.989C629.42,473.406,625.052,471.929,621.325,460.418Z" transform="translate(-286.038 -210.976)"/><path class="g" d="M727.718,448.666c-.162,0,5.049,3.314,6.461,4.852C734.179,453.518,730.793,448.45,727.718,448.666Z" transform="translate(-328.863 -206.254)"/><path class="z" d="M665.512,417.1a2.735,2.735,0,0,0,1.005,1.735,2.771,2.771,0,0,0,1.2.269c3.919.239,7.993.413,11.612-1.095a4.391,4.391,0,0,0,1.795-1.167A7.239,7.239,0,0,0,682.15,414a37.282,37.282,0,0,1,2.393-5.456,18.3,18.3,0,0,0,1.268-9.794,6.491,6.491,0,0,0-.975-2.866c-1.041-1.484-2.932-2.082-4.308-3.261s-2.255-2.991-3.859-3.877a7.447,7.447,0,0,0-4.846-.431,25.57,25.57,0,0,0-9.106,3.4,4.52,4.52,0,0,1-2.991,1.029,4.179,4.179,0,0,1-2.226-1.705,11.966,11.966,0,0,0-.957,5.594,2.489,2.489,0,0,1,0,.844,2.6,2.6,0,0,1-.6.891c-.969,1.119-1.573,2.9-.6,4.026.413.5,1.053.766,1.46,1.268.724.9.479,2.2.461,3.356a1.711,1.711,0,0,0,.287,1.137,1.657,1.657,0,0,0,1.585.377,4.4,4.4,0,0,1,1.687-.162,2.776,2.776,0,0,1,1.466,1.131C664.052,411.8,664.752,414.33,665.512,417.1Z" transform="translate(-299.593 -181.933)"/><g class="c" transform="translate(355.22 208.98)"><path d="M681.508,423.057a4.344,4.344,0,0,1-1.795,1.2c-3.59,1.508-7.694,1.334-11.613,1.089a2.608,2.608,0,0,1-1.2-.269,2.716,2.716,0,0,1-1.005-1.735c-.76-2.764-1.46-5.295-3.272-7.592a2.776,2.776,0,0,0-1.466-1.131,4.284,4.284,0,0,0-1.687.162,1.669,1.669,0,0,1-1.568-.377,1.723,1.723,0,0,1-.287-1.143c0-1.155.263-2.453-.461-3.35-.407-.509-1.041-.772-1.46-1.268a2.537,2.537,0,0,1-.251-2.579c-.682,1.089-.981,2.489-.179,3.44.413.5,1.053.766,1.46,1.268.724.9.479,2.2.461,3.356a1.711,1.711,0,0,0,.287,1.137,1.657,1.657,0,0,0,1.585.377,4.4,4.4,0,0,1,1.687-.162,2.776,2.776,0,0,1,1.466,1.131c1.795,2.3,2.513,4.828,3.273,7.6a2.028,2.028,0,0,0,2.214,2c3.919.239,7.993.413,11.613-1.095a4.391,4.391,0,0,0,1.795-1.167,3.427,3.427,0,0,0,.556-1.041A1.827,1.827,0,0,1,681.508,423.057Z" transform="translate(-654.786 -398.121)"/><path d="M657.635,399.012a1.794,1.794,0,0,0,.395-.646,2.5,2.5,0,0,0,0-.844,11.9,11.9,0,0,1,.6-4.649l-.072-.084a11.881,11.881,0,0,0-.957,5.594A3.684,3.684,0,0,1,657.635,399.012Z" transform="translate(-655.904 -392.79)"/></g><path class="g" d="M668.84,449.377s16.046,2.124,17.488-.287" transform="translate(-305.212 -206.427)"/><path class="g" d="M721,438.47s8.908,0,10.871,3.356" transform="translate(-326.166 -202.161)"/><path class="e" d="M1039.677,425s1.113,1.454-.515,3.655-2.991,4.062-2.429,5.432c0,0,2.459-4.086,4.457-4.146S1041.879,427.429,1039.677,425Z" transform="translate(-452.952 -196.749)"/><path class="g" d="M1039.723,425a1.968,1.968,0,0,1,.227.455c1.95,2.3,2.991,4.433,1.113,4.487-1.747.054-3.841,3.177-4.344,3.967a.529.529,0,0,0,.06.179c.024.06,2.459-4.086,4.457-4.146S1041.925,427.429,1039.723,425Z" transform="translate(-452.998 -196.749)"/><path class="v" d="M1045.027,427.83c0,.514-.054.933-.126.933s-.132-.419-.132-.933.072-.269.144-.269S1045.027,427.321,1045.027,427.83Z" transform="translate(-456.232 -197.755)"/><path class="v" d="M1045.8,428.843c-.449.245-.844.395-.874.329s.3-.311.754-.556.269-.066.305,0S1046.257,428.6,1045.8,428.843Z" transform="translate(-456.295 -198.152)"/><path class="e" d="M1030.217,425s-1.119,1.454.515,3.655,2.991,4.062,2.429,5.432c0,0-2.459-4.086-4.463-4.146S1028.015,427.429,1030.217,425Z" transform="translate(-449.379 -196.749)"/><path class="g" d="M1030.217,425a1.822,1.822,0,0,0-.233.455c-1.95,2.3-2.991,4.433-1.113,4.487,1.747.054,3.847,3.177,4.349,3.967a.529.529,0,0,1-.06.179c-.024.06-2.459-4.086-4.463-4.146S1028.015,427.429,1030.217,425Z" transform="translate(-449.379 -196.749)"/><path class="v" d="M1028.43,427.831c0,.515.06.933.132.933a1.889,1.889,0,0,0,.126-.933c0-.509-.072-.269-.144-.269S1028.43,427.323,1028.43,427.831Z" transform="translate(-449.668 -197.756)"/><path class="v" d="M1027.055,428.843c.455.245.844.395.88.329s-.305-.311-.754-.556-.275-.066-.311,0S1026.607,428.6,1027.055,428.843Z" transform="translate(-449.005 -198.152)"/><path class="ad" d="M1029,438.689s3.117-.1,4.056-.766,4.786-1.466,5.031-.395,4.684,5.337,1.2,5.385-8.178-.544-9.118-1.119S1029,438.689,1029,438.689Z" transform="translate(-449.897 -201.572)"/><path class="ae" d="M1039.326,443.655c-3.518,0-8.179-.55-9.112-1.119-.718-.437-1-2-1.095-2.716H1029s.2,2.519,1.137,3.087,5.594,1.149,9.118,1.119c1.017,0,1.364-.371,1.346-.9C1040.469,443.446,1040.086,443.649,1039.326,443.655Z" transform="translate(-449.897 -202.703)"/></g></svg>