<svg xmlns="http://www.w3.org/2000/svg" xmlns:xlink="http://www.w3.org/1999/xlink" viewBox="0 0 420.944 367.607"><defs><style>.a,.b{fill:#6c63ff;}.a,.d{opacity:0.2;}.c,.n{fill:none;stroke-miterlimit:10;}.c{stroke:#535461;stroke-width:2px;}.d{fill:#f5f5f5;}.e{fill:url(#a);}.f{fill:#e14b5a;}.g{fill:#f7c4a7;}.h,.j,.n{opacity:0.1;}.i{fill:#575988;}.k{fill:#632652;}.l{fill:#535461;}.m{fill:#fff;}.n{stroke:#000;}.o{fill:#6a5c99;}.p{fill:#ffd037;}.q{fill:#d6d6e3;}</style><linearGradient id="a" x1="0.5" y1="1" x2="0.5" gradientUnits="objectBoundingBox"><stop offset="0" stop-color="gray" stop-opacity="0.251"/><stop offset="0.54" stop-color="gray" stop-opacity="0.122"/><stop offset="1" stop-color="gray" stop-opacity="0.102"/></linearGradient></defs><g transform="translate(0.004)"><rect class="a" width="24.289" height="12.612" transform="translate(356.803 132.189)"/><rect class="a" width="24.289" height="12.612" transform="translate(358.671 147.603)"/><rect class="a" width="24.289" height="12.612" transform="translate(338.586 40.638)"/><rect class="a" width="24.289" height="12.612" transform="translate(355.868 55.118)"/><rect class="a" width="24.289" height="12.612" transform="translate(309.159 41.572)"/><rect class="a" width="24.289" height="12.612" transform="translate(387.164 69.598)"/><rect class="a" width="24.289" height="12.612" transform="translate(357.737 70.532)"/><rect class="a" width="24.289" height="12.612" transform="translate(326.441 56.052)"/><rect class="a" width="24.289" height="12.612" transform="translate(385.763 166.754)"/><rect class="a" width="24.289" height="12.612" transform="translate(356.336 167.688)"/><path class="b" d="M239.107,332.5s34.234,34.234,14.91,85.012S287.139,552.8,287.139,552.8s-.561-.084-1.6-.266C215.229,540.125,180.3,459.714,219.41,400,233.927,377.767,245.857,351.716,239.107,332.5Z" transform="translate(-177.922 -203.581)"/><path class="c" d="M271.128,332.5s19.324,41.964,0,76.193S267.816,539.014,319.164,552.8" transform="translate(-209.943 -203.581)"/><path class="b" d="M149.63,628.432s39.063-6.222,42.623,28.787,75.119,39.862,75.119,39.862-.467.318-1.341.892c-59.083,38.769-115.56,24.7-107.045-26.793C162.148,652.034,161.887,632.8,149.63,628.432Z" transform="translate(-149.42 -361.055)"/><path class="d" d="M149.63,628.432s39.063-6.222,42.623,28.787,75.119,39.862,75.119,39.862-.467.318-1.341.892c-59.083,38.769-115.56,24.7-107.045-26.793C162.148,652.034,161.887,632.8,149.63,628.432Z" transform="translate(-149.42 -361.055)"/><path class="c" d="M149.63,628.92s30.319,6.656,27.83,34.224,45.028,60.634,89.912,34.425" transform="translate(-149.42 -361.543)"/><rect class="a" width="24.289" height="12.612" transform="translate(0.406 132.656)"/><rect class="a" width="24.289" height="12.612" transform="translate(17.689 147.136)"/><rect class="a" width="24.289" height="12.612" transform="translate(148.944)"/><rect class="a" width="24.289" height="12.612" transform="translate(340.454 232.615)"/><rect class="a" width="24.289" height="12.612" transform="translate(19.557 162.55)"/><rect class="a" width="24.289" height="12.612" transform="translate(166.226 14.48)"/><rect class="a" width="24.289" height="12.612" transform="translate(77.478 99.959)"/><rect class="a" width="24.289" height="12.612" transform="translate(94.76 114.439)"/><rect class="a" width="24.289" height="12.612" transform="translate(141.003 106.499)"/><rect class="a" width="24.289" height="12.612" transform="translate(96.629 129.853)"/><rect class="a" width="24.289" height="12.612" transform="translate(373.151 232.615)"/><path class="e" d="M593.169,264.233a192.564,192.564,0,0,1-2.887-26.489h0a35.5,35.5,0,0,0-24.971-32.407c-2.55-.785-5.358-1.518-8.459-2.177-27.185-5.773-35.443-.733-36.382-.07A34.864,34.864,0,0,1,518.4,198.6c-.047-.159-.089-.318-.135-.467a34.8,34.8,0,0,0,9.3-20.968c4.536-4.6,7.184-10.145,7.184-16.12a22.127,22.127,0,0,0-5.395-14.13V138.8a35.3,35.3,0,0,0-35.3-35.3h-2.863a35.3,35.3,0,0,0-35.3,35.3v8.749a21.9,21.9,0,0,0-4.881,13.49c0,5.848,2.541,11.285,6.9,15.825a34.808,34.808,0,0,0,9.688,21.645c.192,1.327.388,2.751.579,4.255l-48.625,10.272s-18.749.771-30.829,25.69c-10.215,21.108-30.544,75.338-36.565,91.481h0c-1.088,2.924-1.7,4.6-1.7,4.6s.2-.2.579-.546l-.579,1.574s.294-.3.855-.789c-.85,6.754-.972,18.352,7.875,19.8,7.418,1.21,26.531,1.71,40.969,1.91h1c9.571.126,16.853.126,16.853.126v-.126H573.294v-1.593a10.7,10.7,0,0,0-.855-4.2l.215-.262a8.524,8.524,0,0,1,1.611,3.737,3.741,3.741,0,0,1-.075.392l.093-.238a4,4,0,0,1-.093,1.266s19.922-51.329,19.707-81.98A51.918,51.918,0,0,0,593.169,264.233ZM468.991,209.7a35.614,35.614,0,0,1-.5-4.428v-.042C468.669,206.673,468.837,208.168,468.991,209.7ZM408.633,319.954v12.233l-7.66,1.639Z" transform="translate(-256.443 -81.546)"/><path class="f" d="M463.439,57.57h0a35.3,35.3,0,0,1,35.3,35.3v15.059h-70.6V92.869a35.3,35.3,0,0,1,35.3-35.3Z" transform="translate(-228.044 -30.679)"/><ellipse class="f" cx="40.236" cy="27.648" rx="40.236" ry="27.648" transform="translate(195.406 54.538)"/><path class="g" d="M596.919,279.931s8.408,43.94,0,55.79,25.69,16.54,25.69,16.54L657.9,339.426l4.937-31.6s-21.487-12.1-17.035-36.536Z" transform="translate(-387.07 -170.962)"/><path class="g" d="M782.6,591.964s2.223,9.627-9.874,11.355a68.408,68.408,0,0,1-21.524-.257L748.53,578.88h28.143Z" transform="translate(-468.574 -334.877)"/><path class="g" d="M362.779,564.715s-5.344,21.715,6.754,23.677,56.519,1.976,56.519,1.976v-25.69l-20.113,4.3-18.88-18.1Z" transform="translate(-262.381 -319.95)"/><path class="h" d="M474.3,317.742l-47.275,10s-18.021.743-29.623,24.686-36.784,92.327-36.784,92.327,21.487-21.725,46.659,1.481l16.788-30.361-3.7,48.139H550.44V441.294s27.152,14.564,25.181,22.71c0,0,23.238-59.873,18.217-87.081a185.06,185.06,0,0,1-2.775-25.457h0a34.1,34.1,0,0,0-24-31.141c-2.448-.752-5.138-1.457-8.128-2.088-27.9-5.923-35.032,0-35.032,0s-5.4,17.582-5.306,25.55c.121,10.243-14.564,17.035-14.564,17.035s-21.725-5.185-22.71-9.379S472.565,322.679,474.3,317.742Z" transform="translate(-261.857 -194.577)"/><path class="i" d="M474.3,315.632l-47.275,10S409,326.37,397.4,350.314,360.61,442.65,360.61,442.65s21.487-21.725,46.659,1.481l16.788-30.361-3.7,48.125H550.434v-22.71s27.152,14.564,25.181,22.71c0,0,23.238-59.873,18.217-87.081a185.05,185.05,0,0,1-2.774-25.457h0a34.1,34.1,0,0,0-24-31.141c-2.448-.752-5.138-1.457-8.128-2.088-27.9-5.923-35.032,0-35.032,0s-5.4,17.582-5.306,25.55c.121,10.243-14.564,17.035-14.564,17.035s-21.725-5.185-22.71-9.379S472.56,320.569,474.3,315.632Z" transform="translate(-261.851 -193.453)"/><path class="h" d="M650.176,293.586a33.411,33.411,0,0,1-1.289-17.526L600,284.7s.705,3.695,1.5,9.23a33.566,33.566,0,0,0,48.662-.341Z" transform="translate(-389.423 -173.504)"/><path class="g" d="M648.671,221.368a33.573,33.573,0,1,1-67.141.813c0-.271,0-.542,0-.813a33.564,33.564,0,0,1,39.2-33.1h0a33.547,33.547,0,0,1,27.844,30.875Q648.671,220.246,648.671,221.368Z" transform="translate(-379.58 -126.467)"/><g class="j" transform="translate(201.95 62.559)"><path d="M603.4,193.9l.047-.028a33.545,33.545,0,0,0-21.921,31.5v.813a7.474,7.474,0,0,0,3.013-.724c8.184-3.821,13.079-15.508,15.022-23.659C600.265,198.877,600.924,195.589,603.4,193.9Z" transform="translate(-581.53 -192.263)"/><path d="M650.565,193a33.293,33.293,0,0,0-8.347-2.574,10.771,10.771,0,0,1,5.993,3.765,15.345,15.345,0,0,1,1.836,3.27,33.664,33.664,0,0,0-28.236.584c2.107,4.62,8.641,7.137,13,8.824q7.165,2.765,14.48,5.059l-4.316-3.5,9.748,1.551a16.887,16.887,0,0,0-.682-5.745c1.868,1.5,4.344,2.009,6.371,3.27,3.8,2.4,5.381,7.006,7.45,11a7.29,7.29,0,0,0,2.177,2.8A33.589,33.589,0,0,0,650.565,193Z" transform="translate(-602.995 -190.43)"/></g><path class="k" d="M603.4,192.268l.047-.028a33.545,33.545,0,0,0-21.921,31.5v.813a7.474,7.474,0,0,0,3.013-.724c8.184-3.821,13.079-15.508,15.022-23.659C600.265,197.266,600.924,193.964,603.4,192.268Z" transform="translate(-379.58 -128.836)"/><path class="k" d="M650.565,191.384a33.293,33.293,0,0,0-8.347-2.574,10.771,10.771,0,0,1,5.993,3.765,15.346,15.346,0,0,1,1.836,3.27,33.664,33.664,0,0,0-28.236.584c2.107,4.62,8.641,7.137,13,8.823q7.165,2.765,14.48,5.059l-4.316-3.5,9.748,1.551a16.887,16.887,0,0,0-.682-5.745c1.868,1.5,4.344,2.009,6.371,3.27,3.8,2.4,5.381,7.006,7.45,11a7.29,7.29,0,0,0,2.177,2.8A33.589,33.589,0,0,0,650.565,191.384Z" transform="translate(-401.045 -127.008)"/><path class="h" d="M573.33,211.37s34.565-42.973,74.554,0l-3.457-9.627s-18.763-27.4-32.09-21.487-26.414,10.122-26.414,10.122Z" transform="translate(-375.21 -122.004)"/><path class="f" d="M573.33,209.74s34.565-42.973,74.554,0l-3.457-9.627s-18.763-27.4-32.09-21.487-26.414,10.122-26.414,10.122Z" transform="translate(-375.21 -121.136)"/><path class="h" d="M505.51,444.38s-7.4,19.749,2.961,37.522-9.132,25.181-9.132,25.181" transform="translate(-335.781 -263.202)"/><path class="h" d="M765.45,406.33s12.836,16.292,4.442,30.857-7.9,49.62-7.9,49.62" transform="translate(-475.746 -242.925)"/><path class="l" d="M325.306,553.3H467.99a11.85,11.85,0,0,1,11.85,11.85H313.46A11.85,11.85,0,0,1,325.306,553.3Z" transform="translate(-166.931 -294.854)"/><path class="l" d="M349.117,378.89H462.771a18.217,18.217,0,0,1,18.217,18.217v65.964H330.9V397.107A18.217,18.217,0,0,1,349.117,378.89Z" transform="translate(-176.225 -201.911)"/><circle class="m" cx="8.889" cy="8.889" r="8.889" transform="translate(220.704 213.885)"/><path class="n" d="M577.56,187.274s33.967-33.949,70.6-.621" transform="translate(-377.464 -118.05)"/><rect class="o" width="3.41" height="19.333" transform="translate(275.868 67.061)"/><path class="p" d="M580.62,170.35h0A11.752,11.752,0,0,1,592.372,182.1v.757a11.752,11.752,0,0,1-11.752,11.752h0Z" transform="translate(-309.301 -90.78)"/><rect class="o" width="5.306" height="26.536" rx="2.653" transform="translate(269.044 78.435)"/><rect class="o" width="3.41" height="19.333" transform="translate(194.575 86.773) rotate(180)"/><path class="p" d="M0,0H0A11.752,11.752,0,0,1,11.752,11.752v.757A11.752,11.752,0,0,1,0,24.261H0Z" transform="translate(199.124 104.21) rotate(180)"/><rect class="o" width="5.306" height="26.536" rx="2.653" transform="translate(201.399 105.345) rotate(180)"/><path class="p" d="M641.66,130.533c-4.62-9.6-14.681-21.216-36.368-22.145v-.028h-.262l-7.684.364v.037c-21.543.99-31.557,12.56-36.163,22.131a49.789,49.789,0,0,0-4.774,20.739l2.653-.065,2.653-.061a45.146,45.146,0,0,1,4.311-18.46c5.848-12.014,16.61-18.4,31.982-18.992h0l6.8-.378h0c15.382.589,26.148,6.983,31.992,18.992a45.146,45.146,0,0,1,4.321,18.469l2.653.061,2.653.065A49.787,49.787,0,0,0,641.66,130.533Z" transform="translate(-366.193 -84.136)"/><rect class="q" width="361.866" height="97.157" transform="translate(34.808 270.45)"/><rect class="h" width="361.866" height="12.612" transform="translate(34.808 276.99)"/><rect class="q" width="410.407" height="12.612" transform="translate(10.533 269.049)"/></g></svg>