<svg xmlns="http://www.w3.org/2000/svg" xmlns:xlink="http://www.w3.org/1999/xlink" viewBox="0 0 712.342 566.314"><defs><linearGradient id="a" x1="0.5" y1="1" x2="0.5" gradientUnits="objectBoundingBox"><stop offset="0" stop-color="gray" stop-opacity="0.251"/><stop offset="0.54" stop-color="gray" stop-opacity="0.122"/><stop offset="1" stop-color="gray" stop-opacity="0.102"/></linearGradient></defs><g transform="translate(0 0)"><path d="M510.382,147.022c-45.073-1.567-88.008-16.115-129-32.036S299.787,81.425,255.794,72.991c-28.3-5.425-60.659-6.191-83.454,8.977-21.945,14.625-29.034,39.8-32.844,63.187-2.869,17.592-4.555,36.1,3.308,52.574,5.453,11.435,15.141,21.046,21.833,32.036,23.31,38.109,6.839,85.1-18.421,122.315-11.839,17.46-25.594,34.125-34.731,52.692s-13.372,39.871-5.376,58.828c7.932,18.8,26.827,32.9,47.288,42.824,41.57,20.162,90.536,25.928,138.319,29.195,105.74,7.236,212.036,4.1,318.054.968,39.237-1.163,78.641-2.34,117.238-8.406,21.436-3.371,43.562-8.712,59.127-21.624,19.751-16.387,24.647-44.14,11.415-64.685-22.209-34.467-83.572-43.026-99.117-80.02-8.538-20.357.237-43.033,12.647-61.92,26.632-40.5,71.266-76.044,73.62-122.343,1.616-31.806-19.848-63.647-53.026-78.7-34.773-15.83-83.008-13.824-108.651,12.285C596.6,138.08,550.176,148.4,510.382,147.022Z" transform="translate(-92.619 -51.323)" fill="#6c63ff" opacity="0.1"/><path d="M321.221,601.731,82.846,600.568,59.16,545.014l83.753-6.08-14.6-60.91L293.97,456.553,135.343,401.409l14.012-3.329,255.069,41.612-14.047,95.056L370.3,586.988Z" transform="translate(-17.959 -120.849)" fill="#6c63ff"/><path d="M187,698.741s14.625-2.34,23.4,7.995c0,0-6.435,5.07-20.28-1.95Z" transform="translate(-118.457 -242.289)" fill="#6c63ff"/><path d="M182.181,698.51s-9.332,11.484-4.736,24.271c0,0,7.605-3.043,8.434-18.546Z" transform="translate(-115.17 -242.288)" fill="#6c63ff"/><path d="M172.76,669.781s5.85-10.732,29.25,4.29c0,0-3.12,7.215-13.455,6.63S175.49,675.436,172.76,669.781Z" transform="translate(-114.134 -232.44)" fill="#6c63ff"/><path d="M164.786,670.285s-12.139-1.393-13.316,26.395c0,0,7.7,1.595,13.163-7.194S167.857,675.766,164.786,670.285Z" transform="translate(-107.671 -233.717)" fill="#6c63ff"/><path d="M160.44,633.974s6.825-18.915,31.59-5.46c0,0-5.655,17.355-29.055,11.9Z" transform="translate(-110.394 -219.573)" fill="#6c63ff"/><path d="M149.52,593.971s12.87-19.11,35.685-1.393c0,0-8,17.94-33.735,8.19Z" transform="translate(-107.079 -207.846)" fill="#6c63ff"/><path d="M145.6,555.819s15.015-17.557,37.607,0c0,0-14.235,15.405-37.607,4.485Z" transform="translate(-105.889 -196.603)" fill="#6c63ff"/><path d="M142.24,518.01s15.21-18.33,36.855-.975c0,0-17.16,16.185-36.855,5.265Z" transform="translate(-104.869 -184.931)" fill="#6c63ff"/><path d="M144.2,482.632s16.018-23.6,36.27-7.605c0,0-17.16,20.28-36.27,12.09Z" transform="translate(-105.464 -172.759)" fill="#6c63ff"/><path d="M149.52,444.12s16.965-23.4,36.66-5.46c0,0-20.085,20.28-36.66,9.75Z" transform="translate(-107.079 -161.352)" fill="#6c63ff"/><path d="M157.258,407.993S177.343,386,194.865,394.761c0,0-20.928,23.358-38.485,19.068Z" transform="translate(-109.162 -149.455)" fill="#6c63ff"/><path d="M167,373.058s23.177-26.938,36.66-17.94c0,0-17.077,20.893-38.3,22.982Z" transform="translate(-111.888 -137.488)" fill="#6c63ff"/><path d="M181.083,335.844S201.37,313.85,216.19,319.31c0,0-17.355,22.815-37.83,23.4Z" transform="translate(-115.834 -126.912)" fill="#6c63ff"/><path d="M195.015,299.895s22.425-21.06,32.175-17.355c0,0-16.185,23.4-33.15,22.035Z" transform="translate(-120.594 -115.881)" fill="#6c63ff"/><path d="M208.32,264.445s19.305-25.162,29.842-23.212c0,0-11.707,22.432-29.842,25.768Z" transform="translate(-124.929 -103.442)" fill="#6c63ff"/><path d="M221.993,221.672s17.063-19.284,26.283-19.242c0,0-13.469,25.768-26.987,25.531Z" transform="translate(-128.866 -91.695)" fill="#6c63ff"/><path d="M229.666,182.89l16.485-40.17s.822,36.312-18.581,47.622Z" transform="translate(-130.773 -73.569)" fill="#6c63ff"/><path d="M240.141,120.977s2.73-33.547.975-36.277c0,0,11.784,27.892-1.086,51.1Z" transform="translate(-134.555 -55.956)" fill="#6c63ff"/><path d="M147.247,636.886s-17.09-10.593-28.157,15.322c0,0,15.21,10.1,30.17-8.712Z" transform="translate(-97.842 -222.931)" fill="#6c63ff"/><path d="M135.161,595.6S114.2,586.033,104.03,613.09c0,0,16.192,11.143,33.039-10.655Z" transform="translate(-93.27 -210.549)" fill="#6c63ff"/><path d="M127.807,558.129s-15.015-17.557-37.607,0c0,0,14.235,15.405,37.607,4.485Z" transform="translate(-89.072 -197.305)" fill="#6c63ff"/><path d="M125.435,518.01s-15.21-18.33-36.855-.975c0,0,17.16,16.185,36.855,5.265Z" transform="translate(-88.58 -184.931)" fill="#6c63ff"/><path d="M129.441,481.526S118.771,455.1,95.58,466.462c0,0,12.536,23.435,32.913,19.451Z" transform="translate(-90.705 -170.985)" fill="#6c63ff"/><path d="M136.575,441.536s-10.607-26.889-34.125-14.423c0,0,14.4,24.647,33.081,18.574Z" transform="translate(-92.79 -158.9)" fill="#6c63ff"/><path d="M150.569,400.85s-4.179-29.48-23.679-32.12c0,0,4.137,31.089,21.053,37.433Z" transform="translate(-100.21 -142.178)" fill="#6c63ff"/><path d="M160.692,365.738s-1.63-35.518-17.752-36.758c0,0,.543,26.959,15.934,41.786Z" transform="translate(-105.082 -130.112)" fill="#6c63ff"/><path d="M175.867,327.553s-4.805-29.536-20.2-33.143c0,0,1.908,28.6,18.671,40.393Z" transform="translate(-108.946 -119.617)" fill="#6c63ff"/><path d="M193.308,292.618s-.16-30.768-9.562-35.288c0,0-5.829,27.857,6.839,39.216Z" transform="translate(-117.063 -108.361)" fill="#6c63ff"/><path d="M204.365,258.355s-1.316-31.681-11.052-36.145c0,0-3.329,25.072,9.6,38.22Z" transform="translate(-120.256 -97.7)" fill="#6c63ff"/><path d="M220.207,219.823s-.056-25.768-7.006-31.813c0,0-6.909,28.226,3.378,36.995Z" transform="translate(-125.721 -87.318)" fill="#6c63ff"/><path d="M225.336,179.886,218.574,137s-9.186,35.142,7.083,50.631Z" transform="translate(-127.257 -71.833)" fill="#6c63ff"/><path d="M223.888,123.406s-17.355-28.832-17-32.036c0,0,1.846,30.218,23.679,45.268Z" transform="translate(-124.493 -57.981)" fill="#6c63ff"/><path d="M223.85,105.845S207.47,64.9,200.06,61.58c0,0,23.4,11.9,25.155,43.1Z" transform="translate(-122.422 -48.938)" fill="#6c63ff"/><path d="M220.681,203.6l-1.121-.341c13.824-45.08,17.272-73.822,9.715-81.03l.8-.85C238.092,128.985,234.84,157.413,220.681,203.6Z" transform="translate(-128.341 -67.091)" fill="#444053"/><path d="M165.788,343.556l-1.658-.592c1.469-4.13,3.05-8.322,4.708-12.452,14.43-35.964,26.715-69.421,34.592-95.105l1.442-.7c-7.891,25.733-19.96,60.471-34.4,96.484C168.817,335.247,167.243,339.419,165.788,343.556Z" transform="translate(-111.514 -101.494)" fill="#444053"/><path d="M193.293,637.419c-.223-.244-22.627-25.476-38.248-68.55a253.627,253.627,0,0,1-15.092-78.544c-1.072-33.519,5.961-70.946,18.01-104.946l1.309,1.532c-27.049,76.308-16.3,141.7-2.048,181.073,15.454,42.684,37.607,67.638,37.823,67.888Z" transform="translate(-104.143 -147.233)" fill="#444053"/><path d="M655.245,670.36s-15.788,19.27-3.252,48.4l-126.055,54.67-12.1,2.535-5.571-24.375L512,720.831V704.019Z" transform="translate(-215.984 -233.743)" fill="#d5d6db"/><path d="M59.16,595.2,233.631,563.39l231.181,36.827-143.591,51.7Z" transform="translate(-17.959 -171.031)" fill="#6c63ff"/><path d="M59.16,595.2,233.631,563.39l231.181,36.827-143.591,51.7Z" transform="translate(-17.959 -171.031)" fill="#6c63ff"/><path d="M144.877,652.47s-16.317,30.915,2.486,59.469L406.089,768s-16.06-24.626.829-58.807Z" transform="translate(-103.676 -228.312)" fill="#6c63ff"/><path d="M144.877,652.47s-16.317,30.915,2.486,59.469L406.089,768s-16.06-24.626.829-58.807Z" transform="translate(-103.676 -228.312)" opacity="0.1"/><path d="M157,667.86s-9.325,22.62,0,37.259" transform="translate(-108.093 -232.984)" opacity="0.1"/><path d="M410.035,791.494l144.44-61.634s8.079,1.741,2.855,7.661-144.51,59.893-144.51,59.893L151.31,735.431Z" transform="translate(-107.623 -251.805)" fill="#6c63ff"/><path d="M410.035,791.494l144.44-61.634s8.079,1.741,2.855,7.661-144.51,59.893-144.51,59.893L151.31,735.431Z" transform="translate(-107.623 -251.805)" opacity="0.1"/><path d="M503.112,742.86s-13.929,16.714,0,41.786" transform="translate(-212.538 -255.751)" opacity="0.1"/><rect width="65.862" height="0.696" transform="translate(295.532 507.669) rotate(-18.45)" opacity="0.1"/><rect width="80.25" height="0.696" transform="translate(295.508 513.276) rotate(-20.82)" opacity="0.1"/><rect width="93.015" height="0.696" transform="matrix(0.925, -0.379, 0.379, 0.925, 295.928, 519.885)" opacity="0.1"/><rect width="107.069" height="0.696" transform="translate(296.932 525.713) rotate(-24.31)" opacity="0.1"/><rect width="117.105" height="0.696" transform="translate(297.706 528.549) rotate(-23.61)" opacity="0.1"/><rect width="140.136" height="0.696" transform="translate(299.326 533.312) rotate(-23.36)" opacity="0.1"/><path d="M152.23,602.708,274.8,576.94l74.672,14.277L249.034,623.6Z" transform="translate(-46.212 -175.145)" fill="#fff" opacity="0.3"/><path d="M667.612,659.69s6.338,2.556,2.619,6.5S524,711.386,524,711.386Z" transform="translate(-220.759 -230.504)" fill="#6c63ff"/><path d="M754.538,574.18s-15.781,19.263-3.245,48.4l-126.055,54.67-12.1,2.549-5.571-24.375,3.782-30.754V607.839Z" transform="translate(-246.128 -204.546)" fill="#d5d6db"/><path d="M158.46,499.009l174.464-31.8,231.188,36.827-143.591,51.7Z" transform="translate(-48.103 -141.834)" fill="#3a3768"/><path d="M244.135,556.29s-16.324,30.915,2.479,59.469L505.34,671.821s-16.053-24.647.857-58.814Z" transform="translate(-133.806 -199.115)" fill="#3a3768"/><path d="M244.135,556.29s-16.324,30.915,2.479,59.469L505.34,671.821s-16.053-24.647.857-58.814L424.379,595.3Z" transform="translate(-133.806 -199.115)" opacity="0.1"/><path d="M256.295,571.68s-9.318,22.613,0,37.259" transform="translate(-138.235 -203.787)" opacity="0.1"/><path d="M509.325,695.314,653.773,633.68s8.072,1.741,2.848,7.661-144.51,59.893-144.51,59.893L250.6,639.251Z" transform="translate(-137.764 -222.608)" fill="#3a3768"/><path d="M509.325,695.314,653.773,633.68s8.072,1.741,2.848,7.661-144.51,59.893-144.51,59.893L250.6,639.251Z" transform="translate(-137.764 -222.608)" opacity="0.1"/><path d="M602.4,646.68s-13.929,16.714,0,41.786" transform="translate(-242.679 -226.554)" opacity="0.1"/><rect width="65.862" height="0.696" transform="translate(364.686 440.693) rotate(-18.45)" opacity="0.1"/><rect width="80.25" height="0.696" transform="translate(364.672 446.297) rotate(-20.82)" opacity="0.1"/><rect width="93.015" height="0.696" transform="matrix(0.925, -0.379, 0.379, 0.925, 365.08, 452.897)" opacity="0.1"/><rect width="107.069" height="0.696" transform="translate(366.093 458.726) rotate(-24.31)" opacity="0.1"/><rect width="117.105" height="0.696" transform="translate(366.857 461.553) rotate(-23.61)" opacity="0.1"/><rect width="140.136" height="0.696" transform="translate(368.482 466.316) rotate(-23.36)" opacity="0.1"/><path d="M251.53,506.528,374.1,480.76l74.672,14.277-100.44,32.384Z" transform="translate(-76.356 -145.948)" fill="#fff" opacity="0.45"/><path d="M766.921,563.51s6.331,2.556,2.619,6.5S623.33,615.2,623.33,615.2Z" transform="translate(-250.912 -201.307)" fill="#3a3768"/><path d="M763.948,464.15s-15.788,34.592-3.252,63.724L634.641,567.222l-12.069,2.556L617,545.4l3.726-30.761V497.809Z" transform="translate(-248.99 -171.145)" fill="#d5d6db"/><path d="M167.89,388.986,342.361,357.18l231.188,36.827-143.6,51.7Z" transform="translate(-50.966 -108.433)" fill="#6c63ff"/><path d="M253.6,446.26s-16.345,30.915,2.458,59.469l258.725,56.063s-16.06-24.647.85-58.807Z" transform="translate(-136.674 -165.714)" fill="#6c63ff"/><path d="M253.6,446.26s-16.345,30.915,2.458,59.469l258.725,56.063s-16.06-24.647.85-58.807Z" transform="translate(-136.674 -165.714)" opacity="0.1"/><path d="M265.733,461.65s-9.325,22.62,0,37.259" transform="translate(-141.1 -170.386)" opacity="0.1"/><path d="M518.765,587.713,663.206,541.4s8.079,1.741,2.855,7.661-144.51,44.572-144.51,44.572L260.04,531.65Z" transform="translate(-140.629 -191.635)" fill="#6c63ff"/><path d="M518.765,587.713,663.206,541.4s8.079,1.741,2.855,7.661-144.51,44.572-144.51,44.572L260.04,531.65Z" transform="translate(-140.629 -191.635)" opacity="0.1"/><path d="M611.842,536.65s-13.929,16.714,0,41.786" transform="translate(-245.545 -193.153)" opacity="0.1"/><rect width="65.862" height="0.696" transform="translate(371.262 364.063) rotate(-18.45)" opacity="0.1"/><rect width="80.25" height="0.696" transform="translate(371.243 369.671) rotate(-20.82)" opacity="0.1"/><rect width="93.015" height="0.696" transform="matrix(0.925, -0.379, 0.379, 0.925, 371.645, 376.274)" opacity="0.1"/><rect width="107.069" height="0.696" transform="translate(372.668 382.097) rotate(-24.31)" opacity="0.1"/><rect width="117.105" height="0.696" transform="translate(373.435 384.93) rotate(-23.61)" opacity="0.1"/><rect width="140.136" height="0.696" transform="translate(375.057 389.698) rotate(-23.36)" opacity="0.1"/><path d="M260.96,396.5,383.532,370.73,458.2,385.007l-100.44,32.384Z" transform="translate(-79.219 -112.546)" fill="#fff" opacity="0.3"/><path d="M776.351,453.48s6.338,2.556,2.619,6.5S632.76,505.176,632.76,505.176Z" transform="translate(-253.774 -167.905)" fill="#6c63ff"/><path d="M388.7,149.905s-26.465-1.595-23.372,16.972a4.529,4.529,0,0,0,2.354,4.771s.049-1.393,2.716-.912a11.874,11.874,0,0,0,2.883.139,6,6,0,0,0,3.517-1.449h0s7.445-3.078,10.342-15.252c0,0,2.145-2.653,2.089-3.336l-4.485,1.908s1.525,3.225.327,5.906c0,0-.146-5.787-1.01-5.655-.174,0-2.319,1.121-2.319,1.121s2.626,5.62.641,9.7c0,0,.752-6.923-1.462-9.3l-3.148,1.839s3.071,5.8.989,10.537c0,0,.536-7.264-1.651-10.091l-2.855,2.229s2.89,5.718,1.128,9.646c0,0-.23-8.455-1.741-9.1,0,0-2.5,2.2-2.876,3.106,0,0,1.978,4.179.745,6.345,0,0-.745-5.634-1.393-5.662,0,0-2.486,3.733-2.744,6.268A13.553,13.553,0,0,1,369.516,163a7.459,7.459,0,0,0-3.8,1.971s.383-2.639,4.422-2.869c0,0,2.055-2.834,2.6-3,0,0-4.018-.341-6.449.738,0,0,2.145-2.486,7.18-1.393l2.786-2.3s-5.279-.7-7.521.077c0,0,2.584-2.2,8.281-.6l3.071-1.832a27.907,27.907,0,0,0-7.187-.62s2.828-1.525,8.086.125l2.187-.982s-3.294-.648-4.262-.752-1.017-.369-1.017-.369a11.5,11.5,0,0,1,6.2.7S388.793,150.2,388.7,149.905Z" transform="translate(-172.516 -75.74)" fill="#6c63ff"/><path d="M923.3,259.485s-26.464-1.595-23.372,16.972a4.529,4.529,0,0,0,2.354,4.771s.049-1.393,2.716-.912a12.272,12.272,0,0,0,2.883.139,5.983,5.983,0,0,0,3.482-1.449h0s7.452-3.078,10.342-15.252c0,0,2.145-2.653,2.089-3.336l-4.471,1.908s1.525,3.225.327,5.906c0,0-.146-5.787-1-5.655-.174,0-2.326,1.121-2.326,1.121s2.626,5.62.648,9.7c0,0,.752-6.923-1.469-9.3l-3.148,1.839s3.071,5.8.989,10.537c0,0,.536-7.264-1.651-10.091l-2.848,2.229s2.883,5.718,1.121,9.646c0,0-.23-8.455-1.741-9.1a17.468,17.468,0,0,0-2.876,3.106s1.978,4.179.752,6.345c0,0-.752-5.634-1.393-5.662,0,0-2.486,3.733-2.744,6.268a13.511,13.511,0,0,1,2.145-6.644,7.493,7.493,0,0,0-3.809,1.971s.39-2.639,4.422-2.869c0,0,2.055-2.835,2.6-3.009,0,0-4.011-.334-6.449.745,0,0,2.145-2.486,7.18-1.393l2.786-2.3s-5.286-.7-7.521.077c0,0,2.577-2.2,8.281-.6l3.064-1.832a27.907,27.907,0,0,0-7.187-.62s2.828-1.525,8.086.125l2.194-.982s-3.3-.648-4.269-.752-1.017-.369-1.017-.369a11.414,11.414,0,0,1,6.2.7S923.386,259.778,923.3,259.485Z" transform="translate(-334.802 -109.005)" fill="#6c63ff" opacity="0.1"/><path d="M450.257,307.912S438.724,284,424.043,295.787a4.523,4.523,0,0,0-3.016,4.381s1.219-.634,2.089,1.929a12.34,12.34,0,0,0,1.281,2.577,6.01,6.01,0,0,0,2.988,2.368h0s6.317,5,18.358,1.588c0,0,3.364.578,3.914.174l-3.844-2.974s-2.089,2.9-5,3.162c0,0,4.986-2.946,4.45-3.628-.111-.139-2.089-1.483-2.089-1.483s-3.628,5.035-8.155,5.293c0,0,6.407-2.716,7.4-5.815l-3.134-1.853s-3.573,5.516-8.719,6c0,0,6.6-3.071,8-6.358l-3.329-1.393s-3.587,5.307-7.877,5.69c0,0,7.271-4.325,7.09-5.961a17.651,17.651,0,0,0-4.116-1s-2.66,3.754-5.168,3.754c0,0,4.548-3.406,4.269-3.956,0,0-4.471-.348-6.825.7a13.559,13.559,0,0,1,6.846-1.393,7.5,7.5,0,0,0-3.58-2.361s2.493-.947,4.659,2.458c0,0,3.482.411,3.893.808,0,0-1.664-3.663-3.789-5.258,0,0,3.218.648,4.687,5.571l3.378,1.337s-1.943-4.959-3.733-6.526c0,0,3.176,1.177,4.562,6.964l3.092,1.783a27.556,27.556,0,0,0-2.96-6.574s2.709,1.727,3.83,7.118l1.929,1.435s-1.045-3.2-1.393-4.088-.174-1.073-.174-1.073a11.428,11.428,0,0,1,2.424,5.746S450.006,308.121,450.257,307.912Z" transform="translate(-189.498 -119.044)" fill="#6c63ff" opacity="0.1"/><path d="M834.037,204.292s-11.526-23.909-26.214-12.125a4.532,4.532,0,0,0-3.016,4.381s1.226-.627,2.089,1.929a12.075,12.075,0,0,0,1.288,2.584,5.976,5.976,0,0,0,2.981,2.361h0s6.324,5,18.358,1.595c0,0,3.364.571,3.921.167l-3.823-2.981s-2.089,2.911-4.993,3.169c0,0,4.98-2.953,4.443-3.635-.111-.139-2.089-1.483-2.089-1.483s-3.621,5.035-8.155,5.293c0,0,6.414-2.716,7.4-5.808l-3.183-1.839s-3.566,5.509-8.719,6c0,0,6.6-3.078,8.009-6.365L819,196.144s-3.587,5.314-7.87,5.69c0,0,7.264-4.325,7.083-5.955,0,0-3.134-1.107-4.109-1,0,0-2.66,3.747-5.174,3.747,0,0,4.555-3.406,4.276-3.956,0,0-4.471-.348-6.832.7a13.552,13.552,0,0,1,6.846-1.393,7.458,7.458,0,0,0-3.573-2.361s2.493-.947,4.659,2.458c0,0,3.482.418,3.893.815,0,0-1.664-3.67-3.8-5.265,0,0,3.218.655,4.687,5.606l3.385,1.337s-1.943-4.966-3.733-6.533c0,0,3.176,1.177,4.555,6.964l3.1,1.783a27.813,27.813,0,0,0-2.967-6.574s2.716,1.727,3.83,7.118l1.929,1.435s-1.038-3.2-1.393-4.088-.174-1.066-.174-1.066a11.457,11.457,0,0,1,2.417,5.746S833.821,204.515,834.037,204.292Z" transform="translate(-306.001 -87.589)" fill="#6c63ff" opacity="0.1"/><path d="M886.918,374.1s-11.526-23.916-26.235-12.132a4.532,4.532,0,0,0-3.016,4.381s1.226-.627,2.089,1.929a12.069,12.069,0,0,0,1.281,2.584,5.976,5.976,0,0,0,2.981,2.361h0s6.324,5.007,18.365,1.595c0,0,3.357.578,3.914.167l-3.844-2.974s-2.089,2.911-5,3.169c0,0,4.98-2.953,4.443-3.635-.111-.139-2.089-1.483-2.089-1.483s-3.621,5.035-8.155,5.3c0,0,6.414-2.723,7.4-5.815l-3.141-1.853s-3.566,5.516-8.719,6c0,0,6.6-3.078,8.009-6.365l-3.336-1.393s-3.587,5.307-7.87,5.69c0,0,7.271-4.325,7.09-5.961,0,0-3.141-1.107-4.116-1,0,0-2.66,3.747-5.174,3.747,0,0,4.555-3.406,4.276-3.956,0,0-4.471-.348-6.832.7a13.594,13.594,0,0,1,6.853-1.393,7.446,7.446,0,0,0-3.58-2.361s2.493-.954,4.659,2.458c0,0,3.482.411,3.893.808,0,0-1.664-3.663-3.789-5.265,0,0,3.218.655,4.687,5.606l3.378,1.337s-1.943-4.966-3.733-6.526c0,0,3.176,1.17,4.555,6.964l3.1,1.776a27.814,27.814,0,0,0-2.967-6.574s2.716,1.727,3.837,7.125l1.929,1.393s-1.045-3.2-1.393-4.088-.174-1.066-.174-1.066a11.387,11.387,0,0,1,2.417,5.746S886.7,374.308,886.918,374.1Z" transform="translate(-322.047 -139.135)" fill="#6c63ff" opacity="0.1"/><ellipse cx="16.011" cy="1.79" rx="16.011" ry="1.79" transform="translate(124.634 542.531)" fill="#6c63ff" opacity="0.1"/><ellipse cx="16.011" cy="1.79" rx="16.011" ry="1.79" transform="translate(19.674 512.111)" fill="#6c63ff" opacity="0.1"/><ellipse cx="16.011" cy="1.79" rx="16.011" ry="1.79" transform="translate(204.64 562.734)" fill="#6c63ff" opacity="0.1"/><ellipse cx="16.011" cy="1.79" rx="16.011" ry="1.79" transform="translate(614.631 518.727)" fill="#6c63ff" opacity="0.1"/><ellipse cx="16.011" cy="1.79" rx="16.011" ry="1.79" transform="translate(481.396 510.042)" fill="#6c63ff" opacity="0.1"/><ellipse cx="18.936" cy="3.252" rx="18.936" ry="3.252" transform="translate(392.28 549.474)" fill="#6c63ff" opacity="0.1"/><path d="M683.911,790.14s-26.367,13.622-12.745,29.668a5.1,5.1,0,0,0,4.986,3.238s-.738-1.351,2.089-2.431a13.585,13.585,0,0,0,2.848-1.511,6.692,6.692,0,0,0,2.549-3.406h0s5.39-7.215,1.212-20.566c0,0,.543-3.775.07-4.388l-3.2,4.394s3.308,2.222,3.691,5.488c0,0-3.482-5.481-4.179-4.875-.153.125-1.588,2.4-1.588,2.4s5.739,3.893,6.163,8.949c0,0-3.232-7.083-6.721-8.093l-2,3.566s6.268,3.816,6.964,9.555c0,0-3.642-7.278-7.361-8.747l-1.469,3.768s6.045,3.844,6.6,8.622c0,0-5.056-7.988-6.874-7.737,0,0-1.142,3.538-.989,4.631,0,0,4.269,2.855,4.346,5.662,0,0-3.942-4.979-4.548-4.652,0,0-.251,5.007.961,7.612a15.026,15.026,0,0,1-1.748-7.612,8.358,8.358,0,0,0-2.528,4.067s-1.135-2.751,2.6-5.286c0,0,.355-3.893.787-4.374,0,0-4.046,1.978-5.766,4.4,0,0,.634-3.615,6.122-5.411l1.393-3.816s-5.488,2.326-7.18,4.374c0,0,1.219-3.587,7.612-5.307l1.894-3.482s-4.875,1.644-7.257,3.482c0,0,1.846-3.085,7.842-4.506l1.539-2.194s-3.538,1.261-4.527,1.713-1.184.23-1.184.23a12.807,12.807,0,0,1,6.344-2.883S684.155,790.377,683.911,790.14Z" transform="translate(-264.247 -270.104)" fill="#6c63ff"/><path d="M700.579,306.18c-4.555-12.376-29.626-13.539-40.5-10.384-7.73,2.249-24.027,4.784-32.732,6.059l-.564-.536c1.128-.334,1.156-1.156,1.017-2.375a37.154,37.154,0,0,1,.07-4.819c5.335,1.658,10.084-2.263,10.084-2.263h0c6.268-2.786,4.583-14.709,5.78-17.968.9-2.438,1.866-16.8,2.3-23.957h.091l.049-2.4c.063-1.038.091-1.644.091-1.644s.613-17.508,1.811-21.053c1.114-3.259,2.02-19.681,2.159-22.286v-.341l-.091-1.518c.063-1.107.091-2.34.084-3.635,0-5.955-.62-13.455-.7-14.667v-.634c.049-2.542-.272-15.273-11.1-20.085-3.991-1.783-8.789-3.907-13.434-5.975-1.2-10.342-3.935-20.628-3.7-31.047,0-1.567.139-3.134.292-4.694,0,.453-.049.912-.056,1.393v3.036c.411-13.03,5.335-26.13,4.875-38.882-.042,1.247-.132,2.5-.251,3.754a40.483,40.483,0,0,0-1.337-12.807,7.579,7.579,0,0,0-2.187-3.97,9,9,0,0,0-3.816-1.511A76.755,76.755,0,0,0,608.789,69.1a15.476,15.476,0,0,0-2.256-4.381c-7.062-9.694-17.522-18.8-29.891-20.893-6.205-1.045-13.344-.174-17.564,4.262a13.17,13.17,0,0,0-1.24,1.254c-2.27,2.709-3.245,6.268-5.571,8.97-.153.181-.327.348-.495.522-4.555,4.074-11.651,4.924-16.714,8.58a20.065,20.065,0,0,0-2.5,2.18,42.4,42.4,0,0,0-5.46,6.637c-2.277,3.2-4.617,6.54-5.342,10.363-1.456,7.661,3.761,14.925,4.729,22.634,2.159,17.251-16.93,32.558-13.316,49.579a22.7,22.7,0,0,0,6.143,11.025c-7.445,6.741-13.782,13.281-13.782,13.281v.39h-1.177l.118,1.393h-.118l.648,7.556-.648,11v1.038h.042c.216,4.032,1.073,18.532,2.089,21.589,1.2,3.545,1.8,21.053,1.8,21.053s1.323,24.744,2.535,28.018-.508,15.161,5.78,17.968h0a13.233,13.233,0,0,0,6.317,2.619c-.32,2.6-.118,4.492.919,5.084a3.037,3.037,0,0,0,1.463.418,15.514,15.514,0,0,0-1.135,1.985,29.5,29.5,0,0,1-7.3-1.72c-6.755-2.786-29.174-9.054-35.685-4.645S459,305.268,466.236,323.013,476.842,341.2,476.842,341.2a25.767,25.767,0,0,1,5.787,5.815c2.173,3.266,22.418,10.739,27.481,10.739a49.571,49.571,0,0,1,6.442.32s-5.495,4.819-4.764,7.619-1.671,25.211-1.671,25.211,5.571,5.613,7.953-1.748l.084.111c.446.606,2.855,3.343,7.389-.111a41.424,41.424,0,0,1,5.892-3.733l21.952-3.106a62.132,62.132,0,0,1,6.874-.049c3.482.286,6.9-1.776,9.054-3.371,4.548,1.727,9.66,3.615,12.09,4.3,4.931,1.393,27.593,7.473,32.893,5.571a7.362,7.362,0,0,0,2.855-2.034l5.056.16-2.368.474s4.61.077,10.878.16l-.265.153,7.863-.07c11.505.1,24.431.139,26.13-.244,2.66-.592,16.485-.174,20.559,0h1.135s15.189-3.029,8.921-18.442c-4.819-11.839-19.633-15.28-26.207-16.227,1.853-.369,3.447-.655,4.506-.822,4.59-.7,13.5-4.875,14.228-6.3s8.2-5.572,10.126-7.932S705.154,318.556,700.579,306.18ZM574.768,340.814l-.745.244-.5.167-.961.947c-.766-.515-1.588-1.059-2.444-1.616C571.627,340.646,573.18,340.737,574.768,340.814Zm66.377,19.625Z" transform="translate(-202.656 -43.428)" fill="url(#a)"/><path d="M686.65,327.561s10.655,27.857,16.714,25.072,4.415-14.625,5.571-17.871,2.438-27.857,2.438-27.857.585-17.411,1.741-20.935c1.073-3.238,1.943-19.57,2.089-22.14v-.341l-1.149-20.2-6.5-1.623-15.085,5.571-2.089,11.93-.815,4.659-.348,1.985Z" transform="translate(-270.134 -103.607)" fill="#be6f72"/><path d="M691.69,358.3s10.168,8.322,13.232,9.054,4.945,7.222,4.945,7.222" transform="translate(-271.664 -139.012)" opacity="0.1"/><path d="M554.554,329.311s-10.655,27.857-16.714,25.072-4.415-14.625-5.571-17.871-2.437-27.857-2.437-27.857-.585-17.411-1.741-20.935c-1.073-3.238-1.943-19.57-2.089-22.14v-.341l1.156-20.2,6.5-1.623,15.085,5.571,2.089,11.93.815,4.659.348,1.985Z" transform="translate(-221.366 -104.138)" fill="#be6f72"/><rect width="23.783" height="37.071" transform="translate(378.791 76.094)" fill="#3e373a"/><rect width="23.783" height="37.071" transform="translate(378.791 76.094)" opacity="0.1"/><path d="M558.479,405.624s-8.127,8.935-5.112,10.558,22.523,32.036,22.523,32.036,64.072,7.891,76.155-3.949,11.839-32.99,11.839-32.99-9.708,2.089-10.767.954-6.874-6.609-6.874-6.609S564.051,400.638,558.479,405.624Z" transform="translate(-229.47 -152.705)" fill="#4b4b5b"/><path d="M558.479,405.624s-8.127,8.935-5.112,10.558,22.523,32.036,22.523,32.036,64.072,7.891,76.155-3.949,11.839-32.99,11.839-32.99-9.708,2.089-10.767.954-6.874-6.609-6.874-6.609S564.051,400.638,558.479,405.624Z" transform="translate(-229.47 -152.705)" opacity="0.02"/><path d="M666.223,216.48l-20.893,16.714-6.317.46-2.319.167-38.952,2.855-40.393-2.953-6.01-.439-7.661-.557L527.66,217.407a274.3,274.3,0,0,1,21.269-20.343c3.914-3.238,7.612-5.857,10.307-6.888l.46-.16a11.464,11.464,0,0,0,4.415-3.078C571.953,178.852,579.2,158.9,579.2,158.9s34.592-17.87,30.413,5.571,15.551,17.648,15.551,17.648l6.5,2.967,2.57,1.177,6.553,3,14.785,6.783C667.184,201.389,666.223,216.48,666.223,216.48Z" transform="translate(-221.87 -76.502)" fill="#be6f72"/><circle cx="31.11" cy="31.11" r="31.11" transform="translate(343.14 39.267)" opacity="0.1"/><path d="M665.767,255.027H526v-.341l1.156-20.2a274.3,274.3,0,0,1,21.269-20.343l87.751-3.482,4.081-4.3,14.785,6.783c11.609,5.335,10.676,20.426,10.676,20.426S667.307,251.057,665.767,255.027Z" transform="translate(-221.366 -92.888)" opacity="0.1"/><path d="M665.767,254.027H526v-.341l1.156-20.2a274.3,274.3,0,0,1,21.269-20.343l87.751-3.482,4.081-4.3,14.785,6.783c11.609,5.335,10.676,20.426,10.676,20.426S667.307,250.057,665.767,254.027Z" transform="translate(-221.366 -92.585)" fill="#e7c7ca"/><path d="M590,191.268s22.049,28.094,51.418-.578,3.252,63.954,3.252,63.954l-63.375,7.521Z" transform="translate(-238.15 -86.46)" opacity="0.1"/><path d="M590,193.268s22.049,28.094,51.418-.578,3.252,63.954,3.252,63.954l-63.375,7.521Z" transform="translate(-238.15 -87.067)" fill="#e7c7ca"/><path d="M641.456,202.5l2.333,35.581,2.5,11.839,1.908,9.054s4.875,69.643,3.482,73.126.7,6.268.989,8.12-.292,6.5-.063,8.594,0,3.016-5.335,2.27-12.773-2.041-12.773-2.041-18.8,1.393-25.3-.926-18.8-2.326-18.8-2.326-18.574.467-24.6-.23-9.29,7.431-13.232,5.1,4.638-24.835,7.424-31.34-3.712-22.982-3.712-22.982l8.357-46.362,1.86-10.509V206.434l.46-.16a11.463,11.463,0,0,0,4.415-3.078l2.089,33.248,65.465,2.326V201.35" transform="translate(-229.118 -91.367)" opacity="0.1"/><path d="M641.456,200.5l2.333,35.581,2.5,11.839,1.908,9.054s4.875,69.643,3.482,73.126.7,6.268.989,8.12-.292,6.5-.063,8.594,0,3.016-5.335,2.27-12.773-2.041-12.773-2.041-18.8,1.393-25.3-.926-18.8-2.326-18.8-2.326-18.574.467-24.6-.23-9.29,7.431-13.232,5.1,4.638-24.835,7.424-31.34-3.712-22.982-3.712-22.982l8.357-46.362,1.86-10.509V204.434l.46-.16a11.463,11.463,0,0,0,4.415-3.078l2.089,33.248,65.465,2.326V199.35" transform="translate(-229.118 -90.76)" fill="#e7c7ca"/><path d="M644.738,80.076a7.674,7.674,0,0,0-2.089-3.942,8.552,8.552,0,0,0-3.677-1.5,72.654,72.654,0,0,0-9.667-1.853,15.475,15.475,0,0,0-2.089-4.339c-6.825-9.639-16.923-18.727-28.8-20.782-6.219-1.079-13.427-.111-17.411,4.791-2.187,2.7-3.127,6.268-5.335,8.914-4.255,5.14-11.937,5.773-17.3,9.75-2.862,2.089-4.938,5.119-6.964,8.058-2.194,3.183-4.45,6.5-5.147,10.3-1.393,7.6,3.628,14.841,4.555,22.509,2.089,17.153-16.3,32.37-12.821,49.294,2.027,9.868,11.143,16.819,20.573,20.343,3.322,1.247,7.117,2.486,8.671,5.676.7,1.393.815,3,1.469,4.408,2.2,4.694,9.437,4.875,13.323,1.456s5.112-8.949,5.571-14.11c1.866-22.537-7.159-44.8-6.108-67.394.313-6.832,2.236-14.583,8.357-17.675,8.239-4.179,18.149,2.786,27.217,1.456a54,54,0,0,1,2.6,32.948c-1.442,6.01-3.935,11.839-4.116,18.038-.272,9.437,4.819,18.059,9.221,26.4a14.047,14.047,0,0,1,1.859,5.091,12.271,12.271,0,0,1-1,5.328c-2.486,6.693-6.776,12.9-7.264,20.029a3.239,3.239,0,0,0,.522,2.382,3,3,0,0,0,1.8.808c7.521,1.288,14.026-5.376,17.7-12.069a56.578,56.578,0,0,0,6.978-24.041c.759-14.179-4.325-28.129-4.011-42.322C641.716,111.889,649.007,95.641,644.738,80.076Z" transform="translate(-224.872 -44.591)" opacity="0.1"/><path d="M645.738,79.076a7.674,7.674,0,0,0-2.089-3.942,8.552,8.552,0,0,0-3.677-1.5,72.653,72.653,0,0,0-9.667-1.853,15.475,15.475,0,0,0-2.089-4.339c-6.825-9.639-16.923-18.727-28.8-20.782-6.219-1.079-13.427-.111-17.411,4.791-2.187,2.7-3.127,6.268-5.335,8.914-4.255,5.14-11.937,5.773-17.3,9.75-2.862,2.089-4.938,5.119-6.964,8.058-2.194,3.183-4.45,6.5-5.147,10.3-1.393,7.6,3.628,14.841,4.555,22.509,2.089,17.153-16.3,32.37-12.821,49.294,2.027,9.868,11.143,16.819,20.573,20.343,3.322,1.247,7.118,2.486,8.671,5.676.7,1.393.815,3,1.469,4.408,2.2,4.694,9.437,4.875,13.323,1.456s5.112-8.949,5.571-14.11c1.866-22.537-7.159-44.8-6.108-67.394.313-6.832,2.236-14.583,8.357-17.675,8.239-4.179,18.149,2.786,27.217,1.456a53.994,53.994,0,0,1,2.6,32.948c-1.442,6.01-3.935,11.839-4.116,18.038-.272,9.437,4.819,18.059,9.221,26.4a14.049,14.049,0,0,1,1.859,5.091,12.272,12.272,0,0,1-1,5.328c-2.486,6.693-6.776,12.9-7.264,20.029a3.238,3.238,0,0,0,.522,2.382,3,3,0,0,0,1.8.808c7.521,1.288,14.026-5.376,17.7-12.069a56.578,56.578,0,0,0,6.978-24.041c.759-14.179-4.325-28.129-4.011-42.322C642.716,110.889,650.007,94.641,645.738,79.076Z" transform="translate(-225.176 -44.287)" fill="#3e373a"/><path d="M581.79,484.185l27.628.884-3.963-20.489-21.165,2.013Z" transform="translate(-176.612 -141.036)" fill="#c3c7d9"/><path d="M737.334,447.6c-1.859,2.319-9.054,6.5-9.75,7.891s-9.284,5.571-13.7,6.268-18.337,3.719-20.893,5.342c-1.832,1.17-16.533,4.875-26.193,6.93a74.33,74.33,0,0,1-7.932,1.428c-4.179.23-49.906-15.322-49.906-15.322l8.817-9.054.487-.167c2.493-.843,14.012-4.736,20.406-6.588,7.2-2.089,15.558-10.676,15.558-10.676s12.3-4.179,13.929-4.645-4.179-16.248-4.179-16.248,26.694-3.705,37.141-6.846,34.592-1.978,39,10.328S739.221,445.284,737.334,447.6Z" transform="translate(-246.55 -153.017)" fill="#4b4b5b"/><path d="M592.92,512.025s-5.335,5.571-10.676,5.112-24.02,1.393-24.02,1.393a37.447,37.447,0,0,0-9.409,5.453c-4.367,3.44-6.686.7-7.118.111l-.077-.111c-2.326,7.32-7.661,1.741-7.661,1.741s2.319-22.286,1.609-25.072,4.589-7.57,4.589-7.57l6.268-1.595L562.3,487.42l22.753,7.891Z" transform="translate(-223.782 -178.209)" fill="#e7c7ca"/><path d="M546.4,493.26l-4.7,32.607-.077-.111c-2.326,7.32-7.661,1.741-7.661,1.741s2.319-22.286,1.609-25.072,4.589-7.57,4.589-7.57Z" transform="translate(-223.782 -179.981)" opacity="0.1"/><path d="M599,360.08s12.3,4.179,22.982,0" transform="translate(-243.526 -139.552)" opacity="0.1"/><path d="M659.29,371.42s5.1,2.549,9.054,0" transform="translate(-261.828 -142.995)" opacity="0.1"/><path d="M659.29,379.59s8.587,1.149,10.217-1.17" transform="translate(-261.828 -145.12)" opacity="0.1"/><path d="M655.29,396.625s16.129-2.089,20.134-4.875" transform="translate(-260.614 -149.166)" opacity="0.1"/><path d="M584.62,391.75s9.054,5.1,15.788,4.875" transform="translate(-239.161 -149.166)" opacity="0.1"/><path d="M666.789,494.295a74.35,74.35,0,0,1-7.932,1.428c-4.179.23-49.906-15.322-49.906-15.322l8.817-9.054.487-.167c1.393.982,2.535,1.825,3.35,2.465,3.837,3.023,7.542-.926,8.935-.926S644,482.7,644,482.7s11.143,2.556,13,4.875,8.357,1.859,9.513,3.482A6.213,6.213,0,0,1,666.789,494.295Z" transform="translate(-246.547 -173.279)" opacity="0.1"/><path d="M539.023,414.157s-11.268.648-17.766-2.089-28.087-9.054-34.355-4.617-21.36,8.357-14.4,26,10.217,18.107,10.217,18.107a25.141,25.141,0,0,1,5.571,5.78c2.089,3.252,21.589,10.676,26.465,10.676s13.462,0,25.531,8.357,22.982,9.29,22.982,9.29,15.322,6.268,20.092,7.661,26.569,7.424,31.681,5.571,8.357-13.469,8.357-13.469,2.319-10.447,1.156-12.069-7.661-1.163-9.513-3.482-13-4.875-13-4.875-12.041-9.987-13.434-9.987-5.1,3.942-8.935.926a203.835,203.835,0,0,0-24.034-15.322C546.823,435.977,539.023,414.157,539.023,414.157Z" transform="translate(-204.581 -153.467)" fill="#4b4b5b"/><path d="M536.27,427.3a13.3,13.3,0,0,1,11.415,3.016C553.256,434.963,572,444.289,572,444.289" transform="translate(-224.483 -159.877)" opacity="0.1"/><path d="M723.44,427s-24.842,3.761-29.48,8.866" transform="translate(-272.353 -159.867)" opacity="0.1"/><path d="M749.462,522.242h-1.093c-3.928-.139-17.237-.557-19.8,0-3.016.7-42.949,0-42.949,0l7.807-1.623s-2.9-10.154-1.059-11c0,0-10.446-6.881-2.57-11.526a24.435,24.435,0,0,1,16.366-2.688l19.772-6.7,3.8-1.288s22.286,1.163,28.317,16.485S749.462,522.242,749.462,522.242Z" transform="translate(-269.821 -178.208)" fill="#e7c7ca"/><path d="M767.036,522.257h-1.093c6.484-5.349,21.151-21.631-22.432-33.5l3.8-1.288s22.286,1.163,28.317,16.485S767.036,522.257,767.036,522.257Z" transform="translate(-287.394 -178.224)" opacity="0.1"/><circle cx="1.219" cy="1.219" r="1.219" transform="translate(437.451 323.544)" fill="#4b4b5b"/><circle cx="1.219" cy="1.219" r="1.219" transform="translate(430.368 325.557)" fill="#4b4b5b"/><g transform="translate(313.565 43.793)" opacity="0.1"><path d="M641.456,131.851a54.035,54.035,0,0,0-4-22.383c-9.054,1.351-18.971-5.634-27.217-1.456-6.1,3.092-8.016,10.843-8.357,17.675-.084,1.8-.1,3.608-.063,5.411,0-.641,0-1.288.063-1.929.32-6.832,2.236-14.583,8.357-17.675,8.246-4.179,18.149,2.786,27.217,1.456A53.89,53.89,0,0,1,641.456,131.851Z" transform="translate(-557.942 -106.417)"/><path d="M555.876,131.186a23.215,23.215,0,0,0-.091-4.555c-.738-6.129-4.088-11.986-4.694-17.961-.78,7.208,3.809,14.131,4.694,21.443A4.353,4.353,0,0,1,555.876,131.186Z" transform="translate(-542.52 -107.026)"/><path d="M588.874,221.812c-.432,5.168-1.651,10.69-5.571,14.117s-11.143,3.238-13.323-1.456c-.7-1.393-.8-3.016-1.476-4.408-1.546-3.19-5.349-4.429-8.671-5.676-9.437-3.531-18.539-10.447-20.566-20.343a21.376,21.376,0,0,1-.369-2.716,21.95,21.95,0,0,0,.369,6.2c2.027,9.868,11.143,16.812,20.566,20.343,3.322,1.247,7.125,2.486,8.671,5.676.7,1.393.815,3,1.476,4.408,2.194,4.694,9.43,4.875,13.323,1.456s5.1-8.949,5.571-14.117a79.585,79.585,0,0,0,.216-8.176C589.089,218.7,589,220.259,588.874,221.812Z" transform="translate(-538.823 -135.155)"/><path d="M687.93,141.953v3.016c.39-12.954,5.14-25.977,4.673-38.659C692.241,118.038,688.195,130.031,687.93,141.953Z" transform="translate(-584.087 -106.31)"/><path d="M661.708,218.951a8.978,8.978,0,0,0,.16-2.514,13.928,13.928,0,0,0-1.859-5.091c-4.025-7.661-8.615-15.5-9.158-24.006,0,.362-.049.7-.056,1.086-.279,9.43,4.812,18.059,9.214,26.4a16.718,16.718,0,0,1,1.7,4.123Z" transform="translate(-572.811 -130.908)"/><path d="M681.869,217.653a56.671,56.671,0,0,1-7.027,24.041c-3.677,6.693-10.175,13.358-17.7,12.069a2.96,2.96,0,0,1-1.8-.815,1.741,1.741,0,0,1-.327-.543c-.084.543-.153,1.093-.2,1.651a3.21,3.21,0,0,0,.522,2.375,2.96,2.96,0,0,0,1.8.815c7.528,1.288,14.026-5.376,17.7-12.069a56.67,56.67,0,0,0,7.027-24.041c.084-1.63.091-3.252.042-4.875C681.9,216.727,681.9,217.186,681.869,217.653Z" transform="translate(-574.021 -139.687)"/></g><path d="M695.31,515.39s17.627,7.4,29.25-8.97" transform="translate(-272.763 -183.976)" fill="none" stroke="#000" stroke-miterlimit="10" stroke-width="1" opacity="0.1"/><path d="M700.29,536.006s14.4-9.36,32.732-.306" transform="translate(-274.274 -191.667)" fill="none" stroke="#000" stroke-miterlimit="10" stroke-width="1" opacity="0.1"/><path d="M561.93,531.695s6.045-13.636,22.188-3.238" transform="translate(-232.273 -189.479)" fill="none" stroke="#000" stroke-miterlimit="10" stroke-width="1" opacity="0.1"/><path d="M533.79,239.311l12.327-11.143s47.8-3.134,49.774,13.114c0,0,16.944-19.263,52.581-14.973l15.078,12.007L621.875,256.6l-40.5,14.047L551.549,257.3Z" transform="translate(-223.731 -98.755)" opacity="0.1"/><path d="M533.79,240.311l12.327-11.143s47.8-3.134,49.774,13.114c0,0,16.944-19.263,52.581-14.973l15.078,12.007L621.875,257.6l-40.5,14.047L551.549,258.3Z" transform="translate(-223.731 -99.058)" fill="#d5d6db"/><path d="M437.38,204.83l5.453,65.235,57.8,2.9-2.507-64.956-.049-1.093Z" transform="translate(-132.774 -62.185)" opacity="0.1"/><path d="M437.38,202.83l5.453,65.235,57.8,2.9-2.507-64.956-.049-1.093Z" transform="translate(-132.774 -61.578)" fill="#6c63ff"/><path d="M609.339,202.83l-59.629,8.942V277.3l58.271-8.42Z" transform="translate(-166.873 -61.578)" opacity="0.1"/><path d="M609.339,200.83l-59.629,8.942V275.3l58.271-8.42Z" transform="translate(-166.873 -60.97)" fill="#6c63ff"/><path d="M601.1,223.79l-32.21,3.58.7,10.976,31.486-3.44Z" transform="translate(-172.696 -67.94)" fill="#fff" opacity="0.3"/><path d="M537.68,364.756l3.28,8.824s4.875,4.179,10.21,2.089,9.987-3.127,12.306-5.161,5.571-12.25,5.571-12.25,3.252-11.143,6.5-13.929,11.839-41.166,0-37.412-20.893,38.575-20.893,38.575a8.258,8.258,0,0,1-5.1,2.786c-3.016.237-9.054-.467-10.217,2.089S534.2,359.651,537.68,364.756Z" transform="translate(-224.487 -123.336)" fill="#be6f72"/><path d="M630.667,257.18a20.057,20.057,0,0,1-17.487-4.36l2.514,64.949a17.725,17.725,0,0,0,14.973,4.945Z" transform="translate(-247.831 -106.992)" opacity="0.1"/><path d="M630.667,255.18a20.057,20.057,0,0,1-17.487-4.36l2.514,64.949a17.725,17.725,0,0,0,14.973,4.945Z" transform="translate(-247.831 -106.385)" fill="#6c63ff"/><path d="M630.667,255.18a20.057,20.057,0,0,1-17.487-4.36l2.514,64.949a17.725,17.725,0,0,0,14.973,4.945Z" transform="translate(-247.831 -106.385)" opacity="0.1"/><path d="M640.29,243.748s24.257-7.417,30.58-6.372" transform="translate(-256.06 -102.273)" opacity="0.1"/><path d="M589.37,240.057s-23.512-5.571-27.44-3.991" transform="translate(-232.273 -101.821)" opacity="0.1"/><path d="M662.25,246.208s16.22-5.948,22.084-3.12" transform="translate(-262.727 -103.806)" opacity="0.1"/><path d="M650.52,456.812a53.322,53.322,0,0,1,8-4.966,130.442,130.442,0,0,0,11.839-7.236" transform="translate(-259.166 -165.213)" opacity="0.1"/><path d="M554.007,360.08s-10.175,8.322-13.232,9.054-4.945,7.222-4.945,7.222" transform="translate(-224.35 -139.552)" opacity="0.1"/><path d="M696.185,362.985l-3.245,8.845s-4.875,4.179-10.217,2.089-9.98-3.127-12.306-5.161-5.571-12.25-5.571-12.25-3.245-11.143-6.5-13.929-11.839-41.166,0-37.412,20.893,38.575,20.893,38.575a8.258,8.258,0,0,0,5.1,2.786c3.016.237,9.054-.467,10.217,2.089S699.667,357.9,696.185,362.985Z" transform="translate(-259.702 -122.804)" fill="#be6f72"/><path d="M707.15,364.94s6.651,4.276,6.623,9.388" transform="translate(-276.357 -141.028)" opacity="0.1"/><circle cx="31.11" cy="31.11" r="31.11" transform="translate(343.251 37.741)" fill="#be6f72"/><path d="M591.355,116c3.775-.592,7.083-2.786,10.69-4.046,8.072-2.834,17-.891,25.169,1.664,3.134.982,6.317,2.089,9.6,2.089s6.776-1.344,8.455-4.179c1.546-2.6,1.247-5.989-.056-8.726a24.576,24.576,0,0,0-5.683-7.013c-7.243-6.839-16.227-13.232-26.165-12.536a36.01,36.01,0,0,0-11.5,3.294,126.752,126.752,0,0,0-13.5,6.8c-3.35,1.943-9.555,4.541-11.484,8.093C572.5,109.443,584.53,117.076,591.355,116Z" transform="translate(-236.529 -55.503)" fill="#3e373a"/><path d="M645.272,117.276c-1.678,2.834-5.167,4.179-8.455,4.179s-6.47-1.066-9.611-2.048c-8.169-2.556-17.091-4.506-25.169-1.664-3.6,1.261-6.916,3.482-10.69,4.039-5.5.864-14.36-3.928-15.322-10.022-1.079,7.041,9.193,13.072,15.322,12.111,3.775-.592,7.09-2.786,10.69-4.039,8.079-2.841,17-.891,25.169,1.664,3.141.982,6.317,2.089,9.611,2.048s6.776-1.337,8.455-4.179a8.155,8.155,0,0,0,.975-5.091,7.508,7.508,0,0,1-.975,3Z" transform="translate(-236.528 -64.171)" opacity="0.1"/><path d="M1033.046,661.63s4.13,5.4-1.908,13.553-11.011,15.036-9,20.12c0,0,9.109-15.141,16.519-15.356S1041.188,670.732,1033.046,661.63Z" transform="translate(-371.838 -231.093)" fill="#6c63ff"/><path d="M1033.149,661.63a6.691,6.691,0,0,1,.843,1.692c7.229,8.5,11.087,16.429,4.13,16.624-6.477.188-14.242,11.77-16.1,14.688a6.829,6.829,0,0,0,.216.7s9.109-15.14,16.519-15.356S1041.29,670.732,1033.149,661.63Z" transform="translate(-371.941 -231.093)" opacity="0.1"/><path d="M1048.584,670.98c0,1.9-.216,3.44-.474,3.44s-.48-1.539-.48-3.44.265-1,.529-1S1048.584,669.079,1048.584,670.98Z" transform="translate(-379.715 -233.562)" fill="#ffd037"/><path d="M1051.372,674.186c-1.664.905-3.12,1.456-3.245,1.226s1.121-1.156,2.786-2.089,1.01-.251,1.135,0S1053.043,673.274,1051.372,674.186Z" transform="translate(-379.863 -234.498)" fill="#ffd037"/><path d="M1002.623,661.63s-4.13,5.4,1.908,13.553,11.011,15.036,9,20.12c0,0-9.1-15.141-16.519-15.356S994.5,670.732,1002.623,661.63Z" transform="translate(-363.24 -231.093)" fill="#6c63ff"/><path d="M1002.623,661.63a6.683,6.683,0,0,0-.843,1.692c-7.229,8.5-11.087,16.429-4.13,16.624,6.47.188,14.242,11.77,16.1,14.688a5.377,5.377,0,0,1-.223.7s-9.1-15.14-16.519-15.356S994.5,670.732,1002.623,661.63Z" transform="translate(-363.24 -231.093)" opacity="0.1"/><path d="M995.64,670.98c0,1.9.209,3.44.474,3.44s.481-1.539.481-3.44-.272-1-.529-1S995.64,669.079,995.64,670.98Z" transform="translate(-363.932 -233.562)" fill="#ffd037"/><path d="M991.418,674.186c1.664.905,3.12,1.456,3.245,1.226s-1.121-1.156-2.786-2.089-1.01-.251-1.135,0S989.747,673.274,991.418,674.186Z" transform="translate(-362.343 -234.498)" fill="#ffd037"/><ellipse cx="43.179" cy="6.623" rx="43.179" ry="6.623" transform="translate(607.116 492.276)" fill="#6c63ff" opacity="0.1"/><path d="M1034.86,698.431l-.209,1.685-.293,2.382-.118,1-.292,2.382-.125,1-.286,2.375-3.308,27.091c-.292,2.417-4.241,4.3-9.012,4.3h-17.167c-4.771,0-8.712-1.887-9.012-4.3l-3.308-27.091-.292-2.375-.118-1-.292-2.382-.125-1-.286-2.382-.209-1.685c-.16-1.393,1.971-2.521,4.673-2.521h35.114C1032.889,695.91,1035.027,697.059,1034.86,698.431Z" transform="translate(-362.341 -241.499)" fill="#65617d"/><path d="M946.166,658.53l-.286,2.382H902.422l-.292-2.382Z" transform="translate(-273.856 -199.913)" fill="#9d9cb5"/><path d="M945.934,663.38l-.286,2.382H903.012l-.292-2.382Z" transform="translate(-274.035 -201.385)" fill="#9d9cb5"/><path d="M945.7,668.23l-.292,2.382H903.606l-.286-2.382Z" transform="translate(-274.217 -202.857)" fill="#9d9cb5"/></g></svg>