<svg xmlns="http://www.w3.org/2000/svg" xmlns:xlink="http://www.w3.org/1999/xlink" viewBox="0 0 690.98 508.494"><defs><style>.a,.e,.g{fill:#6c63ff;}.a,.c,.k{opacity:0.1;}.b{fill:#d0d2d5;}.d,.l{fill:#444053;}.f{fill:#fff;}.g{opacity:0.3;}.h,.m{fill:#3f3d56;}.h{opacity:0.2;}.i{fill:#ee8e9e;}.j{fill:#454b69;}.l{opacity:0.6;}.n{fill:url(#a);}.o{fill:#a26565;}.p{fill:#efb7b9;}</style><linearGradient id="a" x1="0.5" y1="1" x2="0.5" gradientUnits="objectBoundingBox"><stop offset="0" stop-color="gray" stop-opacity="0.251"/><stop offset="0.54" stop-color="gray" stop-opacity="0.122"/><stop offset="1" stop-color="gray" stop-opacity="0.102"/></linearGradient></defs><g transform="translate(-0.001 -0.005)"><path class="a" d="M436.473,110.47c-44.3-1.535-86.49-15.844-126.776-31.486s-80.2-32.978-123.431-41.27c-27.811-5.332-59.615-6.072-82.02,8.824-21.568,14.346-28.532,39.136-32.275,62.1-2.819,17.293-4.476,35.467,3.241,51.678,5.363,11.233,14.884,20.681,21.47,31.443,22.9,37.46,6.726,83.647-18.113,120.214-11.618,17.159-25.151,33.522-34.134,51.788s-13.141,39.185-5.283,57.811c7.8,18.467,26.362,32.336,46.474,42.089,40.854,19.813,89,25.487,135.942,28.7,103.924,7.081,208.4,4.024,312.591.966,38.561-1.143,77.287-2.3,115.224-8.261,21.06-3.308,42.8-8.561,58.092-21.25,19.415-16.107,24.228-43.38,11.215-63.6-21.818-33.871-82.155-42.285-97.405-78.639-8.4-20.008.226-42.3,12.426-60.856,26.172-39.815,70.041-74.737,72.352-120.245,1.59-31.254-19.5-62.556-52.106-77.342-34.183-15.5-81.574-13.551-106.792,12.108C521.214,101.664,475.584,111.827,436.473,110.47Z" transform="translate(-35 -34.22)"/><path class="b" d="M588.422,720.925,469.18,719.4l.349-3.057,5.766-50.449H580.014l7.7,50.449.587,3.822Z" transform="translate(-182.277 -258.698)"/><path class="c" d="M588.306,752.212H528.8l-59.621-.764.349-3.057h118.19Z" transform="translate(-182.277 -290.749)"/><rect class="b" width="158.225" height="3.822" transform="translate(267.029 458.405)"/><path class="d" d="M683.981,198.238a9.949,9.949,0,0,0-9.9-10H232.206a9.949,9.949,0,0,0-9.906,10V466.074H683.981Z" transform="translate(-107.766 -94.055)"/><path class="b" d="M222.3,638.24v31.37a9.906,9.906,0,0,0,9.906,9.906H674.081a9.906,9.906,0,0,0,9.9-9.906V638.24Z" transform="translate(-107.766 -268.881)"/><rect class="a" width="425.755" height="240.777" transform="translate(133.643 111.001)"/><path class="e" d="M597.01,673.192a10.328,10.328,0,0,0,8.121-3.938h0a10.533,10.533,0,0,0,.8-1.18l-5.662-.93,6.115.049a10.3,10.3,0,0,0,.2-8.182l-8.212,4.28,7.576-5.565A10.316,10.316,0,1,0,588.9,669.272h0A10.316,10.316,0,0,0,597.01,673.192Z" transform="translate(-249.342 -274.463)"/><path class="c" d="M585.43,671.52,633,719.29l-7.3-47.77Z" transform="translate(-227.441 -260.885)"/><rect class="f" width="279.454" height="167.55" rx="2.6" transform="translate(146.148 154.442)"/><rect class="f" width="425.602" height="14.064" transform="translate(133.918 111.025)"/><rect class="e" width="12.23" height="8.561" rx="0.78" transform="translate(135.753 113.471)"/><rect class="g" width="128.415" height="8.561" rx="0.58" transform="translate(281.289 113.471)"/><path class="d" d="M695.67,225.5h-.312l-.116-.1a2.6,2.6,0,0,0,.611-1.663,2.532,2.532,0,1,0-2.526,2.55,2.611,2.611,0,0,0,1.663-.612l.116.1v.318l1.957,1.957.612-.611Zm-2.348,0a1.767,1.767,0,1,1,1.761-1.761,1.749,1.749,0,0,1-1.761,1.761Z" transform="translate(-289.776 -106.872)"/><circle class="e" cx="4.28" cy="4.28" r="4.28" transform="translate(549.125 113.471)"/><rect class="f" width="39.747" height="26.906" rx="2.43" transform="translate(445.782 140.377)"/><rect class="f" width="51.366" height="4.28" rx="0.61" transform="translate(495.925 140.377)"/><rect class="f" width="51.366" height="4.28" rx="0.61" transform="translate(495.925 149.55)"/><rect class="f" width="51.366" height="4.28" rx="0.61" transform="translate(495.925 158.722)"/><rect class="f" width="39.747" height="26.906" rx="2.43" transform="translate(445.782 182.571)"/><rect class="f" width="51.366" height="4.28" rx="0.61" transform="translate(495.925 182.571)"/><rect class="f" width="51.366" height="4.28" rx="0.61" transform="translate(495.925 191.743)"/><rect class="f" width="51.366" height="4.28" rx="0.66" transform="translate(495.925 200.916)"/><rect class="f" width="39.747" height="26.906" rx="2.43" transform="translate(445.782 224.764)"/><rect class="f" width="51.366" height="4.28" rx="0.66" transform="translate(495.925 224.764)"/><rect class="f" width="51.366" height="4.28" rx="0.66" transform="translate(495.925 233.936)"/><rect class="f" width="51.366" height="4.28" rx="0.66" transform="translate(495.925 243.109)"/><rect class="f" width="39.747" height="26.906" rx="2.43" transform="translate(445.782 266.957)"/><rect class="f" width="51.366" height="4.28" rx="0.66" transform="translate(495.925 266.957)"/><rect class="f" width="51.366" height="4.28" rx="0.66" transform="translate(495.925 276.13)"/><rect class="f" width="51.366" height="4.28" rx="0.66" transform="translate(495.925 285.302)"/><rect class="f" width="39.747" height="26.906" rx="2.43" transform="translate(445.782 309.151)"/><rect class="f" width="51.366" height="4.28" rx="0.66" transform="translate(495.925 309.151)"/><rect class="f" width="51.366" height="4.28" rx="0.66" transform="translate(495.925 318.323)"/><rect class="f" width="51.366" height="4.28" rx="0.66" transform="translate(495.925 327.496)"/><rect class="a" width="62.88" height="3.259" transform="translate(186.458 198.843)"/><rect class="a" width="6.054" height="17.232" transform="translate(192.047 181.611)"/><rect class="a" width="6.054" height="17.232" transform="translate(200.896 181.611)"/><rect class="a" width="6.054" height="17.232" transform="translate(209.744 181.611)"/><rect class="a" width="6.054" height="17.232" transform="translate(218.592 181.611)"/><rect class="a" width="6.054" height="17.232" transform="translate(227.441 181.611)"/><rect class="a" width="6.054" height="17.232" transform="translate(236.295 181.611)"/><rect class="a" width="6.054" height="1.865" transform="translate(192.047 184.87)"/><rect class="a" width="6.054" height="1.865" transform="translate(200.896 184.87)"/><rect class="a" width="6.054" height="1.865" transform="translate(209.744 184.87)"/><rect class="a" width="6.054" height="1.865" transform="translate(218.592 184.87)"/><rect class="a" width="6.054" height="1.865" transform="translate(227.441 184.87)"/><rect class="a" width="6.054" height="1.865" transform="translate(236.295 184.87)"/><rect class="a" width="6.054" height="1.865" transform="translate(192.047 193.254)"/><rect class="a" width="6.054" height="1.865" transform="translate(200.896 193.254)"/><rect class="a" width="6.054" height="1.865" transform="translate(209.744 193.254)"/><rect class="a" width="6.054" height="1.865" transform="translate(218.592 193.254)"/><rect class="a" width="6.054" height="1.865" transform="translate(227.441 193.254)"/><rect class="a" width="6.054" height="1.865" transform="translate(236.295 193.254)"/><rect class="a" width="62.88" height="3.259" transform="translate(324.32 207.226)"/><rect class="a" width="6.054" height="17.232" transform="translate(329.909 189.994)"/><rect class="a" width="6.054" height="17.232" transform="translate(338.758 189.994)"/><rect class="a" width="6.054" height="17.232" transform="translate(347.606 189.994)"/><rect class="a" width="6.054" height="17.232" transform="translate(356.461 189.994)"/><rect class="a" width="6.054" height="17.232" transform="translate(365.309 189.994)"/><rect class="a" width="6.054" height="17.232" transform="translate(374.157 189.994)"/><rect class="a" width="6.054" height="1.865" transform="translate(329.909 193.254)"/><rect class="a" width="6.054" height="1.865" transform="translate(338.758 193.254)"/><rect class="a" width="6.054" height="1.865" transform="translate(347.606 193.254)"/><rect class="a" width="6.054" height="1.865" transform="translate(356.461 193.254)"/><rect class="a" width="6.054" height="1.865" transform="translate(365.309 193.254)"/><rect class="a" width="6.054" height="1.865" transform="translate(374.157 193.254)"/><rect class="a" width="6.054" height="1.865" transform="translate(329.909 201.637)"/><rect class="a" width="6.054" height="1.865" transform="translate(338.758 201.637)"/><rect class="a" width="6.054" height="1.865" transform="translate(347.606 201.637)"/><rect class="a" width="6.054" height="1.865" transform="translate(356.461 201.637)"/><rect class="a" width="6.054" height="1.865" transform="translate(365.309 201.637)"/><rect class="a" width="6.054" height="1.865" transform="translate(374.157 201.637)"/><rect class="a" width="62.88" height="3.259" transform="translate(324.32 230.977)"/><rect class="a" width="6.054" height="17.232" transform="translate(329.909 213.745)"/><rect class="a" width="6.054" height="17.232" transform="translate(338.758 213.745)"/><rect class="a" width="6.054" height="17.232" transform="translate(347.606 213.745)"/><rect class="a" width="6.054" height="17.232" transform="translate(356.461 213.745)"/><rect class="a" width="6.054" height="17.232" transform="translate(365.309 213.745)"/><rect class="a" width="6.054" height="17.232" transform="translate(374.157 213.745)"/><rect class="a" width="6.054" height="1.865" transform="translate(329.909 217.004)"/><rect class="a" width="6.054" height="1.865" transform="translate(338.758 217.004)"/><rect class="a" width="6.054" height="1.865" transform="translate(347.606 217.004)"/><rect class="a" width="6.054" height="1.865" transform="translate(356.461 217.004)"/><rect class="a" width="6.054" height="1.865" transform="translate(365.309 217.004)"/><rect class="a" width="6.054" height="1.865" transform="translate(374.157 217.004)"/><rect class="a" width="6.054" height="1.865" transform="translate(329.909 225.388)"/><rect class="a" width="6.054" height="1.865" transform="translate(338.758 225.388)"/><rect class="a" width="6.054" height="1.865" transform="translate(347.606 225.388)"/><rect class="a" width="6.054" height="1.865" transform="translate(356.461 225.388)"/><rect class="a" width="6.054" height="1.865" transform="translate(365.309 225.388)"/><rect class="a" width="6.054" height="1.865" transform="translate(374.157 225.388)"/><path class="a" d="M400.747,402.624a17.4,17.4,0,0,1-1.284-1.889l9.056-1.486-9.784.073a16.547,16.547,0,0,1-.318-13.074l13.117,6.8-12.114-8.9a16.51,16.51,0,1,1,27.254,18.467,16.046,16.046,0,0,1,1.883,3.009L416.8,411.735l12.53-4.2a16.51,16.51,0,0,1-2.66,15.477,16.51,16.51,0,1,1-25.927,0,16.511,16.511,0,0,1,0-20.406Z" transform="translate(-175.715 -166.926)"/><path class="a" d="M430.208,436.185a16.445,16.445,0,0,1-3.536,10.189,16.51,16.51,0,1,1-25.926,0C398.526,443.578,430.208,434.333,430.208,436.185Z" transform="translate(-175.714 -190.288)"/><path class="h" d="M424.6,500.892a1.55,1.55,0,0,1,.079.135h-5.6c.031-.043.049-.092.079-.135a5.424,5.424,0,0,1-.722-2.758,5.663,5.663,0,0,1,.336-1.945h0c.312.049.7.1,1.143.153a19.632,19.632,0,0,0,3.907,0q.563-.055,1.156-.147a.055.055,0,0,0,0,.031,5.5,5.5,0,0,1,.33,1.914A5.425,5.425,0,0,1,424.6,500.892Z" transform="translate(-183.967 -213.694)"/><path class="a" d="M367.549,465.309H336.362c-.067-.177-.128-.367-.183-.55a16.419,16.419,0,0,1,.361-10.787,16.51,16.51,0,0,1-6.023-19.5,15.794,15.794,0,0,1-1.779-1.425l8.206-4.091-9.331,2.96a16.511,16.511,0,0,1-4.158-12.4l14.56,2.629-14.2-4.935a16.51,16.51,0,1,1,31.486,9.6,16.728,16.728,0,0,1,2.709,2.354l-9.429,9.3,10.732-7.717a16.51,16.51,0,0,1,2.03,15.593,16.51,16.51,0,0,1,6.207,18.963Z" transform="translate(-147.042 -177.977)"/><path class="a" d="M375.2,485.1H344.013c-.067-.177-.128-.367-.183-.55a16.418,16.418,0,0,1,.361-10.787c-2.935-2.03,24.6-20.222,25.145-18.449a16.437,16.437,0,0,1-.361,10.793A16.511,16.511,0,0,1,375.2,485.1Z" transform="translate(-154.693 -197.766)"/><path class="a" d="M593.817,451.7a16.449,16.449,0,0,1-8.261,6.947,16.749,16.749,0,0,1,.067,3.547l-13.214-.795,12.909,2.8a16.509,16.509,0,0,1-1.969,4.99,16.247,16.247,0,0,1-4.4,4.831h-17.99v.471H542.61c.037-.159.073-.312.116-.471a16.51,16.51,0,0,1,10.059-11.2,16.511,16.511,0,0,1,10.475-17.513,16.732,16.732,0,0,1-.135-2.281l8.53,3.369-8.439-4.959a16.51,16.51,0,0,1,6.476-11.362l7.772,12.585-5.828-13.857A16.51,16.51,0,0,1,593.817,451.7Z" transform="translate(-232.207 -186.714)"/><path class="a" d="M583.348,491.6a16.247,16.247,0,0,1-4.4,4.831h-17.99v.471H542.61c.037-.159.073-.312.116-.471a16.51,16.51,0,0,1,10.059-11.2c-.153-1.223,3.4-1.039,8.139-.245C570.213,486.546,583.978,490.545,583.348,491.6Z" transform="translate(-232.207 -209.096)"/><path class="i" d="M479.062,423.6s2.263,12.23-2.788,16.223,4.28,27.927,19.678,25.133,21.671-22.87,21.671-22.87-15.422-3.192-9.7-19.415Z" transform="translate(-205.9 -185.132)"/><path class="c" d="M479.062,423.6s2.263,12.23-2.788,16.223,4.28,27.927,19.678,25.133,21.671-22.87,21.671-22.87-15.422-3.192-9.7-19.415Z" transform="translate(-205.9 -185.132)"/><circle class="i" cx="25.53" cy="25.53" r="25.53" transform="translate(261.263 196.384)"/><path class="e" d="M519.051,464.893v17.354h-84.3V465.682a10.689,10.689,0,0,1,6.525-9.845l2.415-1.027c6.115-2.6,13.545-5.84,15.972-7.185a4,4,0,0,0,.746-.483c1.327-1.327,1.064.4,1.064.4s-.037.33-.061.9c-.147,3.907.416,19.262,18.412,17.984,17.556-1.223,18.345-13.1,18.168-16.59a9.46,9.46,0,0,0-.079-.966,22.68,22.68,0,0,1,3.553,1.162c3.669,1.358,9.087,3.534,10.536,4.562.452.318,1,.648,1.6.984a10.536,10.536,0,0,1,1.9,1.351,10.708,10.708,0,0,1,3.553,7.968Z" transform="translate(-190.304 -194.444)"/><path class="c" d="M517.283,450.027c-1.486,6.885-6.152,19.782-22.968,20.118-17.917.355-18.956-17.464-18.84-22.521a3.614,3.614,0,0,0,.752-.483c1.333-1.327,1.064.4,1.064.4s-2.256,20.345,18.345,18.883,18.07-17.55,18.07-17.55A25.114,25.114,0,0,1,517.283,450.027Z" transform="translate(-206.123 -194.444)"/><path class="j" d="M453.483,372.719a4.372,4.372,0,0,1,4.6,1.682,8.345,8.345,0,0,1,1.186,4.378c1.107.232,1.731-1.021,1.835-1.969.41-3.859.44-7.79,1.737-11.521a13.752,13.752,0,0,1,8.475-8.763,9.833,9.833,0,0,1,4.629-.44c.923.153,1.792.477,2.709.611,3.18.526,6.635-.978,9.613.067a7.665,7.665,0,0,1,3.932,3.706,8,8,0,0,0,1.529,2.22c1.266,1.137,3.247,1.431,5.063,1.786s3.8.972,4.574,2.373c.7,1.266.183,2.727-.049,4.1a10.041,10.041,0,0,0,1.033,6.341c.336.611,1.021,1.351,1.835,1.15a1.608,1.608,0,0,0,.868-.7c2.085-2.923,2.03-6.726,4.647-9.362.874-.881,2.006-1.565,2.856-2.446a5.552,5.552,0,0,0,1.48-5.039c-.471-2.018-2.085-3.669-3.388-5.442a21.4,21.4,0,0,1-3.626-7.528,1.364,1.364,0,0,1,0-.984,2.623,2.623,0,0,1,.929-.758,3.51,3.51,0,0,0,1.186-4.482,7.473,7.473,0,0,0-4.2-3.345,27.393,27.393,0,0,0-5.73-1.223,3.116,3.116,0,0,1-3.186-1.572c-.177-.459-.177-.954-.355-1.413a3.241,3.241,0,0,0-2.446-1.712,7.155,7.155,0,0,0-3.271.232c-1.223.342-2.611.856-3.669.257-.556-.312-.862-.881-1.461-1.137-1.223-.514-2.483.526-3.357,1.382a8.17,8.17,0,0,1-3.027,2.036,4.506,4.506,0,0,1-3.755-.251,11.852,11.852,0,0,1-1.926-2.067,7.252,7.252,0,0,0-4.556-1.835,16.039,16.039,0,0,0-5.143.563,31.052,31.052,0,0,0-9.032,3.791,9.7,9.7,0,0,0-3.467,3.223,7.339,7.339,0,0,0-.777,3.32,11.983,11.983,0,0,0,4.189,9.949c-1.908.795-2.55,2.746-3,4.476a24.5,24.5,0,0,0-1.162,8.384,18.413,18.413,0,0,1,.318,4.36,9.393,9.393,0,0,0-.281,2.085,2,2,0,0,0,1.633,1.523Z" transform="translate(-196.91 -149.527)"/><g class="k" transform="translate(254.884 190.704)"><path d="M548.3,378a5.967,5.967,0,0,1-1.1,1.627c-.85.893-1.981,1.584-2.856,2.446-2.617,2.617-2.562,6.445-4.647,9.368a1.571,1.571,0,0,1-.868.7c-.795.208-1.48-.514-1.834-1.15a10.518,10.518,0,0,1-.911-2.446l-.122.611A10.041,10.041,0,0,0,537,395.495c.336.611,1.021,1.351,1.835,1.15a1.608,1.608,0,0,0,.868-.7c2.085-2.923,2.03-6.726,4.647-9.362.875-.881,2.006-1.565,2.856-2.446a5.553,5.553,0,0,0,1.48-5.039A6.57,6.57,0,0,0,548.3,378Z" transform="translate(-484.457 -358.481)"/><path d="M546.261,347.973a2.561,2.561,0,0,0-.93.758,1.351,1.351,0,0,0,0,.978,20.668,20.668,0,0,0,.923,2.788h0a3.51,3.51,0,0,0,1.186-4.482,4.277,4.277,0,0,0-.428-.715A3.521,3.521,0,0,1,546.261,347.973Z" transform="translate(-488.114 -346.554)"/><path d="M456.038,353.167a11.337,11.337,0,0,1-4.005-7.087,9.551,9.551,0,0,0-.183,1.663,12.731,12.731,0,0,0,2.012,7.564A4.281,4.281,0,0,1,456.038,353.167Z" transform="translate(-451.824 -346.08)"/><path d="M503.419,379.434c.232-1.376.746-2.837.049-4.1-.777-1.406-2.758-2.018-4.574-2.373s-3.8-.654-5.063-1.786a8,8,0,0,1-1.529-2.22,7.572,7.572,0,0,0-3.932-3.706c-2.978-1.046-6.433.453-9.613-.067-.917-.153-1.786-.471-2.709-.611a9.784,9.784,0,0,0-4.629.44,13.78,13.78,0,0,0-8.475,8.763c-1.3,3.724-1.327,7.656-1.737,11.521-.1.942-.728,2.2-1.835,1.969a8.412,8.412,0,0,0-1.186-4.384,4.372,4.372,0,0,0-4.6-1.676,2.238,2.238,0,0,1-1.29-.826,7.087,7.087,0,0,1,0,1.688,9.4,9.4,0,0,0-.281,2.085,2,2,0,0,0,1.6,1.572,4.372,4.372,0,0,1,4.6,1.682,8.344,8.344,0,0,1,1.186,4.378c1.107.232,1.731-1.021,1.835-1.969.41-3.859.44-7.79,1.737-11.521a13.752,13.752,0,0,1,8.475-8.763,9.833,9.833,0,0,1,4.629-.44c.923.153,1.792.477,2.709.612,3.18.526,6.635-.978,9.613.067a7.665,7.665,0,0,1,3.932,3.706,8,8,0,0,0,1.529,2.22c1.266,1.137,3.247,1.431,5.063,1.786s3.669.929,4.482,2.226A.528.528,0,0,1,503.419,379.434Z" transform="translate(-451.893 -353.225)"/><path d="M452.193,383.666a11.619,11.619,0,0,0-.2-3.406,15.172,15.172,0,0,0-.116,3.571,6.505,6.505,0,0,0,.11.911C452.052,384.381,452.144,384.027,452.193,383.666Z" transform="translate(-451.819 -359.359)"/></g><path class="d" d="M403.49,538.007V526.97a.312.312,0,0,1,.312-.312h1.254a.312.312,0,0,1,.312.312v4.592l5.088-4.715a.832.832,0,0,1,1.364.611v10a.832.832,0,0,1-1.364.612l-5.088-4.684v4.568a.312.312,0,0,1-.312.312H403.8A.312.312,0,0,1,403.49,538.007Z" transform="translate(-178.159 -225.53)"/><path class="d" d="M599.24,526.982V538.02a.312.312,0,0,1-.318.312H597.7a.312.312,0,0,1-.312-.312v-4.592l-5.088,4.708a.838.838,0,0,1-1.37-.611V527.49a.838.838,0,0,1,1.37-.612l5.088,4.684V527a.312.312,0,0,1,.312-.312h1.223a.312.312,0,0,1,.318.293Z" transform="translate(-250.98 -225.543)"/><path class="d" d="M498.252,538.642h-2.489a1.223,1.223,0,0,1-1.223-1.223v-9.136a1.223,1.223,0,0,1,1.223-1.223h2.489a1.223,1.223,0,0,1,1.223,1.223v9.136A1.223,1.223,0,0,1,498.252,538.642Zm7.888-1.223v-9.136a1.223,1.223,0,0,0-1.223-1.223H502.4a1.223,1.223,0,0,0-1.223,1.223v9.136a1.223,1.223,0,0,0,1.223,1.223h2.489a1.223,1.223,0,0,0,1.247-1.223Z" transform="translate(-213.532 -225.688)"/><rect class="l" width="146.759" height="1.633" transform="translate(213.413 286.562)"/><circle class="d" cx="3.871" cy="3.871" r="3.871" transform="translate(254.86 283.504)"/><rect class="d" width="45.318" height="1.633" transform="translate(213.413 286.562)"/><ellipse class="e" cx="36.366" cy="6.996" rx="36.366" ry="6.996" transform="translate(548.887 456.852)"/><ellipse class="m" cx="4.232" cy="5.54" rx="4.232" ry="5.54" transform="translate(580.415 455.335)"/><ellipse class="m" cx="4.232" cy="5.54" rx="4.232" ry="5.54" transform="translate(580.415 448.56)"/><ellipse class="m" cx="4.232" cy="5.54" rx="4.232" ry="5.54" transform="translate(580.415 441.791)"/><ellipse class="m" cx="4.232" cy="5.54" rx="4.232" ry="5.54" transform="translate(580.415 435.015)"/><ellipse class="m" cx="4.232" cy="5.54" rx="4.232" ry="5.54" transform="translate(580.415 428.24)"/><ellipse class="m" cx="4.232" cy="5.54" rx="4.232" ry="5.54" transform="translate(580.415 421.464)"/><ellipse class="m" cx="4.232" cy="5.54" rx="4.232" ry="5.54" transform="translate(580.415 414.689)"/><path class="e" d="M993.988,624.774a20.963,20.963,0,0,0,1.578-2.324l-11.129-1.835,12.034.092a20.344,20.344,0,0,0,.385-16.07l-16.131,8.378,14.884-10.94a20.283,20.283,0,1,0-33.5,22.7,20.7,20.7,0,0,0-2.311,3.669l14.443,7.5-15.4-5.167a20.3,20.3,0,0,0,3.265,19.042,20.277,20.277,0,1,0,31.884,0,20.29,20.29,0,0,0,0-25.071Z" transform="translate(-393.497 -250.896)"/><path class="c" d="M957.78,665.94a20.18,20.18,0,0,0,4.335,12.536,20.277,20.277,0,1,0,31.884,0C996.714,675.033,957.78,663.666,957.78,665.94Z" transform="translate(-393.502 -279.527)"/><ellipse class="a" cx="60.538" cy="12.841" rx="60.538" ry="12.841" transform="translate(116.796 482.816)"/><path class="n" d="M326.853,688.819a15.933,15.933,0,0,0-3.81-.514,11.79,11.79,0,0,1-7.008-3.4,12.841,12.841,0,0,1-2.8-4.28c.4.147.807.3,1.223.465-1.223-2.856.061-6.06,1.186-8.946q2.862-7.338,5.412-14.755c4.28-12.53,7.949-25.561,7.87-38.891,0-4.819-.887-9.374-1.058-14.187-.128-3.571.422-7.136.4-10.713,0-.5,0-1-.037-1.5a9.5,9.5,0,0,0,3.223-7.742,18.639,18.639,0,0,0-.324-2.25,36.508,36.508,0,0,0-.856-3.828c-.4-1.327-.954-2.6-1.425-3.9-.911-2.513-1.529-5.13-2.305-7.687a2.648,2.648,0,0,1,.832.226,1.792,1.792,0,0,1-.391-.8,19.818,19.818,0,0,1-.734-5l.52-.232a13.008,13.008,0,0,0-.251-4.947c.294-2.623.752-5.265,1.033-7.876.1-.978.061-2.208-.838-2.446-.183-1.4-.257-2.819-.33-4.232q-.385-7.393-.764-14.78c-.257-4.947-.514-9.888-.611-14.841a43.326,43.326,0,0,0-.85-9.4,11.373,11.373,0,0,0-.434-4.28c-1.137-3.6-4.672-6.457-8.255-6.256a16.425,16.425,0,0,0-3.907-3.95c.715-1.6,1.572-3.253,2.275-4.549a14.825,14.825,0,0,0,9.931-14.248A15.551,15.551,0,0,0,322.083,462a7.666,7.666,0,0,0,.269-.826,6.782,6.782,0,0,0-.275-3.969,11.619,11.619,0,0,0-.611-1.419c-.159-.306-.33-.611-.508-.905l-.312-.471a8.791,8.791,0,0,0-.612-.832,20.248,20.248,0,0,0-1.394-1.676,13.8,13.8,0,0,0-2.006-1.786,8.842,8.842,0,0,0-3.3-1.523,10.062,10.062,0,0,0-2.1-.19c-.422,0-.85,0-1.272.037-.856.049-1.706.11-2.556.1a5.654,5.654,0,0,1-.85-.043,30.955,30.955,0,0,1-4.427-.923l-.734-.153c-.251-.049-.5-.092-.746-.122a14,14,0,0,0-2.024-.122h-.679a18.75,18.75,0,0,0-2.024.208l-.673.1a19.322,19.322,0,0,0-4.923,1.462c-.2.092-.41.2-.611.306l-.122.067c-.165.086-.33.177-.489.275l-.092.055-.52.33-.043.031c-4.855,3.265-7.723,9.454-8.451,15.593-.813,6.892.612,13.838,2.036,20.62l1.284,6.115c.055.275.116.544.171.819a13.453,13.453,0,0,0-4.03,5.589c-1.223,3.057-1.254,6.366-1.156,9.68,0,.673.037,1.345.1,2.018-.153,1.272-.287,2.55-.373,3.834-.385,5.932.336,11.894.147,17.837-.147,4.58-.838,9.172-.5,13.722a61.947,61.947,0,0,0,2.446,11.845l1.541,5.552a1.474,1.474,0,0,0,.385.764,1.162,1.162,0,0,0,.862.177,52.046,52.046,0,0,0-2.507,7.02,21.707,21.707,0,0,0-.905,4.513,27.573,27.573,0,0,0,1.095,8.3q1.468,6.115,2.923,12.279,1.027,4.311,2.049,8.616c1.345,5.662,2.7,11.362,2.947,17.189a37.334,37.334,0,0,1-.612,8.738,76.143,76.143,0,0,0-.758,26.19,128.414,128.414,0,0,0,4.947,21.653c.5-.263,1-.508,1.51-.734l-.214.4q-1.058,1.835-1.957,3.761a21.389,21.389,0,0,0-1.046,2.574,28.978,28.978,0,0,0-1.015,7.625,3.73,3.73,0,0,0,.128,1.474,3.061,3.061,0,0,0,2.2,1.651,20.106,20.106,0,0,0,8.133.128.991.991,0,0,0,.055.177,3.05,3.05,0,0,0,2.2,1.651c3.779,1.076,7.766.061,11.661-.306s7.723-.1,11.472-1a5.462,5.462,0,0,0,1.59-.612,5.2,5.2,0,0,0,2.006-2.782,3.563,3.563,0,0,0,.232-.911A3.1,3.1,0,0,0,326.853,688.819Zm-12.933-56.631a15.411,15.411,0,0,1-1.223,4.146,79.126,79.126,0,0,0-6.274,19.672,91.2,91.2,0,0,0-1.388,13.606c-.061,3.363.067,6.885-1.333,9.906l.508-.08c-.159.294-.312.612-.459.844l-.073.134a13.257,13.257,0,0,1-1.669-4.684c0-.055-.275-.1-.7-.122a126.536,126.536,0,0,1-1.786-29.285,13.558,13.558,0,0,1,.489-3.516c.312-.984.838-1.883,1.223-2.837a20.846,20.846,0,0,0,1.223-4.978,70.714,70.714,0,0,0,.77-13.16c-.147-4.152.813-8.28,1.633-12.413.391-1.963.752-3.932.948-5.9l.037-.4a59.235,59.235,0,0,1,7.509,19.495,27.885,27.885,0,0,1,.563,9.57Zm-26.172-88.374.2.171a13.446,13.446,0,0,1,1.627,1.706,2.256,2.256,0,0,1,.514.942c.183.893-.556,1.651-1.162,2.305a10.41,10.41,0,0,0-.74.893q-.2-3.009-.416-6.017Z" transform="translate(-129.247 -194.653)"/><path class="e" d="M279.267,542.53l-.673,5.192c-.226,1.761-.452,3.516-.575,5.283-.41,5.883.349,11.79.153,17.684-.159,4.537-.881,9.069-.532,13.6a57.669,57.669,0,0,0,2.587,11.741l1.614,5.5a1.456,1.456,0,0,0,.4.758,1.425,1.425,0,0,0,1.033.165l7.167-.648c-.459-2.1-.966-4.28-1.223-6.439-.2-1.688-.312-3.388-.434-5.088-.379-5.3-.813-10.591-1.223-15.9l-.764-9.295a70.11,70.11,0,0,0-1.675-12.01A23.9,23.9,0,0,0,279.267,542.53Z" transform="translate(-129.23 -231.698)"/><path class="c" d="M279.267,542.53l-.673,5.192c-.226,1.761-.452,3.516-.575,5.283-.41,5.883.349,11.79.153,17.684-.159,4.537-.881,9.069-.532,13.6a57.669,57.669,0,0,0,2.587,11.741l1.614,5.5a1.456,1.456,0,0,0,.4.758,1.425,1.425,0,0,0,1.033.165l7.167-.648c-.459-2.1-.966-4.28-1.223-6.439-.2-1.688-.312-3.388-.434-5.088-.379-5.3-.813-10.591-1.223-15.9l-.764-9.295a70.11,70.11,0,0,0-1.675-12.01A23.9,23.9,0,0,0,279.267,542.53Z" transform="translate(-129.23 -231.698)"/><path class="o" d="M299.851,827.459a21.9,21.9,0,0,0-1.1,2.556,27.52,27.52,0,0,0-1.064,7.558,3.669,3.669,0,0,0,.135,1.462,3.186,3.186,0,0,0,2.318,1.633c3.969,1.07,8.151.067,12.23-.3s8.108-.1,12.047-.984a6.154,6.154,0,0,0,1.669-.581,5.2,5.2,0,0,0,2.11-2.752,3.6,3.6,0,0,0,.238-.9,3.126,3.126,0,0,0-2.311-2.947,17.43,17.43,0,0,0-4-.508,12.6,12.6,0,0,1-11.154-10.524c-.049-.293-6.629-.116-7.338.263a6.136,6.136,0,0,0-1.755,2.305Q300.792,825.551,299.851,827.459Z" transform="translate(-137.045 -339.892)"/><path class="c" d="M299.851,827.459a21.9,21.9,0,0,0-1.1,2.556,27.52,27.52,0,0,0-1.064,7.558,3.669,3.669,0,0,0,.135,1.462,3.186,3.186,0,0,0,2.318,1.633c3.969,1.07,8.151.067,12.23-.3s8.108-.1,12.047-.984a6.154,6.154,0,0,0,1.669-.581,5.2,5.2,0,0,0,2.11-2.752,3.6,3.6,0,0,0,.238-.9,3.126,3.126,0,0,0-2.311-2.947,17.43,17.43,0,0,0-4-.508,12.6,12.6,0,0,1-11.154-10.524c-.049-.293-6.629-.116-7.338.263a6.136,6.136,0,0,0-1.755,2.305Q300.792,825.551,299.851,827.459Z" transform="translate(-137.045 -339.892)"/><path class="o" d="M317.7,830.619a20.789,20.789,0,0,0-1.1,2.55,27.221,27.221,0,0,0-1.064,7.558,3.566,3.566,0,0,0,.135,1.462,3.187,3.187,0,0,0,2.311,1.639c3.969,1.064,8.157.061,12.23-.306s8.115-.1,12.047-.984a5.886,5.886,0,0,0,1.669-.612,5.179,5.179,0,0,0,2.11-2.752,3.593,3.593,0,0,0,.239-.9,3.132,3.132,0,0,0-2.311-2.947,17.776,17.776,0,0,0-4-.508A12.6,12.6,0,0,1,328.811,824.3c-.049-.293-6.629-.122-7.338.257a6.089,6.089,0,0,0-1.761,2.305C319.014,828.1,318.329,829.347,317.7,830.619Z" transform="translate(-143.979 -341.107)"/><path class="j" d="M332.622,689c.086,13.214-3.755,26.129-8.261,38.524q-2.678,7.375-5.681,14.621c-1.186,2.862-2.525,6.042-1.254,8.867a21.464,21.464,0,0,0-11.258-1.572c1.468-3,1.327-6.482,1.394-9.784a85.789,85.789,0,0,1,1.443-13.484,75.215,75.215,0,0,1,6.6-19.5,14.86,14.86,0,0,0,1.278-4.109,26.248,26.248,0,0,0-.544-9.484,56.544,56.544,0,0,0-7.888-19.323l-.037.391a57.033,57.033,0,0,1-.991,5.852c-.862,4.091-1.871,8.188-1.718,12.3a66.543,66.543,0,0,1-.807,13.043,19.832,19.832,0,0,1-1.315,4.929c-.422.948-.972,1.834-1.3,2.819a12.841,12.841,0,0,0-.514,3.486,118.2,118.2,0,0,0,2.03,29.8,18.928,18.928,0,0,0-9.857,2.244,121.408,121.408,0,0,1-5.2-21.464,71.313,71.313,0,0,1,.795-25.964,34.5,34.5,0,0,0,.642-8.653c-.263-5.779-1.682-11.429-3.094-17.042l-2.152-8.561q-1.529-6.115-3.057-12.175a25.885,25.885,0,0,1-1.15-8.231,20.423,20.423,0,0,1,.954-4.476,49.953,49.953,0,0,1,6.769-13.844c11.784.66,23.708-.44,35.467-1.345a2.379,2.379,0,0,1,1.663.281,2.354,2.354,0,0,1,.673,1.517l4.421,25.071a62.988,62.988,0,0,1,1.254,10.579c0,3.547-.55,7.081-.416,10.622C331.693,679.711,332.6,684.224,332.622,689Z" transform="translate(-130.449 -264.447)"/><path class="c" d="M317.013,691.75a57.037,57.037,0,0,1-.991,5.852c-2.562-4.433-5.326-8.757-7.687-13.3-.611-1.168-1.186-2.354-1.767-3.541l-1.743-3.547c-.324-.667-.648-1.333-.942-2.012a14.539,14.539,0,0,1-1.095-3.057c.856-.159,2.972,2.152,3.608,2.758a49.315,49.315,0,0,1,3.669,4.06,44.508,44.508,0,0,1,3.828,5.014,24.386,24.386,0,0,1,3.119,7.772Z" transform="translate(-139.037 -282.05)"/><path class="p" d="M325.62,501.888s-6.543,10.426-5.332,12.609-20.607-1.938-20.607-1.938,11.881-10.426,10.665-14.792S325.62,501.888,325.62,501.888Z" transform="translate(-137.829 -213.822)"/><circle class="p" cx="14.792" cy="14.792" r="14.792" transform="translate(167.184 261.637)"/><path class="e" d="M317.7,518.477a15.018,15.018,0,0,0-6.219-5,22.246,22.246,0,0,0-4.421-1.089l-5.9-1.04a7.516,7.516,0,0,0-4.336.1,7.107,7.107,0,0,0-1.834,1.351c-2.049,1.9-4.036,3.987-6.61,5.088-.7.3-1.437.52-2.14.819a12.354,12.354,0,0,0-6.25,6.726c-1.284,3.021-1.321,6.3-1.223,9.588a16.855,16.855,0,0,0,.336,3.375,21.75,21.75,0,0,0,1.119,3.094,56.607,56.607,0,0,1,2.042,6.561q2.293,8.775,3.816,17.733a6.647,6.647,0,0,0,.74,2.446,8.779,8.779,0,0,0,2.042,1.963,12.755,12.755,0,0,1,1.706,1.694,2.214,2.214,0,0,1,.557.9c.19.881-.612,1.639-1.223,2.281a11.044,11.044,0,0,0-2.764,4.813,1.939,1.939,0,0,0-.44,1.327,2.324,2.324,0,0,1,.141,1.052,2.373,2.373,0,0,1-.556.862,3.259,3.259,0,0,0-.612,2.617,41.514,41.514,0,0,0,14.48,3.388c1.223.061,2.446.061,3.669.208.868.11,1.724.287,2.593.391a27.988,27.988,0,0,0,3.791.1c6.586-.135,13.361-.3,19.409-2.911.569-3.1-.66-6.262-1.431-9.319-1.223-4.892-1.529-9.9-2.446-14.835-.612-3.369-1.529-6.69-2.049-10.084a24.65,24.65,0,0,1,.294-10.212c.826-2.923,1.076-5.907,1.932-8.824s1.455-6.078.489-8.965C325.181,521.107,321.469,518.275,317.7,518.477Z" transform="translate(-129.691 -219.477)"/><path class="o" d="M325.956,464.638c.722-2.623-.7-5.357-2.385-7.491-1.835-2.293-4.17-4.36-7.038-4.935-2.33-.471-4.745.1-7.118-.092-2.1-.165-4.115-.923-6.2-1.223a19.64,19.64,0,0,0-5.675.214,21.553,21.553,0,0,0-5.167,1.443c-6.3,2.795-9.986,9.68-10.842,16.51s.642,13.716,2.134,20.436l1.351,6.078a120.728,120.728,0,0,1,3.186,19.152c.373,6.47-.324,13.111-2.984,19.018a40.9,40.9,0,0,0,18.791-21.274c.954-2.5,1.663-5.1,2.727-7.558.911-2.116,2.079-4.121,2.886-6.28a20.4,20.4,0,0,0,1.29-7.625c-.049-1.957-.373-3.9-.318-5.858a8.093,8.093,0,0,1,1.908-5.412c1.223-1.254,2.9-1.835,4.452-2.648a18.535,18.535,0,0,0,6.231-5.2,5.7,5.7,0,0,0,1.272-3.278C324.7,467.176,325.577,466.027,325.956,464.638Z" transform="translate(-130.68 -196.055)"/><path class="p" d="M352.956,649.977a39.252,39.252,0,0,0,.208,4.568c.251,1.125.832,2.14,1.174,3.241a15.412,15.412,0,0,1,.52,3.9c.049,1.1-.037,2.446-1.015,2.96-.428.226-.942.226-1.388.422s-.826.728-.569,1.143.7.349,1.1.428.838.5.611.832a.7.7,0,0,1-.355.226,4.331,4.331,0,0,0-1.15.55,1.174,1.174,0,0,0-.471,1.119.691.691,0,0,0,.984.453,3.058,3.058,0,0,0-.287,1.223c1.565.673,3.32-.208,4.788-1.058a18.047,18.047,0,0,0,1.835-1.174A9.172,9.172,0,0,0,362.514,661a18.218,18.218,0,0,0-.349-2.232,33.582,33.582,0,0,0-.9-3.8c-.422-1.315-1-2.568-1.492-3.859-1.052-2.746-1.731-5.62-2.685-8.4a1.272,1.272,0,0,0-.459-.728,1.29,1.29,0,0,0-.679-.128,11.122,11.122,0,0,0-3.186.294,3.388,3.388,0,0,0-1.945,1.223c-.287.612.171,1.125.446,1.633A13.686,13.686,0,0,1,352.956,649.977Z" transform="translate(-157.662 -270.278)"/><path class="c" d="M343.943,533.64a4.481,4.481,0,0,1,.783,1.088c2.1,3.822,2.128,8.39,2.226,12.75.11,4.892.379,9.784.648,14.707l.8,14.676c.079,1.4.153,2.8.355,4.189.942.238.978,1.461.874,2.446-.679,5.98-2.36,12.138-.612,17.892a1.8,1.8,0,0,0,.41.795,4.775,4.775,0,0,0-2.733-.037c-.874.183-1.718.508-2.6.709-1.113.251-2.373.361-3.131,1.223a60.678,60.678,0,0,1-2.049-7.9c-.416-2.446-.532-4.965-1.523-7.228-.4-.911-.936-1.755-1.425-2.629-2.562-4.574-3.822-9.741-5.051-14.841a21.666,21.666,0,0,1-.391-7.375,25.358,25.358,0,0,0,.306-3.394,26.07,26.07,0,0,0-.471-3.571,23.94,23.94,0,0,1,.715-10.34c.917-3.112,1.724-6.39,3.669-9.007S340.7,533.683,343.943,533.64Z" transform="translate(-149.645 -228.244)"/><path class="e" d="M345.14,532.84a4.521,4.521,0,0,1,.783,1.095c2.1,3.816,2.128,8.39,2.226,12.75.11,4.892.379,9.784.648,14.676l.8,14.676c.079,1.4.153,2.8.355,4.189.942.238.978,1.461.868,2.446-.673,5.98-2.354,12.132-.612,17.892a1.8,1.8,0,0,0,.41.795,4.775,4.775,0,0,0-2.733-.037c-.874.183-1.718.508-2.6.7-1.113.257-2.373.361-3.131,1.223a60.055,60.055,0,0,1-2.03-7.937c-.416-2.446-.532-4.959-1.523-7.222a29.523,29.523,0,0,0-1.425-2.629c-2.568-4.574-3.822-9.747-5.051-14.847a21.66,21.66,0,0,1-.391-7.375,15.9,15.9,0,0,0-.165-6.965,23.909,23.909,0,0,1,.715-10.334c.917-3.113,1.724-6.39,3.669-9.007S341.893,532.889,345.14,532.84Z" transform="translate(-150.115 -227.933)"/><g class="k" transform="translate(154.538 254.73)"><path d="M329,457.148c-1.835-2.293-4.17-4.36-7.038-4.935-2.33-.471-4.745.1-7.118-.092-2.1-.165-4.115-.923-6.2-1.223a19.64,19.64,0,0,0-5.675.214,21.554,21.554,0,0,0-5.167,1.443A15.345,15.345,0,0,0,295.25,454a21.744,21.744,0,0,1,4.568-1.223,19.567,19.567,0,0,1,5.669-.214c2.091.269,4.1,1.021,6.207,1.186,2.366.19,4.782-.373,7.118.092,2.868.575,5.216,2.648,7.032,4.941,1.694,2.128,3.106,4.861,2.391,7.491-.379,1.382-1.26,2.593-1.5,4.018a5.674,5.674,0,0,1-1.278,3.278,18.577,18.577,0,0,1-4.488,4.177c.471-.22.954-.44,1.413-.679a18.534,18.534,0,0,0,6.231-5.2,5.7,5.7,0,0,0,1.272-3.278c.245-1.443,1.119-2.629,1.5-4.018C332.1,462.015,330.686,459.282,329,457.148Z" transform="translate(-290.645 -450.785)"/><path d="M315.005,497.745a6.118,6.118,0,0,1,.826-.715,12.671,12.671,0,0,0-3.981,2.446,8.176,8.176,0,0,0-1.908,5.412c-.073,1.957.275,3.9.318,5.852a20.429,20.429,0,0,1-1.29,7.631c-.807,2.159-1.975,4.158-2.886,6.28-1.058,2.446-1.767,5.051-2.721,7.552a40.971,40.971,0,0,1-15.538,19.336c-.037.08-.067.165-.1.245a40.9,40.9,0,0,0,18.791-21.274c.954-2.5,1.663-5.1,2.727-7.558.911-2.116,2.079-4.121,2.886-6.28a20.4,20.4,0,0,0,1.29-7.625c-.049-1.957-.373-3.9-.318-5.858A8.173,8.173,0,0,1,315.005,497.745Z" transform="translate(-287.72 -468.751)"/></g></g></svg>