<svg xmlns="http://www.w3.org/2000/svg" xmlns:xlink="http://www.w3.org/1999/xlink" viewBox="0 0 1249 1220"><defs><style>.a{clip-path:url(#b);}.b{fill:#e6e6e6;}.c,.g,.i,.j{fill:none;}.c{stroke:#707070;stroke-width:20px;}.d{font-size:29px;}.d,.h{font-family:Roboto-Regular, Roboto;}.e{fill:#fff;}.f{fill:#fdb1b1;}.g{stroke:#4f3cf8;}.g,.i{stroke-width:5px;}.h{font-size:32px;}.i{stroke:#45dfc5;}.j{stroke:#ff5252;stroke-width:10px;stroke-dasharray:10;}.k{fill:#ff4a4a;}.l,.m{stroke:none;}.m{fill:#707070;}</style><clipPath id="b"><rect width="1249" height="1220"/></clipPath></defs><g id="a" class="a"><g class="b" transform="translate(421 220)"><path class="l" d="M 495.4844360351563 900.6049194335938 C 483.8865356445313 900.6049194335938 465.0496826171875 900.3994750976563 441.1742858886719 899.4203491210938 C 412.7610473632813 898.2550659179688 384.2779235839844 896.2902221679688 356.5161743164063 893.5804443359375 C 320.9876708984375 890.112548828125 286.7855529785156 885.4283447265625 254.8600463867188 879.6578369140625 C 236.5391693115234 876.3463134765625 218.6975402832031 872.6243286132813 201.8306732177734 868.59521484375 C 183.5770416259766 864.2348022460938 165.9906768798828 859.4011840820313 149.5600433349609 854.2285766601563 C 130.3205413818359 848.1715698242188 112.0556716918945 841.3424682617188 95.27292633056641 833.9308471679688 C 80.01905059814453 827.1943359375 65.64642333984375 819.825439453125 52.55429840087891 812.029052734375 C 30.51279830932617 798.9033203125 11.64792251586914 784.3392944335938 -3.516327142715454 768.7418212890625 C -9.470452308654785 762.61767578125 -14.86082744598389 756.3178100585938 -19.5379524230957 750.017333984375 C -23.27745246887207 744.9797973632813 -26.57157707214355 739.9309692382813 -29.32895278930664 735.0111694335938 C -33.55981063842773 727.4619750976563 -35.20848083496094 722.5452880859375 -35.49904251098633 721.6260986328125 L 264.8578491210938 -72.22691345214844 L 763.4188842773438 94.95521545410156 L 507.9522094726563 900.5075073242188 C 506.725341796875 900.5313110351563 502.3749694824219 900.6049194335938 495.4844360351563 900.6049194335938 Z"/><path class="m" d="M 495.4844360351563 900.1049194335938 C 501.8137512207031 900.1049194335938 505.9979248046875 900.0427856445313 507.5840759277344 900.0142822265625 L 762.7935791015625 95.27292633056641 L 265.1551818847656 -71.59980773925781 L -34.9695930480957 721.6397094726563 C -34.57192611694336 722.8594970703125 -32.90021133422852 727.6160888671875 -28.89270210266113 734.7667236328125 C -26.14582633972168 739.66796875 -22.86332702636719 744.6987915039063 -19.13645172119141 749.7192993164063 C -14.47245216369629 756.0020751953125 -9.096576690673828 762.2849731445313 -3.157827138900757 768.393310546875 C 11.97592258453369 783.95947265625 30.80629730224609 798.49609375 52.8100471496582 811.5994262695313 C 65.88492584228516 819.3855590820313 80.23942565917969 826.7450561523438 95.47492218017578 833.4734497070313 C 112.2407989501953 840.877685546875 130.4881744384766 847.7001953125 149.7101745605469 853.7515869140625 C 166.1296691894531 858.9207153320313 183.7046661376953 863.751220703125 201.9469299316406 868.1089477539063 C 218.8046722412109 872.1358032226563 236.6371765136719 875.85595703125 254.9490509033203 879.1658325195313 C 286.8611755371094 884.933837890625 321.0496826171875 889.6162109375 356.5647888183594 893.0828247070313 C 384.3171691894531 895.7916870117188 412.7908020019531 897.7557983398438 441.1947937011719 898.9207153320313 C 465.0616760253906 899.8994750976563 483.8911743164063 900.1049194335938 495.4844360351563 900.1049194335938 M 495.4844665527344 901.10498046875 C 449.2120666503906 901.10498046875 286.4033813476563 897.8330688476563 149.4099273681641 854.7054443359375 C -12.09982681274414 803.8596801757813 -36.02732849121094 721.6095581054688 -36.02732849121094 721.6095581054688 L 264.560546875 -72.85392761230469 L 764.044189453125 94.6375732421875 L 508.320556640625 901.0000610351563 C 508.320556640625 901.0000610351563 503.7653503417969 901.10498046875 495.4844665527344 901.10498046875 Z"/></g><g transform="translate(-146 -546)"><path class="c" d="M-26.177,698.781s129.92,52.283,231.8,41.873,201.887-67.3,201.887-67.3L657,0" transform="translate(194.5 567.5)"/><line class="c" x1="165" y2="410" transform="translate(437.5 1240.5)"/><line class="c" x2="59" y2="62" transform="translate(501.5 1291.5)"/><text class="d" transform="translate(647 1028) rotate(-68)"><tspan x="0" y="0">rue Albert Camus</tspan></text></g><g transform="translate(-146 -546)"><g class="e" transform="translate(802 812)"><path class="l" d="M -13.59528160095215 400.1228332519531 L -78.69401550292969 379.878662109375 L -12.89752292633057 191.1149444580078 L 12.21949291229248 184.5367431640625 L 12.47754287719727 184.4691467285156 L 12.56509304046631 184.2171478271484 L 59.6893424987793 48.58390045166016 L 59.85374450683594 48.11074829101563 L 59.38029098510742 47.94720077514648 L 37.71185302734375 40.46185302734375 L 53.87648391723633 -2.906427621841431 L 210.0032043457031 50.73714828491211 L 193.0489654541016 94.10863494873047 L 102.8797912597656 62.84994888305664 L 102.4048919677734 62.68529891967773 L 102.242790222168 63.16104888916016 L 71.63224029541016 152.97900390625 L 71.47418975830078 153.4427032470703 L 71.93459320068359 153.6101989746094 L 156.9194488525391 184.52294921875 L 157.3899383544922 184.6940460205078 L 157.5604400634766 184.2233428955078 L 178.8162231445313 125.5482788085938 L 214.4595031738281 138.4410705566406 L 163.6248474121094 289.7452697753906 L 78.36763000488281 259.8653869628906 L 99.16509246826172 194.2734069824219 L 99.30859375 193.8208465576172 L 98.86404418945313 193.6541442871094 L 63.42019271850586 180.3626556396484 L 62.94074249267578 180.1828460693359 L 62.77239227294922 180.6664428710938 L -13.59528160095215 400.1228332519531 Z"/><path class="m" d="M 54.17482757568359 -2.275177001953125 L 38.35929107666016 40.15652465820313 L 59.54354095458984 47.474609375 L 60.49044036865234 47.80169677734375 L 60.16164398193359 48.74798583984375 L 13.03739166259766 184.3812561035156 L 12.86228942871094 184.88525390625 L 12.34614562988281 185.0204010009766 L -12.51309204101563 191.5310668945313 L -78.05160522460938 379.5548095703125 L -13.90858459472656 399.5018005371094 L 62.30019378662109 180.5021514892578 L 62.63679504394531 179.5348510742188 L 63.59574127197266 179.8944549560547 L 99.03959655761719 193.1859436035156 L 99.92874145507813 193.5193939208984 L 99.64173889160156 194.4245452880859 L 78.99093627929688 259.5540161132813 L 163.3121643066406 289.1058959960938 L 213.8298950195313 138.7450256347656 L 179.1161193847656 126.1884460449219 L 158.0305480957031 184.3936462402344 L 157.6894989013672 185.3350982666016 L 156.7484893798828 184.9927978515625 L 71.76364135742188 154.0800476074219 L 70.8428955078125 153.7451477050781 L 71.15894317626953 152.8177032470703 L 101.7694931030273 62.99969482421875 L 102.0937957763672 62.04818725585938 L 103.0435943603516 62.37744140625 L 192.7584075927734 93.47860717773438 L 209.3477478027344 51.04067993164063 L 54.17482757568359 -2.275177001953125 M 53.57814025878906 -3.53759765625 L 210.65869140625 50.43368530273438 L 193.339599609375 94.73849487304688 L 102.7160415649414 63.32229614257813 L 72.10549163818359 153.1403045654297 L 157.0903472900391 184.0530548095703 L 178.5163421630859 124.9081115722656 L 215.0890960693359 138.1370849609375 L 163.9375 290.3846435546875 L 77.74439239501953 260.1767578125 L 98.68849182128906 194.1222991943359 L 63.24464416503906 180.8307952880859 L -13.28201293945313 400.743896484375 L -79.33641052246094 380.2025146484375 L -13.28201293945313 190.6987457275391 L 12.09279632568359 184.0530548095703 L 59.217041015625 48.4197998046875 L 37.06444549560547 40.7672119140625 L 53.57814025878906 -3.53759765625 Z"/></g><g class="e" transform="translate(1079 826)"><path class="l" d="M 121.5940093994141 105.3671112060547 L -17.26989364624023 56.14960098266602 L 2.338364362716675 -0.2862904071807861 L 140.7444152832031 47.9158821105957 L 121.5940093994141 105.3671112060547 Z"/><path class="m" d="M 2.64642333984375 0.3504562377929688 L -16.634521484375 55.84434127807617 L 121.2807769775391 104.7256240844727 L 140.1140441894531 48.22580718994141 L 2.64642333984375 0.3504562377929688 M 2.030265808105469 -0.9230499267578125 L 141.374755859375 47.60595321655273 L 121.9072189331055 106.0085983276367 L -17.9052734375 56.45489120483398 L 2.030265808105469 -0.9230499267578125 Z"/></g><g class="e" transform="translate(1061 987)"><path class="l" d="M 65.02840423583984 138.2166137695313 L -68.12005615234375 92.93259429931641 L -13.30722713470459 -67.4459228515625 L 161.3641052246094 -9.222165107727051 L 147.3851318359375 32.71447372436523 L 106.3364334106445 19.25583457946777 L 105.8676986694336 19.10215950012207 L 105.7076950073242 19.56877708435059 L 65.02840423583984 138.2166137695313 Z"/><path class="m" d="M -12.99456024169922 -66.814697265625 L -67.48497009277344 92.6204833984375 L 64.71719360351563 137.5826416015625 L 105.2347259521484 19.4066276550293 L 105.5546951293945 18.47333526611328 L 106.4922256469727 18.78071594238281 L 147.0681457519531 32.08434295654297 L 160.7316741943359 -8.90594482421875 L -12.99456024169922 -66.814697265625 M -13.61985778808594 -68.07722473144531 L 161.99658203125 -9.538398742675781 L 147.7021484375 33.34460067749023 L 106.1806716918945 19.73095321655273 L 65.33960723876953 138.8505706787109 L -68.755126953125 93.2447509765625 L -13.61985778808594 -68.07722473144531 Z"/></g><g class="e" transform="translate(873 1257)"><path class="l" d="M 25.6824836730957 191.0396881103516 L -38.72465515136719 170.2415161132813 L -23.13781929016113 122.0243911743164 L -11.58824634552002 125.4372863769531 L -11.12749671936035 125.5734558105469 L -10.97307968139648 125.1184921264648 L 36.0252685546875 -13.35169315338135 L 119.7643814086914 15.16032886505127 L 120.223876953125 15.31674575805664 L 120.3938751220703 14.86212062835693 L 136.1834259033203 -27.36466979980469 L 136.3615875244141 -27.84117126464844 L 135.882080078125 -28.01108741760254 L 10.49428653717041 -72.44120788574219 L 30.37898254394531 -127.6246032714844 L 237.0541076660156 -57.15178680419922 L 218.3061981201172 -0.2383693307638168 L 169.0907592773438 -16.4187126159668 L 168.6237182617188 -16.5722541809082 L 168.4622955322266 -16.10783767700195 L 96.47223663330078 191.0343322753906 L 33.63687896728516 170.0892944335938 L 33.17154312133789 169.9341583251953 L 33.00754547119141 170.3964080810547 L 25.6824836730957 191.0396881103516 Z"/><path class="m" d="M 30.68278503417969 -126.9927368164063 L 11.13510131835938 -72.74464416503906 L 136.0490875244141 -28.48237609863281 L 137.0080871582031 -28.14254760742188 L 136.6517486572266 -27.18954467773438 L 120.8622131347656 15.03724670410156 L 120.5222091674805 15.94653701782227 L 119.6032104492188 15.63362121582031 L 36.33787536621094 -12.71707153320313 L -10.49957275390625 125.2791595458984 L -10.80841064453125 126.1890411376953 L -11.72991943359375 125.916748046875 L -22.81201171875 122.6420288085938 L -38.09506225585938 169.9193420410156 L 25.37376403808594 190.41455078125 L 32.53633117675781 170.2291564941406 L 32.8643798828125 169.3047027587891 L 33.79496765136719 169.6149139404297 L 96.16199493408203 190.4039001464844 L 167.9900054931641 -16.27200317382813 L 168.3127899169922 -17.20079803466797 L 169.2469177246094 -16.89366912841797 L 217.9876403808594 -0.8694000244140625 L 236.4244079589844 -56.83823394775391 L 30.68278503417969 -126.9927368164063 M 30.07521057128906 -128.2564697265625 L 237.683837890625 -57.46533966064453 L 218.624755859375 0.3927040100097656 L 168.9345855712891 -15.94371032714844 L 96.78246307373047 191.664794921875 L 33.478759765625 170.5635681152344 L 25.9912109375 191.664794921875 L -39.354248046875 170.5635681152344 L -23.463623046875 121.4067459106445 L -11.446533203125 124.9577484130859 L 35.71263122558594 -13.98633575439453 L 119.9255447387695 14.68699645996094 L 135.715087890625 -27.539794921875 L 9.853500366210938 -72.13783264160156 L 30.07521057128906 -128.2564697265625 Z"/></g><g class="e" transform="translate(620 1373)"><path class="l" d="M 21.37313652038574 60.0639762878418 L -18.50747299194336 47.43525695800781 L 10.43247604370117 -36.01993179321289 L 48.96871185302734 -23.39589881896973 L 21.37313652038574 60.0639762878418 Z"/><path class="m" d="M 10.74385452270508 -35.39176940917969 L -17.86676025390625 47.11367797851563 L 21.05340576171875 59.43825531005859 L 48.33658599853516 -23.07683563232422 L 10.74385452270508 -35.39176940917969 M 10.12109184265137 -36.64806747436523 L 49.60082244873047 -23.71497344970703 L 21.6928653717041 60.68969345092773 L -19.14820098876953 47.75683975219727 L 10.12109184265137 -36.64806747436523 Z"/></g><g class="f" transform="translate(1079 1381)"><path class="l" d="M -24.70432281494141 243.3925170898438 L -83.17836761474609 121.3104934692383 L -40.92773818969727 135.6455230712891 L -40.48028564453125 135.7973480224609 L -40.30342102050781 135.3590698242188 C -40.27292251586914 135.2835693359375 -37.20364761352539 127.7731552124023 -32.61883163452148 124.6211624145508 C -29.91864776611328 122.7647476196289 -26.64314842224121 122.375114440918 -24.37083053588867 122.375114440918 C -22.84369277954102 122.375114440918 -21.79764747619629 122.5547485351563 -21.78728485107422 122.5565643310547 L -21.39883041381836 122.6244277954102 L -21.24201202392578 122.2625198364258 L -17.42878532409668 113.4444351196289 L -17.2227840423584 112.9680709838867 L -17.70646667480469 112.7799758911133 L -32.28134536743164 107.1120376586914 L -4.442403316497803 20.9188232421875 L -0.4455572664737701 22.17956733703613 L 0.01321546547114849 22.32429504394531 L 0.175533652305603 21.8714771270752 L 4.49167013168335 9.830476760864258 L 4.656079292297363 9.371840476989746 L 4.201851844787598 9.195613861083984 L 0.3251939713954926 7.691574096679688 L 24.12234878540039 -66.28745269775391 L 50.37089538574219 -59.59666061401367 L 50.82680511474609 -59.48043060302734 L 50.97048950195313 -59.92843246459961 L 59.80397033691406 -87.46935272216797 L 101.9985427856445 -106.7871780395508 L 21.91703414916992 124.0452499389648 L 21.86835098266602 124.1854782104492 L 21.90412521362305 124.3295211791992 C 21.91262435913086 124.3639755249023 22.76298904418945 127.8418426513672 23.03844261169434 132.8343811035156 C 23.19989776611328 135.7613830566406 23.13512420654297 138.6289825439453 22.84585189819336 141.3575286865234 C 22.4851245880127 144.7599334716797 21.77239799499512 147.9540710449219 20.72744178771973 150.8511199951172 C 20.0216236114502 152.8079376220703 18.69803428649902 154.8979797363281 16.79348754882813 157.0632476806641 C 15.25557899475098 158.8117065429688 13.34035205841064 160.6092071533203 11.10094261169434 162.4058380126953 C 7.279215335845947 165.4719390869141 3.805488109588623 167.4889373779297 3.770851850509644 167.5089721679688 L 3.52907919883728 167.6486206054688 L 3.521169900894165 167.9277038574219 L 3.302128553390503 175.6573638916016 L -18.3068904876709 239.0602722167969 L -24.70432281494141 243.3925170898438 Z"/><path class="m" d="M 101.1425399780273 -105.8454284667969 L 60.21273422241211 -87.10661315917969 L 51.44662475585938 -59.77580261230469 L 51.15921401977539 -58.87974548339844 L 50.24739837646484 -59.11219787597656 L 24.45431709289551 -65.68684387207031 L 0.9455051422119141 7.395889282226563 L 4.382715225219727 8.729476928710938 L 5.29112434387207 9.081932067871094 L 4.96235179901123 9.999160766601563 L 0.6462154388427734 22.0401611328125 L 0.3215789794921875 22.94583892822266 L -0.5959663391113281 22.65643310546875 L -4.119302749633789 21.54505920410156 L -31.66062545776367 106.8169555664063 L -17.52523803710938 112.3139801025391 L -16.55787658691406 112.6901550292969 L -16.96982955932617 113.6428833007813 L -20.78305816650391 122.4609756469727 L -21.09696578979492 123.1837005615234 L -21.87301254272461 123.0491561889648 C -21.883056640625 123.0473861694336 -22.89396667480469 122.8750686645508 -24.37083053588867 122.875114440918 C -26.5723762512207 122.8751602172852 -29.74128341674805 123.2496109008789 -32.33555603027344 125.0331573486328 C -36.79323959350586 128.0977478027344 -39.80982971191406 135.4721069335938 -39.83964920043945 135.5458831787109 L -40.1931037902832 136.4226989746094 L -41.08837509155273 136.1189727783203 L -82.21445465087891 122.1655349731445 L -24.50411987304688 242.6530456542969 L -18.7260627746582 238.7402648925781 L 2.804500579833984 175.5675506591797 L 3.021397590637207 167.91357421875 L 3.037215232849121 167.3553924560547 L 3.520715713500977 167.0760192871094 C 3.657443046569824 166.9970245361328 17.2280330657959 159.0792541503906 20.257080078125 150.6814270019531 C 21.2869873046875 147.8261566162109 21.99016952514648 144.6762084960938 22.34712409973145 141.3190155029297 C 22.63407897949219 138.6201629638672 22.69912528991699 135.7826080322266 22.54048919677734 132.8852996826172 C 22.26935195922852 127.9343414306641 21.42721557617188 124.4838409423828 21.41885185241699 124.4499282836914 L 21.34735107421875 124.1617965698242 L 21.44462394714355 123.8813400268555 L 101.1425399780273 -105.8454284667969 M 102.8544845581055 -107.7290191650391 L 22.38939666748047 124.209114074707 C 22.38939666748047 124.209114074707 25.84516906738281 138.1362457275391 21.19776153564453 151.020751953125 C 18.00967025756836 159.8594360351563 4.020988464355469 167.94189453125 4.020988464355469 167.94189453125 L 3.799806594848633 175.7470703125 L -17.8876953125 239.3802490234375 L -24.90455627441406 244.1319274902344 L -84.14232635498047 120.4554290771484 L -40.7671012878418 135.1719818115234 C -40.7671012878418 135.1719818115234 -37.66864776611328 127.4860687255859 -32.90210342407227 124.209114074707 C -30.08331298828125 122.2711944580078 -26.68058013916016 121.8751678466797 -24.37081146240234 121.8750991821289 C -22.77478790283203 121.8750534057617 -21.70092010498047 122.0640716552734 -21.70092010498047 122.0640716552734 L -17.8876953125 113.245979309082 L -32.90210342407227 107.407112121582 L -4.765647888183594 20.29261016845703 L -0.2951488494873047 21.70275115966797 L 4.020988464355469 9.661750793457031 L -0.2951488494873047 7.987152099609375 L 23.79026031494141 -66.8880615234375 L 50.49440002441406 -60.08120727539063 L 59.39525985717773 -87.8321533203125 L 102.8544845581055 -107.7290191650391 Z"/></g></g><g transform="translate(-146 -546)"><path class="g" d="M174.475-4.255,604.712,143.914s14.667,8.053,19.556,20.706,0,29.909,0,29.909L523.278,507.436s-11.447,24.92-29.322,40.317c-13.254,11.417-27.69,14.61-37.64,29.844-44.5,68.135-115.036,202.463-115.036,202.463s-12.99,17.31-30.585,24.127-39.794,3.142-39.794,3.142L158.851,766.488s-16.363-8.77-27.751-21.468S113.3,715.7,113.3,715.7L46.8,570.661a74.307,74.307,0,0,0-11.126-16.232,89.872,89.872,0,0,0-16.232-13.09l-42.324-16.354" transform="translate(637.5 708.5)"/><line class="g" y1="119" x2="40" transform="translate(671.5 1140.5)"/><line class="g" x2="81" transform="translate(227.5 1097.5)"/><text class="h" transform="translate(685.902 1517.658) rotate(19)"><tspan x="0" y="0">Parking principal</tspan></text><text class="h" transform="translate(317 1106)"><tspan x="0" y="0">Routes</tspan></text></g><g transform="translate(-150 -543)"><line class="i" x2="98" y2="34" transform="translate(724.5 947.5)"/><line class="i" x1="58" y2="173" transform="translate(715.5 964.5)"/><path class="i" d="M0,0-62.6-20.773,27,166" transform="translate(1044.5 1506.5)"/><line class="i" x1="197" y1="68" transform="translate(984.5 1087.5)"/><path class="i" d="M0,243,84,5.381,60.553-3.077,80.289-56.645" transform="translate(984.5 846.5)"/><line class="i" x2="58" y2="21" transform="translate(976.5 924.5)"/><line class="i" x1="34" y2="91" transform="translate(951.5 898.5)"/><path class="i" d="M231,0s-2.745,24.318-16.067,34.232S184.26,38.57,184.26,38.57L141.349,24.163,88.99,165.907s-18.667,22.385-43.065,31.6-106.4-3.348-106.4-3.348" transform="translate(753.5 1089.5)"/><path class="i" d="M4.735-6.047S85.846,94.572,225.957,135.535,561.33,169.161,561.33,169.161L740,243" transform="translate(509.5 1503.5)"/><line class="i" y1="42" x2="16" transform="translate(916.5 1086.5)"/><line class="i" x2="81" transform="translate(231.5 1137.5)"/><path class="i" d="M5.927,43.919l5.76-21.468L-2.974-.588l-37.7-14.137" transform="translate(1145.5 1243.5)"/><text class="h" transform="translate(321 1148)"><tspan x="0" y="0">Zones piétonnes</tspan></text></g><g transform="translate(-146 -546)"><text class="h" transform="translate(317 1196)"><tspan x="0" y="0">Accès conseillé</tspan></text><path class="j" d="M0,0,46.931,18.745s10.9,5.422,18.351,13.823,11.44,19.781,11.44,19.781L150.364,210.6s2.92,7.567,12.393,16.683S189.2,246.319,189.2,246.319l111.527,39.27s21.228,3.834,38.685-3.732,31.936-25.263,31.936-25.263l49.095,14.538,3.575,30.506h11.439s4.825-17.472,11.44-21.211,18.351,1.43,18.351,1.43L509,154" transform="translate(609.5 1230.5)"/><circle class="k" cx="13" cy="13" r="13" transform="translate(1119 1378)"/><circle class="k" cx="13" cy="13" r="13" transform="translate(829 977)"/><path class="j" d="M-15.2-24.344H61.781" transform="translate(249.5 1209.5)"/><text class="h" transform="translate(1150.724 1402.318)"><tspan x="0" y="0">Secrétariat MMI</tspan><tspan x="0" y="38">au 1er étage</tspan></text><text class="h" transform="translate(765 1030)"><tspan x="0" y="0">Accueil IUT</tspan></text></g></g></svg>